<svg version="1" xmlns="http://www.w3.org/2000/svg" width="1280" height="1280" viewBox="0 0 960.000000 960.000000"><path d="M667.9 2.4c-5 4.7-9.6 11.2-13.6 19.1-3.4 6.8-5.4 11.9-5 12.8 0 .1-.6 1.3-1.3 2.7-.7 1.3-1.9 4.5-2.6 7-.7 2.5-2.2 7.9-3.4 12-1.2 4.1-2.3 7.9-2.4 8.5-.1.5-1 3.7-2 7s-2 6.7-2.1 7.5c-.2.8-.4 1.6-.5 1.7-.2.2-.4.7-.5 1.3-.1.5-.4 1.2-.5 1.5-.1.3-.3.8-.5 1.2-.7 2.8-5.5 14.4-6.6 16.3-.5.8-1.3 2.4-1.8 3.5-.6 1.1-2.7 4.5-4.8 7.6l-3.8 5.7.1 29c0 27.7-.1 29.1-1.9 30.4-4.7 3.2-5.5 4.5-14.6 24-2.2 4.6-4.5 7.8-7.7 10.4l-4.6 3.8h-9.9c-6 0-10 .4-10.2 1-.2.6-.4 2.9-.6 5.2-.2 3.5.2 4.5 2.9 6.8 1.7 1.4 4 2.6 5 2.6 1.8 0 4.8 1 9.7 3.3 4.8 2.2 3.5 10.6-2.6 16.4-5.7 5.4-13.2 8.4-20.9 8.6-6.1.1-14.4-.7-18.2-1.8-1.9-.5-6.4-1.4-11-2.1-9.1-1.4-10.4-1.2-18 2.6-7.9 4-12.6 5.4-17.5 5.3-9.1-.2-11.1-1.9-17.8-15.2-2.3-4.6-5.2-9-6.5-9.9-1.2-.8-4.6-1.5-7.6-1.5-4.6-.1-6.4.6-12.2 4-3.8 2.2-7.4 3.8-8.2 3.6-2.2-.9-4.1-5.6-3-7.6 2-3.7 9.6-26.1 12.3-36.7 1.3-5.2 7.7-35 8-37.5.5-4.2 1.4-9.7 3.1-18.5.9-4.1 1.7-8.4 1.9-9.5.2-1.1.6-3.1.9-4.5.4-1.4.8-3.9 1.1-5.5.6-3.2 2.1-11.4 3-15.5.2-1.4.7-3.9 1.1-5.5 5.3-27 9.8-45.7 13.3-55.9 1.2-3.3 2.1-6.5 2.1-7.1 0-1.5-6.9-7.7-16.5-14.9C452 10.9 431 4.4 412.5 7.5c-17 2.9-32.3 14.6-40.2 30.6-6.2 12.7-8.3 19.7-11.4 38.9-2.8 17.6-2.7 17-3.5 22.5-.3 2.7-.8 5.9-1 7-.3 1.1-.7 3.6-1 5.5-2.6 16.6-2.9 17.3-9.7 23.2-9.4 8.2-11.4 10.6-12.3 14.6-.4 2-.8 4.1-1 4.7-1.6 6.6-2.2 13.3-2.9 32.5-1.1 29.4-2.2 34.4-13.5 60.5-7.5 17.5-8.9 23.5-7.8 33.4.3 2.2-.1 2.4-4.3 2.7-5.6.4-14.6 3.4-25.9 8.6-17.5 8.2-30.2 12.9-38.5 14.2-1.6.3-4.6.8-6.5 1.2-4.9.9-7.7 1.3-13.5 1.9-2.7.2-7 .7-9.5 1-2.5.3-8.5.8-13.4 1.1-5 .3-9.3.7-9.7 1-.4.2-1 0-1.4-.6-.4-.6-1.1-.7-1.7-.4-.6.4-3.8.8-7.2 1-22.8 1-32.3 1.9-39.6 3.5-2.5.6-5.4 1.2-6.5 1.5-4.6.9-14.9 6.8-18.6 10.7-4.5 4.6-9 12.7-11 19.7-1.4 5.1-1.3 6.8.7 9.1 1.9 2.1 10.3 6.6 13.4 7.3 1.4.3 5.6 1.4 9.5 2.5 9.7 2.7 11.4 5 11 14.5-.4 7.8-.9 10.8-2.9 16.7-.8 2.2-1 4.2-.5 4.5.5.3 20.4.5 44.1.5h43.3l3 2.3c6.1 4.7 10.8 9.8 22.5 24.1 6.9 8.6 12.3 14.1 18.5 19.1l3.8 3.1-4.3 6.3c-5.6 8.2-12.3 14.8-16.3 15.8l-3 .8 5.8 2.9c6.6 3.3 9.1 6.3 9.9 11.5 1.2 8.1-8.1 19.5-19.1 23.4l-3.8 1.4 2.8 1.1c7.1 2.8 13.7 12.6 13.7 20.3 0 3.2-2.9 11-4.4 12-.6.4-.7.8-.3.8 1.1 0-4.3 9.7-10.1 18-5 7.2-22.1 24.5-25.2 25.5-1.1.4-2 1.1-2 1.6s-.5.9-1.2.9c-.6 0-1.9.6-2.7 1.4-4.2 3.7-28 14.3-36.2 16-1.3.3-4.3 1-6.7 1.6-2.3.5-5.9 1.3-8 1.6-2 .3-4.8.8-6.2 1-5 1.1-9.8 1.4-24.5 1.8-8.2.3-15.5.5-16.1.5-1.9.1-8.9 11.2-12.7 20.2l-3.7 8.6V691l7.8.1c15.4.1 27.3 2.3 38.7 6.9 8.7 3.6 24.4 12 27.1 14.5.6.5 3.2 2.3 5.7 3.9 2.6 1.7 4.7 3.4 4.7 3.8 0 .4.5.8 1 .8 1.1 0 6.2 3.4 8.7 5.7.7.6 2.8 2.1 4.8 3.3 4.2 2.6 5.2 5.7 6.1 19.5.3 5.5.6 10.4.6 11-.1 4.8-1.3 20.5-1.6 22.4-.3 1.2-.8 4.2-1 6.5-.3 2.2-.8 5-1 6.1-.2 1.1-1.2 5.6-2.1 10-.9 4.4-4.1 16.8-7.1 27.5-3.1 10.7-5.6 20.3-5.7 21.2-.1 1-.4 1.8-.7 1.8-.4 0-.7.6-.8 1.2-.1 1.5-.7 3.7-1.5 5.8-.8 2.3-3.1 12.5-2.7 12.5.2 0-.2 1-.8 2.2-.7 1.2-1.4 3.9-1.7 6-.3 2.1-.9 4.5-1.2 5.3-.3.8-.7 2.2-.8 3-.6 3.8-1.6 8.4-2 9-.2.3-.7 2.8-1 5.6-.4 2.7-.8 6-1 7.4-.2 1.4-.6 4.7-.9 7.5-.3 2.7-.8 6.3-1 7.9-.4 2.9.1 3.6 6.5 9.1 3.7 3.1 10.9 7.1 16.4 9 5.7 2 20.4 2.8 26.5 1.4 2.2-.5 5.7-1.2 7.8-1.5 2-.3 4-.8 4.3-1 .6-.3 5.5-1.3 9.9-1.9.8-.1 2.6-.5 4-.8 3.5-.9 7.7-1.6 14-2.2 7.9-.8 8.6-1.2 10-4.8.7-1.8 1.9-4.7 2.7-6.4 2.8-6.5 6.1-16 8.1-23.3 3.4-12.4 4-16.7 4.7-34.4.6-14.8 1.2-16 9.8-22.2 9.7-7.1 12.8-11 14.1-17.7.2-1.2 1-4.9 1.7-8.2.7-3.4.9-7.3.5-8.8-.8-3.3-4.6-7.1-9.7-9.7-2.2-1.2-5.3-3.5-6.9-5.1-2.5-2.7-2.8-3.4-1.8-5.3 3-5.6 6.4-5.8 16.8-1.1 9.8 4.4 13.3 4.5 17.1.4 5-5.3 3.5-7.7-6.6-10.9-11.6-3.6-15.2-7.4-14.3-15.3.6-4.8 2.8-7.7 17.8-22.8 8.9-9 16.8-15.1 25-19.5 1.9-1 3.7-1.9 4-1.9.3-.1 2.3-.9 4.5-1.9 4.6-2 12.8-4.2 18.6-5.1 3.9-.6 4-.5 3.3 1.7-1.5 4.5-1.1 11.2.9 14.8 1 1.9 5.2 6.7 9.3 10.6 4.1 4 7.4 8 7.4 8.9 0 1.4 1 1.5 7.3.9 24.4-2.3 42.3 4.3 51.9 19 4.2 6.5 12.4 23.1 12.7 25.6 1 9.4.7 14.4-.8 16.1-.9 1-2.9 5.6-4.6 10.1-3.4 9.4-7.1 13-12.7 12.3-3.7-.5-5.3.2-3.9 1.9.6.7 1.7 3.9 2.6 7.2 2.2 8.1 2.5 9.3 3.1 13.9.3 2.2.8 6 1.1 8.5.4 2.5.6 19.6.5 38.1l-.1 33.7 3.2 1.2c1.8.6 4.3 1.8 5.7 2.5 1.4.7 2.8 1.4 3.2 1.4 1.1.2 3.8 1.1 7.3 2.4 1.7.6 3.5 1.2 4 1.3.6.1 4.5 1.4 8.7 2.8 4.2 1.4 8.7 2.8 10 3 4.9 1 7 1.5 8.6 2 6.1 2 41.6 3.1 49.2 1.7 5.2-1.1 10.1-6 14.8-15 2.9-5.5 8.8-22 9.8-27.6.3-1.5 1-3.7 1.5-4.7.6-1.1.8-2.2.5-2.5-.3-.3.3-1.8 1.4-3.3 1.1-1.5 1.7-2.9 1.5-3.2-.7-.6 5.9-7.4 12.2-12.7 6.1-5 7-7.3 9.2-23.4.5-4 1-11.7 1.1-17.2.2-20.1 1.6-29 5.8-36.7 1.4-2.6 3.3-5 4.3-5.3 1.1-.4 1.9-1 1.9-1.4 0-.5 1.8-2 4-3.5 2.3-1.5 5.2-3.7 6.6-4.9 2.8-2.3 9.1-10.9 8.5-11.6-.1-.2.1-.7.6-1 1.3-.9 5.3-9 7.5-15.1 5.4-15.1 5.9-16 9.2-16.8 3.3-.9 10.2.5 17.1 3.4 2.6 1 4.1 1.2 4.8.5.6-.6 1.1-5.4 1.2-10.8.2-5.4.3-10.8.4-12 0-1.2 1.2-3.4 2.5-5l2.4-2.8 16.4-.1c16.6-.2 38-1.2 42.1-2 3.1-.6 8-1.2 16.7-2 10.5-.9 17-1.7 23.3-2.9 6.7-1.3 18.7-4.4 19.9-5.1.7-.5 1.8-.9 2.5-1 .7-.1 4.4-1.8 8.4-3.8 12.1-6.1 21.4-14.9 27-25.6 1.3-2.5 2.3-4.7 2.4-5 0-.3.3-1 .6-1.5.8-1.2 2.8-7.3 3.4-10.4.3-1.1.8-3.1 1.1-4.4 1.1-4 1.3-24.1.3-29.2-.5-2.8-1.1-5.9-1.3-7-.4-1.8-1.1-4.2-4.7-15.5-2-5.9-4.6-11.7-16.1-34.7-10.8-21.8-12.8-25-14.6-23.9-.5.3-2.4.8-4.3 1.1-1.9.3-5.1 1-7.1 1.6-2 .5-5.5 1.2-7.8 1.5-4.7.7-7.5 1.2-7.5 1.4 0 .6-12.7 1.4-25 1.4-21.7.1-31.8-1.7-41.5-7.2-5.9-3.4-10.2-8.2-7.2-8.2 1.8 0 5.2-3.8 6.7-7.3 2.3-5.5 1.8-13.2-1.6-25.3-1.7-6-3.2-11.7-3.4-12.7-.2-.9-.6-2.1-.9-2.5-.9-1.4-1.7-6.4-2.3-13.2-1-12.5 3.2-17.8 14-18 7.8 0 11.2 5.2 14.3 21.9.9 5.2 2.6 10.9 3.6 12.8 2.3 3.8 6.9 5.4 13.4 4.8 2.2-.3 6.9-.7 10.5-.9 8.3-.6 9.1-.8 12.2-2.9 2.8-1.8 5.1-7.8 4.5-11.7-.2-1.9-1-2.5-3-2.7-2.7-.2-12-5-12.6-6.5-.2-.4-.8-.8-1.2-.8-1.6 0-11.7-11.1-15-16.6-3.7-6.1-7.4-18-5.9-19 .5-.3.7-.9.4-1.4-1.5-2.4 2.2-9.7 7.1-14.6 5-5 5.4-5.2 9.8-4.8 5.9.6 12.8 3.6 19.1 8.2 6.5 4.9 10 7 12.9 8.2 2.1.8 2.7.4 4.9-2.8 6.7-10.1 15.7-16.5 43.7-30.8 6.3-3.2 11.7-6.1 12-6.4.3-.3 2.4-1.8 4.7-3.3 6-4.1 11.9-10.2 14.9-15.3l2.6-4.5-.5-25.7c-.8-33.9-2.3-47.9-6.3-60.7-1.7-5.3-8.9-19.1-10.5-20-.5-.4-.9-1.4-.9-2.4 0-2.2-4.9-3.5-25-6.5-1.9-.3-4.4-.7-5.5-1-1.1-.2-4.5-.7-7.6-1-3.1-.4-6.6-.8-7.7-1.1-1.1-.2-3.7-.6-5.8-.9-2.2-.4-4.6-.8-5.4-1.1-.8-.2-2.6-.6-4-.9-5.3-1.1-9.7-2.4-13.5-4-8.2-3.5-9.5-4.1-9.5-4.8 0-.5-.6-.8-1.3-.8-1.5 0-11.7-9.7-11.7-11.1 0-.4.7-2.9 1.6-5.5 1.9-5.5 2.2-7.2 2.8-13.9.2-2.8 1-7.3 1.6-10 .6-2.8 1.4-6.1 1.6-7.5.2-1.4.9-4.8 1.4-7.5.5-2.8 1.2-6.4 1.4-8 .3-1.7 1-6.6 1.7-11 .6-4.4 1.3-9.4 1.5-11 .1-1.7.3-3 .4-3 .1 0 .4-1.8.5-4 .2-2.2.4-4 .5-4 .1 0 .3-2 .5-4.4.3-2.5.6-5.8.9-7.5.3-1.7.8-6.9 1.2-11.6.3-4.7.8-8.8 1-9.1.2-.3.6-3.9.9-8 .3-4.1.8-8.5 1-9.9.2-1.4.7-5.9 1.1-10 .3-4.1.8-8.9 1-10.5.2-1.7.6-5.1.9-7.7.2-2.7.7-6 .9-7.5.3-1.5.8-5.2 1.1-8.2.6-5.5 1.2-9.6 1.5-9.6.1 0 .3-1.6.5-3.5.5-5.2 1.4-10.7 3-18 1.5-7.1 1.6-6.9-3.5-10.6-2.7-1.9-5-3.9-5.2-4.3-.2-.4-3.4-2.3-7.3-4.2l-7-3.4-45-.3-45-.2-2.6 2.4zm-68.8 302.8c1.1 2.1 1.1 2.2-.4.9-1-.7-1.7-1.7-1.7-2.2 0-1.5.9-1 2.1 1.3zM500.5 352c.8.7 1 3.9.6 11.1-.1 1-1.3 1.6-3.9 1.7-3.6.2-4 0-6-4-2.4-4.9-3.4-11.1-1.8-10.5.6.2 2 .1 3.1-.3 2-.7 5.9.3 8 2zm34.5 13v11l-3.7-1.5c-4-1.7-4.7-1.5-3.9 1.2.4 1.4 1.7 1.9 5.3 2 6.2.2 6.5.3 14.7 4.1 3.7 1.8 7 3.2 7.3 3.2.2 0 2.4 1.3 4.8 3 2.4 1.6 4.8 3 5.3 3 .6 0 1.2.4 1.4.9.2.6 1.5 1.2 2.9 1.5 3.5.6 8.6 3.3 11.7 6.1 2.9 2.7 6.8 2.6 11.1-.4 2.8-2 4.4-2.3 15.1-2.3 11.9-.1 13.1.1 13.7 2.5 3.7 17.7 5.4 29.7 5.5 38.7 0 6.4.5 11.8 1.3 13.7.8 1.7 1 3.3.5 3.5-1.7.6-19.8 39-22.4 47.5-.4 1.2-.2 2.4.4 2.8.5.3 1 1.6 1 2.9 0 1.2 1.1 3.3 2.4 4.5 2 1.9 2.3 3.1 2.2 8.4-.2 7.6-5 18-6.9 14.9-.3-.4-2.1-.7-4.1-.6-2.1.1-4-.4-4.7-1.3-1.1-1.2-1.5-.9-3 1.9-1 1.8-1.8 4.1-1.9 5 0 1-.4 1.8-1 1.8-.5 0-1 .4-1 .9 0 2.2-8.7 15.8-12.7 19.7-2.4 2.4-4.3 5-4.3 5.9 0 .8-.4 1.5-.9 1.5s-1.1 1.1-1.5 2.4c-.4 1.6-2.1 3-5.3 4.4-2.7 1.2-6 3.1-7.5 4.4-3.2 2.5-4 2.1-4.3-2.5-.1-2.9.3-3.5 3.8-5.2 3.6-1.8 5.6-4 4.5-5-.6-.6-9.4 4-11.4 6-1.5 1.5-1.5 1.9.2 5.3 1.1 2 2.2 3.8 2.6 4 .3.2-.5 2.1-1.9 4.2l-2.6 3.9-3.1-2.6-3-2.5-.7 2.6c-.4 1.5-1.3 3.4-1.9 4.2-1 1.1-.9 1.5.3 2 1.8.6 2.8 3.7 1.7 5.3-.5.9-3 .6-9.4-.9-13.1-3-13-3.1-16.7 4.5-1.7 3.5-3.3 8.3-3.6 10.6-.5 3.2-1.1 4.3-3.2 5.1-5.3 2.2-5.1 2.9-5.2-16.8-.1-27.8-.1-28.7-1.1-31.5-1.2-3.4-4.7-6.9-5-4.8-.5 4.8-.3 6.6.9 8.6 1.9 3.2 1.7 4.7-1.4 10.6-2.7 4.9-2.8 5.9-2.9 19.2-.1 12.7-1.4 21.5-3.4 21.5-1.2 0-5.9-5.1-6.5-7-.7-2.1-.8-2.1-2.6-.4-1.1 1-3.1 3.7-4.6 6-3.4 5.3-7.8 6.7-21.3 6.9-10.1.2-10.6 0-14.2-5.6-1.4-2.2-2.3-2.6-6.5-2.4-3.2.1-5.7-.4-7.4-1.6-1.4-1-3.7-2.1-5.2-2.4-1.5-.4-2.7-1.1-2.7-1.6s-.6-.9-1.4-.9c-1.9 0-4.6-1.5-14.8-8.3-4.7-3.1-8.9-5.7-9.2-5.7-.4 0-1.9-1.1-3.4-2.5-3.4-3.1-6.2-3.2-11.5-.1-3.8 2.2-5.4 2.4-15.9 2.4-6.5 0-11.9-.3-11.9-.7-.3-1.4-1-16.4-1.4-29.9-.3-10.7-.8-14.8-2-16.5-1.8-2.5-2-4.8-.4-4.5 1.3.3 2.5-3.1 3.4-10 .3-2.6 1-6.3 1.5-8.2.5-1.9 1.1-5.1 1.4-7 .3-1.9 1-5.1 1.6-7 1.6-5.2 2.4-17 1.2-17-.5 0-1.3-1.2-1.6-2.6-.4-1.4-1.8-3.6-3.1-4.8-2.9-2.7-3.5-9.5-1-11.6.8-.6 1.7-2.2 2.1-3.3 1.3-4.3 4.5-6.7 8.8-6.7 2.3 0 5 .7 6 1.5 2.6 1.9 3.6 1.9 3.6-.1 0-1.5 8.7-18.7 11.5-22.7 1.4-2.1 14.7-16.8 18.7-20.8 3-3.1 3.1-4.9.1-8.1-2.6-2.9-5.8-9.3-6.7-13.4-1.3-5.7 7.5-14.4 14.6-14.4 1.9 0 2.8.9 4.2 4.2 4.1 9.5 5.1 11.4 7 13 2.7 2.5 5.6 2.3 5.6-.2 0-1.1-.7-2.3-1.5-2.6-1.5-.6-2.2-6.4-.7-6.4.4 0 3 .6 5.7 1.3 2.8.7 5.7 1.2 6.5 1.2.8-.1 2.1.3 2.7.8.7.5 1.9.7 2.8.4.8-.4 1.7-.2 2 .4.4.5 1.1.7 1.6.3 1.3-.8 5-8 6.9-13.3 1.5-4.4 4-6.7 4-3.7 0 2.7 1.9 2.7 3.4-.1 1.4-2.6 1.5-2.2 1.3 6.9-.1 5.4-.5 9.8-.8 9.8-.3 0-.5 1.9-.6 4.2 0 2.4-.3 6.5-.6 9.3l-.5 5 3.2-6.6c3-6.2 3.2-7.1 3.1-17.5-.2-15.4-.5-16.1-7.4-13.9-1.4.4-2-.4-2.8-4-1.1-4.8-1.3-4.6 4.5-4.8 2.3-.1 2.7.3 2.7 2.9.1 1.6.4 2.8.8 2.6.4-.1 1.1-.2 1.7-.2.6 0 .5-1-.2-2.5-.8-1.9-.8-2.8.2-4 1.7-2.1 6.5-1.3 13.2 2l4.7 2.4 2.8-4.2c1.9-2.9 4.6-5.1 8.6-7.1 5.3-2.7 6.8-2.9 17.5-3.1 6.4-.1 12.3.2 13 .8 2 1.5 1.4-.3-1.8-5.4l-3-4.9 3.6-1.5c2-.8 4.2-1.5 4.8-1.5.6-.1 2.2-.7 3.6-1.5s2.8-1.4 3.3-1.5c.4 0 .7 5 .7 11z"/><path d="M458.5 431.9c.7 4 1.2 5.1 2.6 5.1 1.3 0 0-5.1-1.8-7-1.2-1.3-1.3-1.1-.8 1.9z"/></svg>