<?xml version="1.0" standalone="no"?>
<!DOCTYPE svg PUBLIC "-//W3C//DTD SVG 20010904//EN"
 "http://www.w3.org/TR/2001/REC-SVG-20010904/DTD/svg10.dtd">
<svg version="1.0" xmlns="http://www.w3.org/2000/svg"
 width="960.000000pt" height="960.000000pt" viewBox="0 0 960.000000 960.000000"
 preserveAspectRatio="xMidYMid meet">
<metadata>
Created by potrace 1.11, written by Peter Selinger 2001-2013
</metadata>
<g transform="translate(0.000000,960.000000) scale(0.100000,-0.100000)"
fill="#000000" stroke="none">
<path d="M6679 9576 c-50 -47 -96 -112 -136 -191 -34 -68 -54 -119 -50 -128 0
-1 -6 -13 -13 -27 -7 -13 -19 -45 -26 -70 -7 -25 -22 -79 -34 -120 -12 -41
-23 -79 -24 -85 -1 -5 -10 -37 -20 -70 -10 -33 -20 -67 -21 -75 -2 -8 -4 -16
-5 -17 -2 -2 -4 -7 -5 -13 -1 -5 -4 -12 -5 -15 -1 -3 -3 -8 -5 -12 -7 -28 -55
-144 -66 -163 -5 -8 -13 -24 -18 -35 -6 -11 -27 -45 -48 -76 l-38 -57 1 -290
c0 -277 -1 -291 -19 -304 -47 -32 -55 -45 -146 -240 -22 -46 -45 -78 -77 -104
l-46 -38 -99 0 c-60 0 -100 -4 -102 -10 -2 -6 -4 -29 -6 -52 -2 -35 2 -45 29
-68 17 -14 40 -26 50 -26 18 0 48 -10 97 -33 48 -22 35 -106 -26 -164 -57 -54
-132 -84 -209 -86 -61 -1 -144 7 -182 18 -19 5 -64 14 -110 21 -91 14 -104 12
-180 -26 -79 -40 -126 -54 -175 -53 -91 2 -111 19 -178 152 -23 46 -52 90 -65
99 -12 8 -46 15 -76 15 -46 1 -64 -6 -122 -40 -38 -22 -74 -38 -82 -36 -22 9
-41 56 -30 76 20 37 96 261 123 367 13 52 77 350 80 375 5 42 14 97 31 185 9
41 17 84 19 95 2 11 6 31 9 45 4 14 8 39 11 55 6 32 21 114 30 155 2 14 7 39
11 55 53 270 98 457 133 559 12 33 21 65 21 71 0 15 -69 77 -165 149 -195 147
-405 212 -590 181 -170 -29 -323 -146 -402 -306 -62 -127 -83 -197 -114 -389
-28 -176 -27 -170 -35 -225 -3 -27 -8 -59 -10 -70 -3 -11 -7 -36 -10 -55 -26
-166 -29 -173 -97 -232 -94 -82 -114 -106 -123 -146 -4 -20 -8 -41 -10 -47
-16 -66 -22 -133 -29 -325 -11 -294 -22 -344 -135 -605 -75 -175 -89 -235 -78
-334 3 -22 -1 -24 -43 -27 -56 -4 -146 -34 -259 -86 -175 -82 -302 -129 -385
-142 -16 -3 -46 -8 -65 -12 -49 -9 -77 -13 -135 -19 -27 -2 -70 -7 -95 -10
-25 -3 -85 -8 -134 -11 -50 -3 -93 -7 -97 -10 -4 -2 -10 0 -14 6 -4 6 -11 7
-17 4 -6 -4 -38 -8 -72 -10 -228 -10 -323 -19 -396 -35 -25 -6 -54 -12 -65
-15 -46 -9 -149 -68 -186 -107 -45 -46 -90 -127 -110 -197 -14 -51 -13 -68 7
-91 19 -21 103 -66 134 -73 14 -3 56 -14 95 -25 97 -27 114 -50 110 -145 -4
-78 -9 -108 -29 -167 -8 -22 -10 -42 -5 -45 5 -3 204 -5 441 -5 l433 0 30 -23
c61 -47 108 -98 225 -241 69 -86 123 -141 185 -191 l38 -31 -43 -63 c-56 -82
-123 -148 -163 -158 l-30 -8 58 -29 c66 -33 91 -63 99 -115 12 -81 -81 -195
-191 -234 l-38 -14 28 -11 c71 -28 137 -126 137 -203 0 -32 -29 -110 -44 -120
-6 -4 -7 -8 -3 -8 11 0 -43 -97 -101 -180 -50 -72 -221 -245 -252 -255 -11 -4
-20 -11 -20 -16 0 -5 -5 -9 -12 -9 -6 0 -19 -6 -27 -14 -42 -37 -280 -143
-362 -160 -13 -3 -43 -10 -67 -16 -23 -5 -59 -13 -80 -16 -20 -3 -48 -8 -62
-10 -50 -11 -98 -14 -245 -18 -82 -3 -155 -5 -161 -5 -19 -1 -89 -112 -127
-202 l-37 -86 0 -222 0 -221 78 -1 c154 -1 273 -23 387 -69 87 -36 244 -120
271 -145 6 -5 32 -23 57 -39 26 -17 47 -34 47 -38 0 -4 5 -8 10 -8 11 0 62
-34 87 -57 7 -6 28 -21 48 -33 42 -26 52 -57 61 -195 3 -55 6 -104 6 -110 -1
-48 -13 -205 -16 -224 -3 -12 -8 -42 -10 -65 -3 -22 -8 -50 -10 -61 -2 -11
-12 -56 -21 -100 -9 -44 -41 -168 -71 -275 -31 -107 -56 -203 -57 -212 -1 -10
-4 -18 -7 -18 -4 0 -7 -6 -8 -12 -1 -15 -7 -37 -15 -58 -8 -23 -31 -125 -27
-125 2 0 -2 -10 -8 -22 -7 -12 -14 -39 -17 -60 -3 -21 -9 -45 -12 -53 -3 -8
-7 -22 -8 -30 -6 -38 -16 -84 -20 -90 -2 -3 -7 -28 -10 -56 -4 -27 -8 -60 -10
-74 -2 -14 -6 -47 -9 -75 -3 -27 -8 -63 -10 -79 -4 -29 1 -36 65 -91 37 -31
109 -71 164 -90 57 -20 204 -28 265 -14 22 5 57 12 78 15 20 3 40 8 43 10 6 3
55 13 99 19 8 1 26 5 40 8 35 9 77 16 140 22 79 8 86 12 100 48 7 18 19 47 27
64 28 65 61 160 81 233 34 124 40 167 47 344 6 148 12 160 98 222 97 71 128
110 141 177 2 12 10 49 17 82 7 34 9 73 5 88 -8 33 -46 71 -97 97 -22 12 -53
35 -69 51 -25 27 -28 34 -18 53 30 56 64 58 168 11 98 -44 133 -45 171 -4 50
53 35 77 -66 109 -116 36 -152 74 -143 153 6 48 28 77 178 228 89 90 168 151
250 195 19 10 37 19 40 19 3 1 23 9 45 19 46 20 128 42 186 51 39 6 40 5 33
-17 -15 -45 -11 -112 9 -148 10 -19 52 -67 93 -106 41 -40 74 -80 74 -89 0
-14 10 -15 73 -9 244 23 423 -43 519 -190 42 -65 124 -231 127 -256 10 -94 7
-144 -8 -161 -9 -10 -29 -56 -46 -101 -34 -94 -71 -130 -127 -123 -37 5 -53
-2 -39 -19 6 -7 17 -39 26 -72 22 -81 25 -93 31 -139 3 -22 8 -60 11 -85 4
-25 6 -196 5 -381 l-1 -337 32 -12 c18 -6 43 -18 57 -25 14 -7 28 -14 32 -14
11 -2 38 -11 73 -24 17 -6 35 -12 40 -13 6 -1 45 -14 87 -28 42 -14 87 -28
100 -30 49 -10 70 -15 86 -20 61 -20 416 -31 492 -17 52 11 101 60 148 150 29
55 88 220 98 276 3 15 10 37 15 47 6 11 8 22 5 25 -3 3 3 18 14 33 11 15 17
29 15 32 -7 6 59 74 122 127 61 50 70 73 92 234 5 40 10 117 11 172 2 201 16
290 58 367 14 26 33 50 43 53 11 4 19 10 19 14 0 5 18 20 40 35 23 15 52 37
66 49 28 23 91 109 85 116 -1 2 1 7 6 10 13 9 53 90 75 151 54 151 59 160 92
168 33 9 102 -5 171 -34 26 -10 41 -12 48 -5 6 6 11 54 12 108 2 54 3 108 4
120 0 12 12 34 25 50 l24 28 164 1 c166 2 380 12 421 20 31 6 80 12 167 20
105 9 170 17 233 29 67 13 187 44 199 51 7 5 18 9 25 10 7 1 44 18 84 38 121
61 214 149 270 256 13 25 23 47 24 50 0 3 3 10 6 15 8 12 28 73 34 104 3 11 8
31 11 44 11 40 13 241 3 292 -5 28 -11 59 -13 70 -4 18 -11 42 -47 155 -20 59
-46 117 -161 347 -108 218 -128 250 -146 239 -5 -3 -24 -8 -43 -11 -19 -3 -51
-10 -71 -16 -20 -5 -55 -12 -78 -15 -47 -7 -75 -12 -75 -14 0 -6 -127 -14
-250 -14 -217 -1 -318 17 -415 72 -59 34 -102 82 -72 82 18 0 52 38 67 73 23
55 18 132 -16 253 -17 60 -32 117 -34 127 -2 9 -6 21 -9 25 -9 14 -17 64 -23
132 -10 125 32 178 140 180 78 0 112 -52 143 -219 9 -52 26 -109 36 -128 23
-38 69 -54 134 -48 22 3 69 7 105 9 83 6 91 8 122 29 28 18 51 78 45 117 -2
19 -10 25 -30 27 -27 2 -120 50 -126 65 -2 4 -8 8 -12 8 -16 0 -117 111 -150
166 -37 61 -74 180 -59 190 5 3 7 9 4 14 -15 24 22 97 71 146 50 50 54 52 98
48 59 -6 128 -36 191 -82 65 -49 100 -70 129 -82 21 -8 27 -4 49 28 67 101
157 165 437 308 63 32 117 61 120 64 3 3 24 18 47 33 60 41 119 102 149 153
l26 45 -5 257 c-8 339 -23 479 -63 607 -17 53 -89 191 -105 200 -5 4 -9 14 -9
24 0 22 -49 35 -250 65 -19 3 -44 7 -55 10 -11 2 -45 7 -76 10 -31 4 -66 8
-77 11 -11 2 -37 6 -58 9 -22 4 -46 8 -54 11 -8 2 -26 6 -40 9 -53 11 -97 24
-135 40 -82 35 -95 41 -95 48 0 5 -6 8 -13 8 -15 0 -117 97 -117 111 0 4 7 29
16 55 19 55 22 72 28 139 2 28 10 73 16 100 6 28 14 61 16 75 2 14 9 48 14 75
5 28 12 64 14 80 3 17 10 66 17 110 6 44 13 94 15 110 1 17 3 30 4 30 1 0 4
18 5 40 2 22 4 40 5 40 1 0 3 20 5 44 3 25 6 58 9 75 3 17 8 69 12 116 3 47 8
88 10 91 2 3 6 39 9 80 3 41 8 85 10 99 2 14 7 59 11 100 3 41 8 89 10 105 2
17 6 51 9 77 2 27 7 60 9 75 3 15 8 52 11 82 6 55 12 96 15 96 1 0 3 16 5 35
5 52 14 107 30 180 15 71 16 69 -35 106 -27 19 -50 39 -52 43 -2 4 -34 23 -73
42 l-70 34 -450 3 -450 2 -26 -24z m-688 -3028 c11 -21 11 -22 -4 -9 -10 7
-17 17 -17 22 0 15 9 10 21 -13z m-986 -468 c8 -7 10 -39 6 -111 -1 -10 -13
-16 -39 -17 -36 -2 -40 0 -60 40 -24 49 -34 111 -18 105 6 -2 20 -1 31 3 20 7
59 -3 80 -20z m345 -130 l0 -110 -37 15 c-40 17 -47 15 -39 -12 4 -14 17 -19
53 -20 62 -2 65 -3 147 -41 37 -18 70 -32 73 -32 2 0 24 -13 48 -30 24 -16 48
-30 53 -30 6 0 12 -4 14 -9 2 -6 15 -12 29 -15 35 -6 86 -33 117 -61 29 -27
68 -26 111 4 28 20 44 23 151 23 119 1 131 -1 137 -25 37 -177 54 -297 55
-387 0 -64 5 -118 13 -137 8 -17 10 -33 5 -35 -17 -6 -198 -390 -224 -475 -4
-12 -2 -24 4 -28 5 -3 10 -16 10 -29 0 -12 11 -33 24 -45 20 -19 23 -31 22
-84 -2 -76 -50 -180 -69 -149 -3 4 -21 7 -41 6 -21 -1 -40 4 -47 13 -11 12
-15 9 -30 -19 -10 -18 -18 -41 -19 -50 0 -10 -4 -18 -10 -18 -5 0 -10 -4 -10
-9 0 -22 -87 -158 -127 -197 -24 -24 -43 -50 -43 -59 0 -8 -4 -15 -9 -15 -5 0
-11 -11 -15 -24 -4 -16 -21 -30 -53 -44 -27 -12 -60 -31 -75 -44 -32 -25 -40
-21 -43 25 -1 29 3 35 38 52 36 18 56 40 45 50 -6 6 -94 -40 -114 -60 -15 -15
-15 -19 2 -53 11 -20 22 -38 26 -40 3 -2 -5 -21 -19 -42 l-26 -39 -31 26 -30
25 -7 -26 c-4 -15 -13 -34 -19 -42 -10 -11 -9 -15 3 -20 18 -6 28 -37 17 -53
-5 -9 -30 -6 -94 9 -131 30 -130 31 -167 -45 -17 -35 -33 -83 -36 -106 -5 -32
-11 -43 -32 -51 -53 -22 -51 -29 -52 168 -1 278 -1 287 -11 315 -12 34 -47 69
-50 48 -5 -48 -3 -66 9 -86 19 -32 17 -47 -14 -106 -27 -49 -28 -59 -29 -192
-1 -127 -14 -215 -34 -215 -12 0 -59 51 -65 70 -7 21 -8 21 -26 4 -11 -10 -31
-37 -46 -60 -34 -53 -78 -67 -213 -69 -101 -2 -106 0 -142 56 -14 22 -23 26
-65 24 -32 -1 -57 4 -74 16 -14 10 -37 21 -52 24 -15 4 -27 11 -27 16 0 5 -6
9 -14 9 -19 0 -46 15 -148 83 -47 31 -89 57 -92 57 -4 0 -19 11 -34 25 -34 31
-62 32 -115 1 -38 -22 -54 -24 -159 -24 -65 0 -119 3 -119 7 -3 14 -10 164
-14 299 -3 107 -8 148 -20 165 -18 25 -20 48 -4 45 13 -3 25 31 34 100 3 26
10 63 15 82 5 19 11 51 14 70 3 19 10 51 16 70 16 52 24 170 12 170 -5 0 -13
12 -16 26 -4 14 -18 36 -31 48 -29 27 -35 95 -10 116 8 6 17 22 21 33 13 43
45 67 88 67 23 0 50 -7 60 -15 26 -19 36 -19 36 1 0 15 87 187 115 227 14 21
147 168 187 208 30 31 31 49 1 81 -26 29 -58 93 -67 134 -13 57 75 144 146
144 19 0 28 -9 42 -42 41 -95 51 -114 70 -130 27 -25 56 -23 56 2 0 11 -7 23
-15 26 -15 6 -22 64 -7 64 4 0 30 -6 57 -13 28 -7 57 -12 65 -12 8 1 21 -3 27
-8 7 -5 19 -7 28 -4 8 4 17 2 20 -4 4 -5 11 -7 16 -3 13 8 50 80 69 133 15 44
40 67 40 37 0 -27 19 -27 34 1 14 26 15 22 13 -69 -1 -54 -5 -98 -8 -98 -3 0
-5 -19 -6 -42 0 -24 -3 -65 -6 -93 l-5 -50 32 66 c30 62 32 71 31 175 -2 154
-5 161 -74 139 -14 -4 -20 4 -28 40 -11 48 -13 46 45 48 23 1 27 -3 27 -29 1
-16 4 -28 8 -26 4 1 11 2 17 2 6 0 5 10 -2 25 -8 19 -8 28 2 40 17 21 65 13
132 -20 l47 -24 28 42 c19 29 46 51 86 71 53 27 68 29 175 31 64 1 123 -2 130
-8 20 -15 14 3 -18 54 l-30 49 36 15 c20 8 42 15 48 15 6 1 22 7 36 15 14 8
28 14 33 15 4 0 7 -50 7 -110z"/>
<path d="M4585 5281 c7 -40 12 -51 26 -51 13 0 0 51 -18 70 -12 13 -13 11 -8
-19z"/>
</g>
</svg>
