<svg xmlns="http://www.w3.org/2000/svg" width="32.5" height="15"><path d="M16.3 0C10.2 0 4.4 2.5.1 7.1c-.1.2-.1.5 0 .7 4.3 4.6 10 7.2 16.1 7.2 6.1 0 11.8-2.6 16.1-7.2.2-.2.2-.5 0-.7-4.2-4.6-9.9-7.1-16-7.1zm0 14c-3.6 0-6.5-2.9-6.5-6.5S12.7 1 16.3 1s6.5 2.9 6.5 6.5-2.9 6.5-6.5 6.5zM11.9 1.5C10 2.8 8.8 5 8.8 7.5s1.2 4.7 3.1 6c-4-.9-7.7-2.9-10.7-6 3-3.1 6.7-5.2 10.7-6zm8.8 12c1.9-1.4 3.1-3.6 3.1-6 0-2.5-1.2-4.7-3.1-6 4 .9 7.7 2.9 10.7 6-3 3.1-6.7 5.1-10.7 6z"/><path d="M16.3 4.9c-1.4 0-2.6 1.2-2.6 2.6s1.2 2.6 2.6 2.6 2.6-1.2 2.6-2.6-1.2-2.6-2.6-2.6zm0 4.2c-.9 0-1.6-.7-1.6-1.6s.7-1.6 1.6-1.6c.9 0 1.6.7 1.6 1.6s-.7 1.6-1.6 1.6z"/></svg>