<svg xmlns="http://www.w3.org/2000/svg" width="12" height="13" viewBox="0 0 12 13">
    <path fill="#CBCBCB" fill-rule="nonzero" d="M8.4 7.719c-.769 0-1.138.406-2.4.406s-1.629-.406-2.4-.406C1.612 7.719 0 9.247 0 11.13v.65C0 12.454.576 13 1.286 13h9.428c.71 0 1.286-.546 1.286-1.219v-.65c0-1.884-1.613-3.412-3.6-3.412zm2.314 4.062H1.286v-.65c0-1.208 1.039-2.194 2.314-2.194.391 0 1.026.407 2.4.407 1.385 0 2.006-.406 2.4-.406 1.275 0 2.314.985 2.314 2.193v.65zM6 7.312c2.13 0 3.857-1.637 3.857-3.656C9.857 1.638 8.13 0 6 0 3.87 0 2.143 1.638 2.143 3.656 2.143 5.675 3.87 7.312 6 7.312zM6 1.22c1.417 0 2.571 1.094 2.571 2.437C8.571 5 7.417 6.094 6 6.094c-1.417 0-2.571-1.095-2.571-2.438C3.429 2.313 4.583 1.22 6 1.22z"/>
</svg>
