<?xml version="1.0" encoding="UTF-8"?>
<svg width="12px" height="13px" viewBox="0 0 12 13" version="1.1" xmlns="http://www.w3.org/2000/svg" xmlns:xlink="http://www.w3.org/1999/xlink">
    <!-- Generator: sketchtool 51.3 (57544) - http://www.bohemiancoding.com/sketch -->
    <title>32E6567D-B130-4BF2-86BE-D67B74283494</title>
    <desc>Created with sketchtool.</desc>
    <defs></defs>
    <g id="Page-1" stroke="none" stroke-width="1" fill="none" fill-rule="evenodd">
        <g id="sekta__lk_desktop" transform="translate(-603.000000, -325.000000)" fill="#CBCBCB" fill-rule="nonzero">
            <g id="курс" transform="translate(389.000000, 224.000000)">
                <g id="Calendar" transform="translate(214.000000, 101.000000)">
                    <path d="M0,4.2 L0,12 C0,12.5 0.5,13 1,13 L10.4,13 C11,13 11.4,12.5 11.4,11.9 L11.4,4.2 L0,4.2 Z M2.9,12.2 L0.8,12.2 L0.8,10.1 L2.9,10.1 L2.9,12.2 Z M2.9,9.6 L0.8,9.6 L0.8,7.5 L2.9,7.5 L2.9,9.6 Z M2.9,7 L0.8,7 L0.8,4.9 L2.9,4.9 L2.9,7 Z M5.5,12.2 L3.4,12.2 L3.4,10.1 L5.5,10.1 L5.5,12.2 Z M5.5,9.6 L3.4,9.6 L3.4,7.5 L5.5,7.5 L5.5,9.6 Z M5.5,7 L3.4,7 L3.4,4.9 L5.5,4.9 L5.5,7 Z M8.1,12.2 L6,12.2 L6,10.1 L8.1,10.1 L8.1,12.2 Z M8.1,9.6 L6,9.6 L6,7.5 L8.1,7.5 L8.1,9.6 Z M8.1,7 L6,7 L6,4.9 L8.1,4.9 L8.1,7 Z M10.7,12.2 L8.6,12.2 L8.6,10.1 L10.7,10.1 L10.7,12.2 Z M10.7,9.6 L8.6,9.6 L8.6,7.5 L10.7,7.5 L10.7,9.6 Z M10.7,7 L8.6,7 L8.6,4.9 L10.7,4.9 L10.7,7 Z" id="Shape"></path>
                    <path d="M10.4,1.6 L8.7,1.6 L8.7,0.4 C8.7,0.2 8.5,0 8.3,0 C8.1,0 7.9,0.2 7.9,0.4 L7.9,1.6 L3.5,1.6 L3.5,0.4 C3.5,0.2 3.3,0 3.1,0 C2.9,0 2.7,0.2 2.7,0.4 L2.7,1.6 L1,1.6 C0.5,1.6 0,2 0,2.6 L0,3.5 L0,3.6 L11.4,3.6 L11.4,3.5 L11.4,2.6 C11.4,2 11,1.6 10.4,1.6 Z M3.1,3.4 C2.7,3.4 2.3,3 2.3,2.6 C2.3,2.3 2.5,2.1 2.7,1.9 L2.7,2.6 C2.7,2.8 2.9,3 3.1,3 C3.3,3 3.5,2.8 3.5,2.6 L3.5,1.9 C3.7,2 3.9,2.3 3.9,2.6 C3.9,3 3.6,3.4 3.1,3.4 Z M8.3,3.4 C7.9,3.4 7.5,3 7.5,2.6 C7.5,2.3 7.7,2.1 7.9,1.9 L7.9,2.6 C7.9,2.8 8.1,3 8.3,3 C8.5,3 8.7,2.8 8.7,2.6 L8.7,1.9 C8.9,2 9.1,2.3 9.1,2.6 C9.1,3 8.8,3.4 8.3,3.4 Z" id="Shape"></path>
                </g>
            </g>
        </g>
    </g>
</svg>