<?xml version="1.0" encoding="UTF-8"?>
<svg width="15px" height="13px" viewBox="0 0 15 13" version="1.1" xmlns="http://www.w3.org/2000/svg" xmlns:xlink="http://www.w3.org/1999/xlink">
    <!-- Generator: sketchtool 51.3 (57544) - http://www.bohemiancoding.com/sketch -->
    <title>EABD2169-8D14-4FFF-A274-A2BAC9D3E303</title>
    <desc>Created with sketchtool.</desc>
    <defs></defs>
    <g id="Page-1" stroke="none" stroke-width="1" fill="none" fill-rule="evenodd">
        <g id="sekta__lk_desktop" transform="translate(-601.000000, -291.000000)" fill="#CBCBCB" fill-rule="nonzero">
            <g id="курс" transform="translate(389.000000, 224.000000)">
                <g id="Graph" transform="translate(212.000000, 67.000000)">
                    <path d="M14.5,12.5 C14.5,12.8 14.3,13 14,13 L1.2,13 C0.5,13 0,12.5 0,11.8 L0,0.5 C0,0.2 0.2,0 0.5,0 C0.8,0 1,0.2 1,0.5 L1,11.8 C1,12 1.1,12.1 1.3,12.1 L14.1,12.1 C14.3,12.1 14.5,12.3 14.5,12.5 Z M3.2,9.2 C3.3,9.2 3.4,9.2 3.5,9.1 L6.9,5.7 C7,5.6 7.2,5.6 7.3,5.7 L8.5,6.9 C9,7.4 9.8,7.4 10.2,6.9 L13.3,3.8 L13.3,5.3 C13.3,5.6 13.5,5.8 13.8,5.8 C14.1,5.8 14.3,5.6 14.3,5.3 L14.3,2.6 C14.3,2.5 14.3,2.5 14.3,2.4 C14.3,2.3 14.2,2.2 14.1,2.2 C14,2.2 14,2.2 13.9,2.2 L11.3,2.2 C11,2.2 10.8,2.4 10.8,2.7 C10.8,3 11,3.2 11.3,3.2 L12.8,3.2 L9.5,6.2 C9.4,6.3 9.2,6.3 9.1,6.2 L8,5 C7.5,4.5 6.7,4.5 6.2,5 L2.9,8.4 C2.7,8.6 2.7,8.9 2.9,9 C2.9,9.1 3.1,9.2 3.2,9.2 Z" id="Shape"></path>
                </g>
            </g>
        </g>
    </g>
</svg>