<svg xmlns="http://www.w3.org/2000/svg" width="14" height="13" viewBox="0 0 14 13">
    <path fill="#CBCBCB" fill-rule="nonzero" d="M3.957 5.107c-.483 0-.873.415-.873.929 0 .513.39.928.873.928s.873-.415.873-.928c0-.514-.39-.929-.873-.929zm3.057 0c-.483 0-.874.415-.874.929 0 .513.39.928.874.928.483 0 .873-.415.873-.928 0-.514-.39-.929-.873-.929zm3.056 0c-.483 0-.873.415-.873.929 0 .513.39.928.873.928s.873-.415.873-.928c0-.514-.39-.929-.873-.929zM7.014 0C3.154 0 .027 2.702.027 6.036c0 1.381.543 2.646 1.444 3.665-.407 1.143-1.253 2.112-1.266 2.124a.73.73 0 0 0-.126.754c.104.256.341.421.603.421 1.679 0 3.002-.746 3.796-1.344a7.97 7.97 0 0 0 2.536.415C10.873 12.071 14 9.37 14 6.036S10.873 0 7.014 0zm0 10.679c-.729 0-1.45-.12-2.14-.352l-.62-.208-.532.4c-.39.293-.925.621-1.569.841.2-.35.393-.745.543-1.166l.29-.815-.563-.633c-.494-.56-1.086-1.486-1.086-2.71 0-2.56 2.546-4.643 5.677-4.643 3.13 0 5.676 2.083 5.676 4.643 0 2.56-2.546 4.643-5.676 4.643z"/>
</svg>
