<svg id="Layer_1" xmlns="http://www.w3.org/2000/svg" width="122" height="35.3"><style>.st0{fill: currentColor}</style><path class="st0" d="M61 33.9c-4.5 0-8.3-1.6-11.5-4.7-3.1-3-4.7-6.9-4.7-11.5 0-4.5 1.6-8.3 4.7-11.5C52.7 3 56.4 1.5 61 1.5c4.5 0 8.3 1.6 11.5 4.7s4.7 7 4.7 11.5-1.6 8.3-4.7 11.5c-3.2 3.1-7 4.7-11.5 4.7zm0-31.4C56.8 2.5 53.3 4 50.3 7s-4.5 6.5-4.5 10.7c0 4.3 1.5 7.8 4.4 10.7 3 3 6.5 4.5 10.8 4.5s7.8-1.5 10.7-4.5c3-3 4.5-6.5 4.5-10.7S74.7 10 71.7 7C68.8 4 65.2 2.5 61 2.5z"/><path class="st0" d="M120.4 18.1c.1.1.1.1.1.2s0 .2-.1.2c-.1.1-.2.1-.3.1l-54.4 5.5c-.2 1.3-.5 2.1-.8 2.4-.3.2-.6.4-1 .4H58c-.4 0-.7-.1-1-.4-.3-.2-.5-1-.8-2.4L1.9 18.7c-.1 0-.2 0-.3-.1s-.1-.1-.1-.2 0-.2.1-.2c.1-.2.2-.2.3-.2l52 2.7c.5 0 1-.2 1.4-.5s.6-.7.6-1.1v-3.9L41 14.6c-.1 0-.2 0-.3-.1s-.1-.1-.1-.2 0-.2.1-.2c.1-.1.2-.1.3-.1h15.6l1.4-2.5c0-.1.1-.1.1-.2.1-.2.3-.4.5-.6.5-.4 1.1-.7 1.8-.8l.2-6.6c0-.1 0-.1.1-.2s.2-.1.3-.1.1 0 .2.1.1.1.1.2l.2 6.6c.7.1 1.2.4 1.7.8.2.2.4.4.5.6 0 .1.1.1.1.2l1.4 2.5H81c.1 0 .2 0 .3.1.1.1.1.1.1.2s0 .2-.1.2c-.1.1-.2.1-.3.1l-14.9.7v3.9c0 .4.2.8.6 1.1.4.3.9.5 1.4.5l52-2.7c.1-.1.2-.1.3 0"/></svg>