<svg xmlns="http://www.w3.org/2000/svg" width="40" height="70"><path d="M24.4 35.7l.2.2v.5c-.1.1-.1.2-.2.3l-.1.1H24l-.1-.1-.1.3-.4.7-.1.1-.2.2-.3.4-.3.1c-.2.2-.2.2-.3.2V38.4c.1 0 .2-.1.3-.1v-.2c-.1.1-.2.2-.4.2 0 .1-.1.1-.1.2l.2.3c-.1.1-.1.2-.2.3l-.1-.1-.1-.1c0 .1 0 .2-.1.3l.1.1v.2l-.9-.2-.2.3-.1.4v.1c-.1.1-.2.1-.3.1V38.5c0-.2-.1-.3-.1-.4h-.1v.3l.1.1-.1.3c-.1.1-.1.3-.1.4v1l-.1.3-.5-.1-.1-.2-.1.1c-.1.2-.1.2-.2.3l-.4.1H17.7c-.1-.1-.2-.2-.2-.3h-.4l-.2-.1-.5-.2-.6-.4-.3-.2-.1-.1h-.2l-.3.2h-1l-.1-1.2v-.6c0-.1-.1-.2-.1-.3 0 0 .1 0 .1-.1l.1-.7.2-.9v-.1c0-.1-.1-.2-.1-.3l-.2-.2v-.5c.1-.1.1-.2.2-.3l.1-.1h.3l.2.1.1-.3.4-.7.7-.8.1-.1v-.1c-.2-.2-.3-.4-.4-.7.1-.3.3-.5.7-.5.1.3.2.5.4.8h.2v-.1l-.1-.1v-.2l.9.2.2-.3.1-.4c.1-.1.2-.1.3-.1l-.1 1.7c0 .2.1.3.2.4h.1v-.3l-.1-.1.1-.3c.1-.2.1-.3.1-.4v-.5c0-.2 0-.4-.1-.5l.1-.3.5.1.1.1s.1 0 .1-.1c.1-.2.1-.2.3-.3l.4-.1h.9c.1.1.1.2.2.3h.4l.7.3.2.1.3.2h.1l.3.2.1.1h.2l.3-.2h1l.1.5.1.8v.7c0 .1 0 .2.1.3 0 0-.1 0-.1.1l-.1.7-.4.9v.1c.1 0 .1.1.1.2m-6-5.3c.1.1.1.1.1.2-.1.1-.2.3-.3.4l-.1-.6h.3zm1.3-1.3l.3.1v.5h-.3c-.1-.2-.2-.4-.2-.6h.2zm1.7.2V30.2l-.3-.1-.3-.5c.2-.2.4-.2.6-.3m2.6-2.1l.1.2-.2-.1.1-.1m10.7-.9c-.1-.2-.2-.4-.3-.5v-.1c-1.3-.4-3.3-.2-4-1.3.1-.3.2-.6.2-.9.6-2.5.6-5.4 1.1-8-.1-.1-.3-.2-.4-.3-1.2-.7-2.1-.4-4.2-.4-1.4 1-1.2 3.6-2.3 4.9V22c-.8.4-.4 2-2 1.6-.4 1.1 1.1.3.7 1.3-.8 1-1.8.3-2.6.3-.2 0-.7.5-1.3.3-.3 0-.5-.9-.7-1-.8-.4-1.1.7-1.3 0 .5-1.2.8-2.6 1-3.9.3-1.5.5-3 1-4.3-.5-.5-1.1-.9-1.6-1.1-1.2-.5-2.4-.2-3 .7-.7 1.2-.6 2.2-1 4 0 .1-.6.5-.7.7-.3 1-.1 2-.3 3-.3 1.2-1 1.9-.7 2.6-1 0-1.7.8-3 1-3 .5-5.2-.3-5.6 2 1 .9 1.9-.1 1.3 2h3.6c.8.5 1.2 1.5 2 2-.5.8-.5.8-1 1 1.3.3.4 1.5-.3 1.6.4.1.7.4.7 1-.8 2.2-2.8 3.4-5.9 3.3-.6.6-1.1 2.4-.7 3 2.1-.1 3.1.9 4.3 1.7.5 2.8-1.1 5.2-1.3 8.2 1.4 1.3 2.3.4 4 .3.4-.9.8-1.8.7-3.3.2-.5 1-.5 1-1.3.4-1-.5-.8-.7-1.3.4-.8 1.2.7 1.6-.3-.3-.3-1.2-.1-1-1 .8-.9 1.5-1.8 3-2-.3 1 .5 1 .7 1.6 1.2-.2 1.9.1 2.3.6.2.3.4.6.5 1 .1.2.1.5.1.8-.4.3-.1 1.2-1 1 .5 1.1.3 2.8.3 4.3 1.5.6 2.6 1 4.3.7.6-.5.7-1.3.9-2 0-.1.1-.2.1-.3 0-.1.6-.5.7-.7.1-.3.1-.7.2-1.1v-.2c0-.6 0-1.2.2-1.6.1-.4.7-.5 1-1 .9-1.4.2-1.9 1.7-1.3.1-.5-.1-1.2.3-1.3 1 0 1.9 0 2.7-.1 1.9-.1 3.4-.5 3.9-2.2.5-1.7-.5-3.3-1.3-4.9-.6.1-1.4.3-2.2.3-.9 0-1.7-.1-2.1-.6 1-.6-.2-2 0-2.9 0-.2.1-.3.3-.4.5-.1.6.1.7.4.2.6 0 1.4.9 1.2.5 0 1.1 0 1-.7-.5.1-2.5-1.7-1-2.6.8 0 1 .5 1.6.7.7-1.3 2.7-1.3 3.3-2.6 0-1.6 0-3-.4-3.9" fill="#0e0f0f"/></svg>