<svg xmlns="http://www.w3.org/2000/svg" width="100%" height="100%" viewBox="0 0 45 45"><rect width="45" height="45" rx="5" ry="5" style="fill:#0ab6a1"/><path d="M22.24,28.3H23.7a1.24,1.24,0,0,0,.67-.29,1.07,1.07,0,0,0,.2-.64s0-2,.88-2.26,2.06,1.9,3.28,2.74a2.32,2.32,0,0,0,1.63.5l3.28,0s1.71-.11.9-1.45A11,11,0,0,0,32.11,24c-2.06-1.91-1.78-1.6.7-4.9,1.51-2,2.11-3.24,1.92-3.76S33.44,15,33.44,15l-3.69,0a.84.84,0,0,0-.48.08,1,1,0,0,0-.33.4,21.41,21.41,0,0,1-1.36,2.88c-1.64,2.79-2.3,2.94-2.57,2.76-.62-.4-.47-1.62-.47-2.49,0-2.7.41-3.83-.8-4.12A6.31,6.31,0,0,0,22,14.36a8,8,0,0,0-3.06.31c-.42.21-.74.66-.55.69a1.66,1.66,0,0,1,1.09.55,3.56,3.56,0,0,1,.37,1.67s.22,3.18-.51,3.58c-.5.27-1.18-.28-2.64-2.81a23.55,23.55,0,0,1-1.32-2.73,1.1,1.1,0,0,0-.3-.41,1.52,1.52,0,0,0-.57-.23L11,15s-.53,0-.72.24,0,.62,0,.62,2.75,6.42,5.85,9.66a8.42,8.42,0,0,0,6.09,2.77" style="fill:#fff"/></svg>
