<svg xmlns="http://www.w3.org/2000/svg" width="45" height="45"><rect width="45" height="45" rx="5" ry="5" style="fill:#0ab6a1"/><path d="M23,30l-4.45-.08a23.21,23.21,0,0,1-4.3-.27c-2.15-.44-2.3-2.59-2.46-4.4a30.84,30.84,0,0,1,.28-7.64,2.61,2.61,0,0,1,2.58-2.35,142.24,142.24,0,0,1,14.43-.14,10.41,10.41,0,0,1,1.51.18c2.46.43,2.52,2.87,2.68,4.92A27.91,27.91,0,0,1,33,26.44c-.24,1.71-.71,3.14-2.68,3.27-2.47.18-4.88.33-7.36.28C23,30,23,30,23,30Zm-2.62-4.32,5.54-3.18L20.37,19.3Z" style="fill:#fff"/></svg>
