<svg id="Слой_1" xmlns="http://www.w3.org/2000/svg" width="200" height="200"><style>.st0{fill:#0ab6a1}.st1{fill:#fff}</style><path class="st0" d="M195.6 134.3c-.3 0-.5-.1-.8-.1.1 2.5-.4 5.1.4 8.2.3-.9.4-1.3.4-1.6v-6.5zM191.5 42.4c.4-1.2.3-2.5-.3-3.9-.2 1.2-.5 2.4-.7 3.7 0 .2.2.5.4.5.1.1.5-.1.6-.3zM5 59.1c-.6.2-.6.7-.6 1.2v1.4c.2 0 .3.1.5.1.2-.4.4-.9.5-1.3.3-.9.1-1.5-.4-1.4zM8.3 78.1s-.1 0 0 0c0 .1 0 0 0 0zM35.7 17.8c.4 0 .5-.4.5-.7-.1-.4-.2-.7-.7-.5-.2.1-.4.4-.4.5 0 .3.2.6.6.7zM147.5 15c.5.2 1 .2 1.4-.1v-.3c-.4-.4-.9-.3-1.4-.2-.3.2-.4.5 0 .6zM188.6 23.3c.1.2.2.4.4.5.1-.2.3-.4.3-.6.1-.3.1-.7.1-1 .5-.9.9-1.9.9-3 .2-.1.5-.1.7-.2.5-.2.7-.7.5-1.1-.1-.2-.6-.3-.9-.3-.5 0-.9.3-1 .8l-.1.1c-.3.1-.6.4-.8.6-1.3 1.5-1.3 1.5-.1 3.2-.1.4-.1.7 0 1zM194.2 159c0 .1 0 .2.1.3 0 0 .2 0 .3-.1 0-.1.1-.3.1-.3-.2-.3-.4-.3-.5.1zM156.7 15c.1 0 .2-.1.3-.1 0-.1 0-.2-.1-.3-.1-.1-.2-.1-.3-.1-.3.2-.2.4.1.5zM169 15.8c.2 0 .4-.2.6-.2-.1-.1-.2-.2-.2-.3l-.6.3c0 .1.1.2.2.2zM190.3 50c-.1.3.1.5.3.4.1 0 .1-.2.1-.3-.1-.1-.1-.2-.2-.3 0 .1-.2.2-.2.2zM8.3 78.2c-.1 0-.1 0 0 0-.1 0-.1 0 0 0zM7.9 78.5l.3-.3c-.1 0-.2 0-.2.1-.1 0-.1.1-.1.2z"/><path class="st0" d="M191.6 137.2c.3-1.8.4-3.6 0-5.4.4-1.6.3-3.3-.1-4.9-.3-1.2-.4-2.5-.5-3.7v-1.6c0-.7.1-1.3-.8-1.5-1.3-1.3-.8-2.4.4-3.5.4-.4 0-.9-.7-.9-.4 0-.7.2-1.1.3.1-.6-.4-1.3.6-1.9 1.2-.6 1.3-1.7.3-2.2-1.1-.5-.9-.9-.3-1.5.7-.7.4-1.3 0-2 0-.6 0-1.1.1-1.7v-3c-.8-2.1-.8-2.1-.7-4.6 0-1.8.1-3.6 0-5.4 0-.9 0-1.8-.7-2.5-.2-3.8-.8-7.6-.7-11.4 0-1.7-.2-3.3-.8-4.9.9-.9 1.4-1.9.7-3.2.2-.2.2-.4.1-.6.7-1.1.8-2.2-.1-3.3.2-1.1.5-2.1.7-3.2v-4.7c0-1.8 0-3.5.1-5.3.2-1.2-.2-2.2-.8-3.2v-3.1c.2-1.6.2-3.2-.3-4.8-.4-1.3-.2-2.4.2-3.6.2-1.5 0-3 .8-4.5.4-.8.3-1.8 0-2.6-.1-.2-.4-.3-.6-.3-.2 0-.6.2-.6.3-.2 1-.3 2.1-.4 3.2-.8-.7-.3-1.9-1.2-2.4 0-.5.1-1 .1-1.5-.1.1-.3.1-.4.1v-.3c.1.1.3.1.4.2.9-2 .6-4.1.6-6.2 1.3-2 .7-4.1.8-6.2-.3-1.3-1.9-.4-2.4-1.5-.6-1.4-1.9-1.2-2.9-.7-1.8.9-3.6 1.3-5.5.7-.4-.6-.9-.9-1.6-.6-1.2.6-2.3 1.2-3.4 1.8-.8.4-1.5.2-2.1-.4.1-.4.2-.7.2-1.1 0-.4-.1-.8-.3-1-.2-.1-.8 0-1 .2-.7.9-1.7 1-2.7 1.1-.2 0-.5-.1-.7-.2-.8-.9-1.9-.8-2.9-.6-3.2.6-6.4.5-9.6.7-2.8 0-5.6 0-8.2-1.2-1-.4-2.2-.3-3.4-.4-.5-.8-1.3-.7-2.1-.7h-11.6c-5 0-10-.1-15.1-.1-1.5 0-3-.8-4.6-.3-1.9.6-3.8.2-5.7-.4-.4 0-.9-.1-1.3-.1-.1 0-.2-.1-.3-.1-2.9-.8-5.8-.4-8.8-.4-3.3 0-6.5 1-9.8.6-3.3-1.2-6.6-.8-10-.6-4 .3-8 .5-12 .5-2 0-4.1-.1-6.1.9-1.9 0-3.8-.3-5.7.3-3.7 1.1-7.2 2.9-11.1 3.1-.6 0-1.2.4-1.8.6-.2-.1-.5-.2-.7-.1-.9-1-.4-2.5-1.2-3.5-2 .7-2 .7-3.1 2-.5.6-1 .7-1.6.1-.9-.9-2.2-.6-3.2-.9-.5-.1-1.1 0-1.4.5-1.2 1.9-3.2 2.7-5.2 3.4-.6.1-1.1.2-1.5.8l.2.2-.2-.2c-1.7.4-2.8 1.4-3.1 3.2-1.4 1-2.7 2.1-3 4v.6C9.8 31.3 8.6 32.5 9 34c.3 1.2 0 2.1-.7 3.1-.9 1.4-1.5 3 0 4.5v.8l-.8.8c-.2 1-.6 1.9-.6 2.9 0 .6.2 1.6 1.3 1 .5-.2.9-.5 1.4-.7.1 1.3.2 2.6.3 3.8-.1.2-.2.5-.1.7 0 .8-.1 1.5-.1 2.3-.9.6-1.5 1.2-1.1 2.5.1.4-.2.9-.3 1.4v.7c-.4.2-.6.6-.6 1.1 0 .2 0 .4-.1.5-1.3 1.3-1 2.9-.5 4.3.6 1.6.4 3-.2 4.4.2.7.5 1.5.7 2.2.3.5.5 1 .8 1.6-.4.1-.7.4-.7.8-.2.6-.4 1.1-.6 1.7-.2.6-.2 1.2.4 1.6.3.2.7.2 1.1.4.2.1.4.1.6.2-.2.5-.5 1-.7 1.5 1 0 2-.8 3 0 .1.3.1.5-.1.7-3.4.8-3.9 1.8-2.2 4.7.4 1.9.7 3.8.3 5.6-.5 2.5-.5 5-.3 7.6-.2.6-.4 1.2-.5 1.9-.2 7.9-.8 15.7-.5 23.6.3 9.7 1.1 19.3 2.6 28.9.2 4.7.7 9.4 1.5 14-.3 1.9.6 3.6.9 5.4-.3 1.6.8 3 .7 4.6.1 1.6.8 2.9 2 4 .2.1.5.2.7.2.2-.1.3-.4.3-.6.2-.9-.4-1.7-.6-2.6-.2-.9-.3-1.8.6-2.4.7 1 .5 2.4 1.5 3.3 0 2.1 1.4 3.4 2.7 4.8.3.3.7.4 1 .2.6-.4 1.5-.5 1.8-1.3.8-.2 1.8.5 2.4-.5.2-.1.5-.2.7-.3.5 0 1 0 1.5.1.6.4 1.3.8 1.8 1.4.4.4.7.7 1.3.5 1.7-1 3.5.2 5.2-.1.3.2.7.4 1 .4 4.9.4 9.7.8 14.6 1.1 2 .1 4.1 0 6.2.1 4 .1 7.9.2 11.9-.3 2.6 0 5.2.3 7.7 0 2.2-.3 4.3.1 6.5-.4 2.3-.6 4.6.2 6.9.3 6.5.2 12.9.3 19.4.2 3.1-.1 6.1-.3 9.2.1 5.9.7 11.8.5 17.7 1.3 1.7.2 3.4.1 4.9 1.1.5.3 1 0 1.5-.2 2.8.1 5.7-.2 8.5.3 1.1.2 2.3-.2 3.4-.6 1.1-.4 2.2-.9 3.3-.8.9.1 1.4-.2 1.9-.7.6-.6 1.7-.7 1.6-1.9.5-.5.9-1.1 1.4-1.6.6.1 1.1.3 1.7.4 1 .2 1 .1 1.3-1.4.3-.5.6-1.1 1-1.5.9-.9 1.7-.9 3.1.1 0 .4-.1.8-.1 1.1.1 1.7.3 1.8 1.8 1.3 1.3-.4 1.5-1.2 1.4-2.3.9-2.1 2.5-3.7 3.9-5.5.8-.2.9-.8.8-1.5.3.2.7.3 1 .6 3.1 3.1 3.7 2.5 6.3.2.2-.2.5-.2.7-.4.8-.8 1.6-1.8 1-3-.6-1.1.2-2 .2-3 .1-.2.2-.4.2-.7 1-2 .9-2.2-1.6-3.3-.1-1-.1-1.9.3-2.9.7.1 1.4.3 2.2.4.4-1.5-1.1-1.9-1.5-2.9-.4-1.2-.2-2.5-.1-3.8.3-.6 1-.6 1.6-.8 1.4-.4 1.5-.6.7-2.3-.1-.9-.1-1.8.6-2.5 1.1-1.1.2-2.8 1.2-3.9.1-.1-.2-.4-.3-.6-.1-1.7-.1-3.2-.2-4.8zm-1.5 11.7z"/><path class="st1" d="M86.5 22.3h-8.8l-5.9 22.8-6.2-22.8h-9.2c1.8 5.4 3.7 10.8 5.6 16.2 2.8 8.1 4.5 14.2 5.3 18.4v23.5H76V56.9l10.5-34.6zm23.3 44.1V51.2c0-4.6-.8-8-2.4-10.2-2.2-3-5.2-4.4-9.2-4.4-3.9 0-7 1.5-9.1 4.4-1.7 2.2-2.5 5.6-2.5 10.2v15.2c0 4.6.8 8 2.5 10.2 2.2 3 5.2 4.4 9.1 4.4 3.9 0 7-1.5 9.2-4.4 1.6-2.2 2.4-5.6 2.4-10.2zm-7.8 1.4c0 4-1.2 6-3.7 6s-3.8-2-3.8-6V49.6c0-4 1.2-6 3.8-6 2.5 0 3.7 2 3.7 6v18.2zm36.8 12.6V37.1H131v33.1c-1.7 2.5-3.4 3.7-5 3.7-1.1 0-1.7-.6-1.8-1.8-.1-.3-.1-1.2-.1-3.1V37.1h-7.8v34.2c0 3.1.3 5.1.7 6.4.8 2.2 2.5 3.2 5.1 3.2 2.9 0 5.8-1.7 9-5.3v4.7l7.7.1zM164.2 132.9c0 10 0 20.6-2.2 30.4-1.6 6.8-7.2 11.9-13.9 12.6-15.9 1.8-32.1 1.8-48.1 1.8-16.1 0-32.2 0-48.1-1.8-6.7-.8-12.3-5.8-13.9-12.6-2.2-9.7-2.2-20.4-2.2-30.4s0-20.6 2.3-30.4c1.6-6.8 7.2-11.9 13.9-12.6 15.9-1.8 32-1.8 48.1-1.8s32.2 0 48.1 1.8c6.7.8 12.3 5.8 13.9 12.6 2.1 9.8 2.1 20.4 2.1 30.4z"/><path class="st0" d="M72.4 111.3v-8.1H45.3v8.1h9.1v49.4H63v-49.4h9.4zm15.7 49.4V156c-3.1 3.5-6 5.3-8.9 5.3-2.5 0-4.2-1-5-3.2-.4-1.3-.7-3.3-.7-6.4v-33.9h7.8v31.5c0 1.8 0 2.8.1 3 .2 1.2.8 1.8 1.8 1.8 1.6 0 3.2-1.2 4.9-3.6v-32.7h7.8v42.8l-7.8.1zm29.5-12.2c0 3.9-1.1 5.8-3.4 5.8-1.3 0-2.6-.6-3.9-1.9v-26.1c1.3-1.3 2.6-1.9 3.9-1.9 2.2 0 3.4 2 3.4 5.8v18.3zm7.8-.6v-17.1c0-4.1-.3-6.9-.8-8.6-1-3.2-3.1-4.8-6.2-4.8-2.8 0-5.5 1.6-8 4.6v-18.8h-7.8v57.5h7.8v-4.2c2.6 3.2 5.3 4.8 8 4.8 3.1 0 5.2-1.6 6.2-4.8.5-1.8.8-4.7.8-8.6zm21.5-13.6h-7.8v-4c0-4 1.3-5.9 3.9-5.9 2.6 0 3.9 2 3.9 5.9v4zm7.8 12.7v-1.1h-7.9c0 3.1-.1 4.8-.2 5.3-.4 2.1-1.6 3.1-3.5 3.1-2.7 0-4-2-4-5.9v-7.6h15.5v-8.9c0-4.6-.8-7.9-2.4-10.1-2.2-2.9-5.3-4.4-9.2-4.4-4 0-7.1 1.5-9.3 4.4-1.6 2.2-2.4 5.5-2.4 10.1v15c0 4.5.9 7.9 2.5 10.1 2.2 2.9 5.3 4.4 9.4 4.4 4 0 7.2-1.5 9.4-4.7.9-1.4 1.6-2.9 1.8-4.7.2-.8.3-2.5.3-5z"/></svg>