<svg id="Слой_1" xmlns="http://www.w3.org/2000/svg" width="200" height="200"><style>.st0{fill:#0ab6a1}</style><path class="st0" d="M194.8 134.2c.1 2.5-.4 5.1.4 8.2.3-.9.4-1.3.4-1.6v-6.5c-.2 0-.5-.1-.8-.1zM191.5 42.4c.4-1.2.3-2.5-.3-3.9-.2 1.2-.5 2.4-.7 3.7 0 .2.2.5.4.5.1.1.5-.1.6-.3zM5 59.1c-.6.2-.6.7-.6 1.2v1.4c.2 0 .3.1.5.1.2-.4.4-.9.5-1.3.3-.9.1-1.5-.4-1.4zM8.3 78.2s0-.1 0 0c0-.1-.1-.1 0 0zM35.7 17.8c.4 0 .5-.4.5-.7-.1-.4-.2-.7-.7-.5-.2.1-.4.4-.4.5 0 .3.2.6.6.7zM147.5 15c.5.2 1 .2 1.4-.1v-.3c-.4-.4-.9-.3-1.4-.2-.3.2-.4.5 0 .6zM188.5 22.3c0 .3 0 .7.1 1 .1.2.2.4.4.5.1-.2.3-.4.3-.6.1-.3.1-.7.1-1 .5-.9.9-1.9.9-3 .2-.1.5-.1.7-.2.5-.2.7-.7.5-1.1-.1-.2-.6-.3-.9-.3-.5 0-.9.3-1 .8l-.1.1c-.3.1-.6.4-.8.6-1.4 1.5-1.4 1.5-.2 3.2zM194.2 159c0 .1 0 .2.1.3 0 0 .2 0 .3-.1 0-.1.1-.3.1-.3-.2-.3-.4-.3-.5.1zM156.7 15c.1 0 .2-.1.3-.1 0-.1 0-.2-.1-.3s-.2-.1-.3-.1c-.3.2-.2.4.1.5zM169 15.8c.2 0 .4-.2.6-.2-.1-.1-.2-.2-.2-.3l-.6.3c0 .1.1.2.2.2zM190.3 50c-.1.3.1.5.3.4.1 0 .1-.2.1-.3-.1-.1-.1-.2-.2-.3 0 .1-.2.2-.2.2zM8.3 78.2c-.1 0-.1 0 0 0-.1 0-.1 0 0 0zM7.9 78.5l.3-.3c-.1 0-.2 0-.2.1-.1 0-.1.1-.1.2z"/><path class="st0" d="M187.3 158.3c.7.1 1.4.3 2.2.4.4-1.5-1.1-1.9-1.5-2.9-.4-1.2-.2-2.5-.1-3.8.3-.6 1-.6 1.6-.8 1.4-.4 1.5-.6.7-2.3-.1-.9-.1-1.8.6-2.5 1.1-1.1.2-2.8 1.2-3.9.1-.1-.2-.4-.3-.6 0-1.6-.1-3.1-.1-4.7.3-1.8.4-3.6 0-5.4.4-1.6.3-3.3-.1-4.9-.3-1.2-.4-2.5-.5-3.7v-1.6c0-.7.1-1.3-.8-1.5-1.3-1.3-.8-2.4.4-3.5.4-.4 0-.9-.7-.9-.4 0-.7.2-1.1.3.1-.6-.4-1.3.6-1.9 1.2-.6 1.3-1.7.3-2.2-1.1-.5-.9-.9-.3-1.5.7-.7.4-1.3 0-2 0-.6 0-1.1.1-1.7v-3c-.8-2.1-.8-2.1-.7-4.6 0-1.8.1-3.6 0-5.4 0-.9 0-1.8-.7-2.5-.2-3.8-.8-7.6-.7-11.4 0-1.7-.2-3.3-.8-4.9.9-.9 1.4-1.9.7-3.2.2-.2.2-.4.1-.6.7-1.1.8-2.2-.1-3.3.2-1.1.5-2.1.7-3.2v-4.7c0-1.8 0-3.5.1-5.3.2-1.2-.2-2.2-.8-3.2v-3.1c.2-1.6.2-3.2-.3-4.8-.4-1.3-.2-2.4.2-3.6.2-1.5 0-3 .8-4.5.4-.8.3-1.8 0-2.6-.1-.2-.4-.3-.6-.3-.2 0-.6.2-.6.3-.2 1-.3 2.1-.4 3.2-.8-.7-.3-1.9-1.2-2.4 0-.5.1-1 .1-1.5-.1.1-.3.1-.4.1v-.3c.1.1.3.1.4.2.9-2 .6-4.1.6-6.2 1.3-2 .7-4.1.8-6.2-.3-1.3-1.9-.4-2.4-1.5-.6-1.4-1.9-1.2-2.9-.7-1.8.9-3.6 1.3-5.5.7-.4-.6-.9-.9-1.6-.6-1.2.6-2.3 1.2-3.4 1.8-.8.4-1.5.2-2.1-.4.1-.4.2-.7.2-1.1s-.1-.8-.3-1c-.2-.1-.8 0-1 .2-.7.9-1.7 1-2.7 1.1-.2 0-.5-.1-.7-.2-.8-.9-1.9-.8-2.9-.6-3.2.6-6.4.5-9.6.7-2.8 0-5.6 0-8.2-1.2-1-.4-2.2-.3-3.4-.4-.5-.8-1.3-.7-2.1-.7h-11.6c-5 0-10-.1-15.1-.1-1.5 0-3-.8-4.6-.3-1.9.6-3.8.2-5.7-.4-.4 0-.9-.1-1.3-.1-.1 0-.2-.1-.3-.1-2.9-.8-5.8-.4-8.8-.4-3.3 0-6.5 1-9.8.6-3.3-1.2-6.6-.8-10-.6-4 .3-8 .5-12 .5-2 0-4.1-.1-6.1.9-1.9 0-3.8-.3-5.7.3-3.7 1.1-7.2 2.9-11.1 3.1-.6 0-1.2.4-1.8.6-.2-.1-.5-.2-.7-.1-.9-1-.4-2.5-1.2-3.5-2 .7-2 .7-3.1 2-.5.6-1 .7-1.6.1-.9-.9-2.2-.6-3.2-.9-.5-.1-1.1 0-1.4.5-1.2 1.9-3.2 2.7-5.2 3.4-.6.1-1.1.2-1.5.8l.2.2-.2-.2c-1.7.4-2.8 1.4-3.1 3.2-1.4 1-2.7 2.1-3 4v.6C9.8 31.3 8.6 32.5 9 34c.3 1.2 0 2.1-.7 3.1-.9 1.4-1.5 3 0 4.5v.8l-.8.8c-.2 1-.6 1.9-.6 2.9 0 .6.2 1.6 1.3 1 .5-.2.9-.5 1.4-.7.1 1.3.2 2.6.3 3.8-.1.2-.2.5-.1.7 0 .8-.1 1.5-.1 2.3-.9.6-1.5 1.2-1.1 2.5.1.4-.2.9-.3 1.4v.7c-.4.2-.6.6-.6 1.1 0 .2 0 .4-.1.5-1.3 1.3-1 2.9-.5 4.3.6 1.6.4 3-.2 4.4.2.7.5 1.5.7 2.2.3.5.5 1 .8 1.6-.4.1-.7.4-.7.8-.2.6-.4 1.1-.6 1.7s-.2 1.2.4 1.6c.3.2.7.2 1.1.4.2.1.4.1.6.2-.2.5-.5 1-.7 1.5 1 0 2-.8 3 0 .1.3.1.5-.1.7-3.4.8-3.9 1.8-2.2 4.7.4 1.9.7 3.8.3 5.6-.5 2.5-.5 5-.3 7.6-.2.6-.4 1.2-.5 1.9-.2 7.9-.8 15.7-.5 23.6.3 9.7 1.1 19.3 2.6 28.9.2 4.7.7 9.4 1.5 14-.3 1.9.6 3.6.9 5.4-.3 1.6.8 3 .7 4.6.1 1.6.8 2.9 2 4 .2.1.5.2.7.2.2-.1.3-.4.3-.6.2-.9-.4-1.7-.6-2.6-.2-.9-.3-1.8.6-2.4.7 1 .5 2.4 1.5 3.3 0 2.1 1.4 3.4 2.7 4.8.3.3.7.4 1 .2.6-.4 1.5-.5 1.8-1.3.8-.2 1.8.5 2.4-.5.2-.1.5-.2.7-.3.5 0 1 0 1.5.1.6.4 1.3.8 1.8 1.4.4.4.7.7 1.3.5 1.7-1 3.5.2 5.2-.1.3.2.7.4 1 .4 4.9.4 9.7.8 14.6 1.1 2 .1 4.1 0 6.2.1 4 .1 7.9.2 11.9-.3 2.6 0 5.2.3 7.7 0 2.2-.3 4.3.1 6.5-.4 2.3-.6 4.6.2 6.9.3 6.5.2 12.9.3 19.4.2 3.1-.1 6.1-.3 9.2.1 5.9.7 11.8.5 17.7 1.3 1.7.2 3.4.1 4.9 1.1.5.3 1 0 1.5-.2 2.8.1 5.7-.2 8.5.3 1.1.2 2.3-.2 3.4-.6 1.1-.4 2.2-.9 3.3-.8.9.1 1.4-.2 1.9-.7.6-.6 1.7-.7 1.6-1.9.5-.5.9-1.1 1.4-1.6.6.1 1.1.3 1.7.4 1 .2 1 .1 1.3-1.4.3-.5.6-1.1 1-1.5.9-.9 1.7-.9 3.1.1 0 .4-.1.8-.1 1.2.1 1.7.3 1.8 1.8 1.3 1.3-.4 1.5-1.2 1.4-2.3.9-2.1 2.5-3.7 3.9-5.5.8-.2.9-.8.8-1.5.3.2.7.3 1 .6 3.1 3.1 3.7 2.5 6.3.2.2-.2.5-.2.7-.4.8-.8 1.6-1.8 1-3-.6-1.1.2-2 .2-3 .1-.2.2-.4.2-.7 1-2 .9-2.2-1.6-3.3-.1-1.2-.2-2.1.2-3.1M8.2 71.9zm181.9 77z"/><path d="M133.3 106.3l3.3-25.7h-25.4V64.3c0-7.4 2.1-12.5 12.7-12.5h13.6V28.9c-2.3-.3-10.4-1-19.8-1-19.6 0-33 12-33 33.9v18.9H62.5v25.7h22.2v65.8h26.5v-65.8h22.1v-.1z" fill="#fff"/></svg>