<svg id="network-instagram" xmlns="http://www.w3.org/2000/svg" width="100%" height="100%" viewBox="0 0 45 45"><rect width="45" height="45" rx="5" ry="5" style="fill:#0ab6a1"/><path d="M22.5,12.35c2.95,0,3.3,0,4.44.07a5.29,5.29,0,0,1,2.06.39,3.74,3.74,0,0,1,1.28.82,3,3,0,0,1,.82,1.28A6.85,6.85,0,0,1,31.48,17c0,1.17.07,1.49.07,4.44s0,3.3-.07,4.44a5.29,5.29,0,0,1-.39,2.06,3.74,3.74,0,0,1-.82,1.28A3,3,0,0,1,29,30a6.85,6.85,0,0,1-2.06.39c-1.17,0-1.49.07-4.44.07s-3.3,0-4.44-.07A5.29,5.29,0,0,1,16,30a3.74,3.74,0,0,1-1.28-.82,3,3,0,0,1-.82-1.28,6.85,6.85,0,0,1-.39-2.06c0-1.17,0-1.53,0-4.47s0-3.3.07-4.44a5.29,5.29,0,0,1,.39-2.06,3.74,3.74,0,0,1,.82-1.28A3,3,0,0,1,16,12.77a6.85,6.85,0,0,1,2.06-.39c1.1,0,1.45,0,4.4,0m0-2c-3,0-3.37,0-4.54.07a9.1,9.1,0,0,0-2.66.5,5.71,5.71,0,0,0-3.23,3.23,7.4,7.4,0,0,0-.5,2.66c-.07,1.17-.07,1.56-.07,4.54s0,3.37.07,4.54a9.1,9.1,0,0,0,.5,2.66,5.71,5.71,0,0,0,3.23,3.23,7.4,7.4,0,0,0,2.66.5c1.17.07,1.56.07,4.54.07s3.37,0,4.54-.07a9.1,9.1,0,0,0,2.66-.5,5.71,5.71,0,0,0,3.23-3.23,7.4,7.4,0,0,0,.5-2.66c.07-1.17.07-1.56.07-4.54s0-3.37-.07-4.54a9.1,9.1,0,0,0-.5-2.66,5.71,5.71,0,0,0-3.23-3.23,7.4,7.4,0,0,0-2.66-.5c-1.17-.07-1.56-.07-4.54-.07Z" style="fill:#fff"/><path d="M22.5,15.72a5.64,5.64,0,1,0,5.64,5.64A5.63,5.63,0,0,0,22.5,15.72Zm0,9.3a3.65,3.65,0,1,1,3.65-3.65A3.65,3.65,0,0,1,22.5,25Z" style="fill:#fff"/><circle cx="28.35" cy="15.5" r="1.31" style="fill:#fff"/></svg>
