<svg xmlns="http://www.w3.org/2000/svg" width="250" height="332" fill="#aa37b8">
  <path d="M.224 319.013L0 318.776c15.614-14.76 15.428-24.776 15.317-30.768-.047-2.528-.081-4.354 1.138-5.482 1.5-1.39 4.762-1.648 12.028-.95 6.723.646 11.466 1.541 14.6 2.132 3.231.61 5.011.945 5.545.358.518-.57.053-2.182-.792-5.109-.764-2.648-1.92-6.649-2.982-12.18-.3-1.585-.582-2.987-.828-4.231-1.962-9.917-1.886-9.966 2.071-12.527 3.093-2 8.849-5.727 18.116-17.446 3.605-4.559 7.259-6.892 11.17-7.132 6.9-.417 13.374 5.978 19.094 11.626 5.265 5.2 10.239 10.111 14.7 9.1 3.16-.714 5.885-4.346 8.332-11.1 5.589-15.439 19.493-23.426 32.938-31.15 9.219-5.3 17.926-10.3 22.856-17.311 5.508-7.836 5.568-17.163.187-29.352-4.629-10.485-5.651-20.726-3.124-31.308 2.152-9.012 6.525-16.66 10.039-22.805 3.727-6.518 6.672-11.667 4.928-15.05-1.362-2.643-5.567-4.231-13.233-5-14.356-1.437-28.273 2.562-40.551 6.091-10.525 3.025-20.467 5.88-28.875 4.769-9.332-1.234-15.922-7.2-20.742-18.782-9.014-21.658-22.37-20.591-33.1-19.735-5.286.422-9.852.787-12.728-1.807-2.02-1.821-3.057-5.029-3.17-9.806-.334-14.534 6.029-25.674 11.43-32.46A57.631 57.631 0 0 1 56.288 0l.178.273a57.311 57.311 0 0 0-11.854 11.3c-5.364 6.743-11.688 17.808-11.347 32.234.11 4.682 1.112 7.813 3.062 9.571 2.773 2.5 7.273 2.141 12.484 1.725 5.334-.426 11.381-.909 17.277 1.449 6.827 2.73 12.11 8.776 16.151 18.486C87.01 86.5 93.519 92.4 102.724 93.621c8.342 1.1 18.251-1.744 28.742-4.759 12.307-3.537 26.255-7.545 40.674-6.1 7.787.78 12.074 2.424 13.491 5.174 1.824 3.541-1.159 8.757-4.935 15.361-3.5 6.127-7.864 13.753-10 22.719-2.509 10.51-1.494 20.683 3.1 31.1 5.432 12.3 5.362 21.732-.218 29.671-4.972 7.073-13.709 12.092-22.96 17.406-13.395 7.695-27.246 15.651-32.795 30.978-2.487 6.871-5.289 10.571-8.566 11.311-4.638 1.05-9.673-3.922-15-9.184-5.949-5.873-12.1-11.95-18.846-11.533-3.813.234-7.39 2.527-10.934 7.009-9.3 11.762-15.087 15.506-18.2 17.518-3.847 2.49-3.847 2.49-1.928 12.191.246 1.245.524 2.647.828 4.233 1.06 5.517 2.167 9.352 2.975 12.152.906 3.139 1.361 4.715.721 5.419-.657.722-2.283.416-5.847-.257-3.133-.591-7.866-1.484-14.575-2.128-7.069-.679-10.37-.437-11.776.864-1.112 1.029-1.079 2.794-1.034 5.237.114 6.04.302 16.152-15.417 31.01z"/>
  <path d="M6.457 319.832l-.227-.232c15.443-14.908 15.15-24.918 14.975-30.9-.074-2.525-.127-4.349 1.079-5.489 1.486-1.4 4.741-1.7 12.008-1.073 6.724.576 11.471 1.421 14.613 1.979 3.234.576 5.016.892 5.544.3.512-.575.029-2.181-.846-5.1-.792-2.638-1.989-6.623-3.11-12.139a742.35 742.35 0 0 0-.872-4.219c-2.066-9.888-1.991-9.938 1.935-12.537 3.069-2.032 8.78-5.813 17.914-17.618 3.553-4.591 7.178-6.96 11.082-7.241 6.881-.5 13.427 5.834 19.2 11.418 5.316 5.139 10.334 9.993 14.788 8.937 3.148-.746 5.832-4.4 8.2-11.18 5.419-15.483 19.225-23.607 32.577-31.463 9.154-5.386 17.8-10.474 22.651-17.532 5.419-7.886 5.379-17.2-.127-29.328-4.736-10.428-5.866-20.649-3.455-31.247 2.054-9.026 6.342-16.713 9.787-22.889 3.654-6.551 6.541-11.725 4.763-15.087-1.388-2.626-5.607-4.17-13.275-4.858-14.358-1.288-28.22 2.852-40.45 6.505-10.483 3.131-20.385 6.088-28.8 5.063-9.337-1.137-15.985-7.031-20.924-18.55-9.229-21.544-22.561-20.341-33.274-19.374-5.277.476-9.834.888-12.736-1.674-2.038-1.8-3.108-4.993-3.272-9.764-.498-14.512 5.744-25.707 11.067-32.54A57.556 57.556 0 0 1 59.064.523l.181.271a57.229 57.229 0 0 0-11.722 11.412C42.235 19 36.036 30.12 36.53 44.529c.16 4.677 1.194 7.795 3.161 9.531 2.8 2.469 7.289 2.063 12.492 1.594 5.326-.48 11.362-1.025 17.277 1.269 6.85 2.657 12.193 8.643 16.334 18.3 4.888 11.4 11.454 17.234 20.664 18.355 8.347 1.017 18.216-1.931 28.666-5.052 12.258-3.661 26.152-7.81 40.572-6.517 7.789.7 12.089 2.3 13.534 5.03 1.86 3.519-1.064 8.761-4.767 15.4-3.435 6.158-7.711 13.822-9.754 22.8-2.395 10.526-1.272 20.68 3.434 31.04 5.558 12.237 5.59 21.657.1 29.647-4.892 7.118-13.568 12.224-22.754 17.629-13.3 7.826-27.055 15.919-32.435 31.29-2.412 6.89-5.171 10.615-8.437 11.39-4.627 1.1-9.707-3.818-15.089-9.02-6.007-5.807-12.219-11.807-18.954-11.327-3.807.274-7.355 2.6-10.848 7.116-9.166 11.849-14.906 15.649-17.99 17.696-3.818 2.528-3.818 2.528-1.8 12.2.259 1.241.552 2.639.873 4.22 1.118 5.5 2.265 9.321 3.1 12.11.939 3.127 1.41 4.7.778 5.407-.649.729-2.277.439-5.844-.2-3.136-.558-7.875-1.4-14.584-1.976-7.07-.6-10.365-.329-11.756.986-1.1 1.039-1.048 2.8-.977 5.243.181 6.034.474 16.134-15.069 31.142z"/>
  <path d="M12.688 320.651l-.229-.232c15.271-15.056 14.872-25.055 14.633-31.03-.1-2.522-.174-4.345 1.019-5.5 1.47-1.419 4.718-1.743 11.987-1.2 6.725.506 11.478 1.3 14.624 1.827 3.238.541 5.021.839 5.542.242.505-.579.006-2.179-.9-5.084-.82-2.627-2.058-6.6-3.237-12.1-.338-1.576-.645-2.97-.917-4.207-2.17-9.859-2.1-9.91 1.8-12.548 3.045-2.062 8.711-5.9 17.712-17.79 3.5-4.624 7.1-7.029 10.994-7.351 6.878-.564 13.48 5.689 19.313 11.21 5.368 5.08 10.436 9.878 14.873 8.777 3.137-.779 5.779-4.461 8.077-11.256 5.25-15.527 18.958-23.788 32.215-31.776 9.089-5.477 17.674-10.65 22.446-17.754 5.331-7.936 5.191-17.247-.44-29.3-4.844-10.37-6.083-20.572-3.787-31.187 1.955-9.04 6.158-16.766 9.534-22.973 3.581-6.583 6.41-11.783 4.6-15.124-1.415-2.61-5.647-4.109-13.317-4.717-14.36-1.137-28.168 3.143-40.349 6.919-10.441 3.237-20.3 6.3-28.722 5.358-9.343-1.032-16.05-6.855-21.107-18.312-9.46-21.432-22.769-20.091-33.464-19.014-5.268.531-9.817.989-12.744-1.541-2.055-1.776-3.159-4.957-3.373-9.723-.653-14.5 5.464-25.747 10.711-32.633A57.485 57.485 0 0 1 61.841 1.045l.184.269a57.158 57.158 0 0 0-11.592 11.525c-5.21 6.842-11.286 18.019-10.633 32.412.21 4.672 1.277 7.776 3.261 9.491 2.821 2.438 7.306 1.986 12.5 1.463 5.316-.536 11.341-1.143 17.278 1.089 6.873 2.583 12.276 8.51 16.517 18.118 5.006 11.342 11.63 17.1 20.844 18.127 8.348.929 18.181-2.119 28.589-5.346 12.209-3.785 26.046-8.075 40.471-6.933 7.791.617 12.105 2.17 13.578 4.886 1.9 3.5-.971 8.765-4.6 15.435-3.367 6.189-7.557 13.891-9.5 22.886-2.281 10.543-1.049 20.677 3.763 30.981 5.684 12.17 5.816 21.583.416 29.623-4.812 7.163-13.427 12.355-22.548 17.851-13.207 7.958-26.863 16.187-32.075 31.6-2.336 6.909-5.053 10.66-8.307 11.468-4.609 1.145-9.741-3.714-15.175-8.856-6.066-5.741-12.333-11.678-19.062-11.122-3.8.314-7.32 2.677-10.761 7.222-9.033 11.934-14.729 15.791-17.789 17.863-3.787 2.565-3.787 2.565-1.664 12.208.272 1.238.579 2.632.917 4.208 1.176 5.485 2.363 9.29 3.229 12.068.972 3.115 1.46 4.679.835 5.395-.641.735-2.271.462-5.842-.135-3.139-.525-7.884-1.319-14.594-1.823-7.07-.531-10.361-.221-11.736 1.106-1.088 1.05-1.017 2.811-.92 5.249.234 6.027.637 16.121-14.737 31.278z"/>
  <path d="M18.921 321.47l-.231-.23c15.1-15.2 14.593-25.193 14.291-31.161-.128-2.52-.22-4.34.96-5.5 1.453-1.434 4.7-1.792 11.967-1.321 6.726.435 11.484 1.18 14.633 1.673 3.241.508 5.027.788 5.541.185.5-.584-.017-2.178-.954-5.071-.847-2.617-2.127-6.571-3.365-12.055-.354-1.571-.676-2.961-.961-4.194-2.275-9.83-2.2-9.882 1.665-12.559 3.02-2.092 8.642-5.986 17.509-17.962 3.448-4.657 7.016-7.1 10.906-7.46 6.858-.637 13.533 5.545 19.422 11 5.418 5.021 10.534 9.762 14.957 8.616 3.127-.812 5.727-4.518 7.95-11.332 5.08-15.571 18.691-23.969 31.853-32.089 9.024-5.568 17.548-10.827 22.24-17.975 5.242-7.986 5-17.29-.754-29.279-4.952-10.313-6.3-20.5-4.118-31.127 1.857-9.055 5.974-16.818 9.282-23.056 3.508-6.616 6.279-11.841 4.434-15.162-1.441-2.594-5.687-4.048-13.359-4.576-14.367-.99-28.115 3.433-40.248 7.334-10.4 3.343-20.224 6.5-28.645 5.653-9.347-.942-16.111-6.689-21.288-18.087-9.684-21.32-22.97-19.842-33.645-18.654-5.258.585-9.8 1.091-12.752-1.407-2.073-1.754-3.21-4.921-3.475-9.681C41.927 31.512 47.92 20.2 53.09 13.269a57.422 57.422 0 0 1 11.529-11.7l.186.267a57.1 57.1 0 0 0-11.46 11.638C48.21 20.364 42.258 31.6 43.06 45.973c.26 4.667 1.36 7.758 3.361 9.451 2.845 2.407 7.322 1.909 12.506 1.332 5.307-.59 11.322-1.26 17.278.909 6.9 2.51 12.359 8.377 16.7 17.935 5.124 11.282 11.8 16.969 21.024 17.9 8.354.842 18.146-2.306 28.512-5.639 12.161-3.91 25.947-8.339 40.37-7.349 7.793.536 12.121 2.043 13.621 4.743 1.931 3.475-.876 8.77-4.431 15.473-3.3 6.22-7.4 13.96-9.25 22.969-2.166 10.559-.828 20.674 4.093 30.921 5.811 12.1 6.044 21.508.733 29.6-4.732 7.209-13.286 12.486-22.342 18.073-13.113 8.09-26.671 16.456-31.714 31.913-2.26 6.928-4.935 10.7-8.178 11.546-4.6 1.193-9.775-3.609-15.261-8.692-6.123-5.675-12.454-11.544-19.17-10.916-3.793.354-7.285 2.751-10.675 7.329-8.9 12.019-14.55 15.933-17.586 18.036-3.757 2.6-3.757 2.6-1.532 12.218.285 1.234.607 2.624.962 4.2 1.234 5.47 2.461 9.259 3.357 12.027 1 3.1 1.509 4.66.892 5.383-.632.741-2.264.485-5.84-.074-3.143-.492-7.893-1.236-14.6-1.67-7.073-.457-10.357-.114-11.717 1.227-1.075 1.061-.986 2.82-.863 5.255.301 6.012.812 16.09-14.389 31.397z"/>
  <path d="M25.153 322.289l-.234-.227c14.928-15.353 14.315-25.331 13.948-31.292-.155-2.517-.266-4.335.9-5.51 1.437-1.448 4.676-1.839 11.945-1.444 6.727.365 11.491 1.06 14.643 1.52 3.246.473 5.032.734 5.54.127.492-.589-.041-2.176-1.008-5.058-.875-2.607-2.2-6.546-3.492-12.014-.371-1.567-.708-2.952-1.006-4.182-2.379-9.8-2.306-9.853 1.529-12.569 3-2.122 8.573-6.072 17.307-18.134 3.4-4.689 6.934-7.165 10.818-7.569 6.852-.71 13.587 5.4 19.531 10.794 5.47 4.962 10.634 9.648 15.042 8.456 3.116-.844 5.674-4.576 7.823-11.408 4.91-15.615 18.423-24.15 31.492-32.4 8.96-5.658 17.422-11 22.035-18.2 5.154-8.036 4.815-17.332-1.067-29.255-5.06-10.256-6.515-20.418-4.45-31.067 1.759-9.069 5.79-16.871 9.03-23.14 3.435-6.648 6.148-11.9 4.269-15.2-1.469-2.578-5.727-3.987-13.4-4.435-14.37-.838-28.063 3.724-40.146 7.748-10.357 3.45-20.138 6.708-28.569 5.948-9.351-.844-16.174-6.518-21.47-17.856-9.906-21.205-23.169-19.59-33.825-18.292-5.25.639-9.783 1.191-12.76-1.274-2.091-1.731-3.261-4.884-3.578-9.64-.962-14.462 4.906-25.825 10-32.816A57.36 57.36 0 0 1 67.4 2.086l.19.265a57.036 57.036 0 0 0-11.329 11.75C51.2 21.047 45.37 32.335 46.325 46.695c.31 4.661 1.442 7.74 3.46 9.411 2.869 2.375 7.338 1.831 12.513 1.2 5.3-.646 11.3-1.376 17.278.728 6.919 2.437 12.442 8.244 16.883 17.751 5.243 11.222 11.98 16.837 21.2 17.669 8.36.754 18.111-2.494 28.436-5.932 12.112-4.034 25.841-8.606 40.268-7.764 7.794.455 12.136 1.916 13.665 4.6 1.967 3.453-.782 8.774-4.263 15.509-3.23 6.25-7.249 14.029-9 23.052-2.051 10.576-.6 20.671 4.422 30.861 5.938 12.036 6.271 21.433 1.049 29.575-4.652 7.254-13.144 12.617-22.135 18.3-13.019 8.222-26.48 16.724-31.355 32.225-2.184 6.946-4.817 10.749-8.048 11.624-4.581 1.241-9.809-3.5-15.347-8.529-6.181-5.608-12.574-11.408-19.278-10.711-3.786.394-7.25 2.826-10.588 7.436-8.76 12.1-14.365 16.073-17.376 18.206-3.727 2.64-3.727 2.64-1.4 12.226.3 1.23.635 2.616 1.006 4.184 1.292 5.454 2.559 9.229 3.484 11.985 1.037 3.091 1.558 4.642.949 5.37-.625.748-2.259.509-5.837-.013-3.147-.459-7.9-1.153-14.614-1.518-7.072-.384-10.351-.006-11.7 1.349-1.064 1.071-.956 2.829-.806 5.261.372 6.015.991 16.082-14.038 31.539z"/>
  <path d="M31.385 323.108l-.236-.225c14.756-15.5 14.037-25.468 13.607-31.423-.182-2.514-.313-4.331.841-5.517 1.421-1.462 4.653-1.887 11.925-1.568 6.728.3 11.5.941 14.653 1.367 3.249.44 5.038.682 5.539.069.485-.594-.064-2.175-1.062-5.045-.9-2.6-2.266-6.52-3.619-11.972-.388-1.562-.739-2.943-1.05-4.169-2.483-9.772-2.41-9.825 1.394-12.58 2.972-2.152 8.5-6.159 17.1-18.306 3.343-4.722 6.853-7.233 10.73-7.678 6.834-.786 13.64 5.256 19.64 10.585 5.521 4.9 10.735 9.537 15.127 8.295 3.1-.877 5.622-4.633 7.7-11.484 4.741-15.66 18.156-24.331 31.13-32.716 8.895-5.749 17.3-11.179 21.83-18.417 5.065-8.086 4.626-17.374-1.381-29.231-5.167-10.2-6.731-20.341-4.781-31.007 1.661-9.083 5.607-16.924 8.777-23.224 3.362-6.681 6.018-11.957 4.1-15.236-1.5-2.562-5.767-3.926-13.442-4.294-14.367-.688-28.01 4.014-40.046 8.162-10.317 3.556-20.062 6.916-28.492 6.242-9.356-.746-16.236-6.346-21.652-17.625-10.13-21.1-23.37-19.342-34.008-17.934-5.24.694-9.766 1.293-12.768-1.14-2.109-1.709-3.312-4.848-3.68-9.6-1.113-14.437 4.631-25.86 9.646-32.896A57.325 57.325 0 0 1 70.172 2.613l.192.263a57 57 0 0 0-11.2 11.863c-4.981 6.99-10.685 18.334-9.575 32.677.36 4.656 1.524 7.721 3.56 9.371 2.893 2.345 7.354 1.755 12.52 1.07 5.289-.7 11.282-1.494 17.278.548 6.943 2.364 12.525 8.111 17.066 17.568 5.36 11.163 12.156 16.7 21.384 17.441 8.361.667 18.077-2.681 28.36-6.225 12.063-4.158 25.739-8.87 40.167-8.18 7.8.373 12.152 1.789 13.708 4.455 2 3.431-.688 8.778-4.095 15.546-3.161 6.281-7.1 14.1-8.748 23.136-1.937 10.593-.383 20.668 4.751 30.8 6.064 11.969 6.5 21.358 1.367 29.551-4.572 7.3-13 12.748-21.929 18.518-12.924 8.353-26.289 16.992-30.995 32.537-2.108 6.965-4.7 10.794-7.919 11.7a5.807 5.807 0 0 1-1.588.216c-4.183 0-8.892-4.182-13.844-8.581-6.239-5.542-12.689-11.27-19.386-10.5-3.78.434-7.215 2.9-10.5 7.542-8.632 12.191-14.192 16.218-17.179 18.382-3.7 2.678-3.7 2.678-1.269 12.235a710.7 710.7 0 0 1 1.051 4.171c1.35 5.437 2.656 9.2 3.611 11.943 1.07 3.079 1.607 4.624 1.006 5.358-.616.753-2.251.532-5.835.047-3.15-.426-7.91-1.07-14.623-1.364-7.074-.311-10.347.1-11.677 1.47-1.052 1.082-.925 2.837-.75 5.266.434 6.008 1.16 16.063-13.696 31.671z"/>
  <path d="M37.618 323.927l-.239-.222c14.585-15.65 13.758-25.606 13.264-31.554-.209-2.512-.359-4.326.781-5.524 1.405-1.476 4.633-1.934 11.9-1.692 6.729.225 11.5.821 14.663 1.214 3.252.406 5.043.629 5.537.012.479-.6-.088-2.173-1.116-5.032-.93-2.586-2.335-6.494-3.747-11.93-.4-1.558-.77-2.935-1.095-4.157-2.587-9.743-2.515-9.8 1.258-12.59 2.948-2.183 8.435-6.245 16.9-18.478 3.291-4.754 6.772-7.3 10.642-7.787 6.831-.855 13.693 5.111 19.749 10.377 5.572 4.845 10.834 9.422 15.212 8.134 3.094-.909 5.569-4.691 7.569-11.56 4.571-15.7 17.889-24.512 30.768-33.029 8.83-5.84 17.171-11.356 21.625-18.638 4.976-8.136 4.438-17.417-1.695-29.206-5.275-10.142-6.948-20.264-5.112-30.947 1.563-9.1 5.423-16.976 8.525-23.307 3.289-6.713 5.887-12.016 3.94-15.273-1.522-2.546-5.807-3.865-13.484-4.153-14.377-.537-27.957 4.3-39.944 8.577-10.275 3.662-19.982 7.12-28.415 6.537-9.361-.649-16.3-6.175-21.834-17.393-10.347-20.984-23.563-19.093-34.182-17.575-5.231.748-9.748 1.394-12.776-1.007-2.126-1.686-3.363-4.812-3.782-9.557-1.272-14.429 4.347-25.9 9.285-32.99A57.281 57.281 0 0 1 72.948 3.136l.2.261a56.943 56.943 0 0 0-11.072 11.976c-4.9 7.04-10.484 18.439-9.221 32.766.41 4.651 1.607 7.7 3.66 9.33 2.918 2.314 7.37 1.677 12.527.939 5.279-.755 11.262-1.611 17.278.368 6.965 2.291 12.607 7.977 17.249 17.384 5.479 11.1 12.331 16.573 21.565 17.212 8.362.58 18.042-2.868 28.283-6.519 12.014-4.282 25.631-9.138 40.066-8.6 7.8.292 12.168 1.662 13.752 4.311 2.038 3.409-.594 8.782-3.926 15.583-3.092 6.312-6.941 14.168-8.5 23.219-1.823 10.609-.161 20.665 5.08 30.741 6.191 11.9 6.725 21.284 1.683 29.527-4.492 7.344-12.862 12.88-21.723 18.74-12.83 8.485-26.1 17.26-30.635 32.849-2.033 6.984-4.581 10.838-7.79 11.781-4.549 1.336-9.877-3.3-15.518-8.2-6.3-5.476-12.808-11.137-19.494-10.3-3.773.473-7.18 2.975-10.415 7.649-8.5 12.277-14.013 16.361-16.976 18.554-3.667 2.716-3.667 2.716-1.137 12.245.325 1.223.69 2.6 1.1 4.159 1.407 5.422 2.754 9.167 3.738 11.9 1.1 3.066 1.656 4.605 1.064 5.346-.608.76-2.245.556-5.832.108-3.154-.394-7.919-.988-14.633-1.212-7.074-.237-10.343.209-11.657 1.591-1.04 1.092-.894 2.846-.693 5.273.496 6.009 1.329 16.055-13.353 31.81z"/>
  <path d="M43.85 324.746l-.241-.22c14.414-15.8 13.48-25.744 12.923-31.685-.235-2.509-.406-4.321.722-5.531 1.389-1.491 4.609-1.981 11.883-1.815 6.729.155 11.509.7 14.672 1.061 3.255.371 5.049.576 5.536-.046.472-.6-.111-2.172-1.169-5.02-.957-2.576-2.4-6.468-3.874-11.888-.421-1.553-.8-2.926-1.139-4.144-2.691-9.714-2.62-9.768 1.122-12.6 2.924-2.213 8.366-6.332 16.7-18.65 3.239-4.787 6.691-7.369 10.555-7.9 6.821-.929 13.746 4.966 19.857 10.168 5.623 4.785 10.933 9.309 15.3 7.973 3.083-.942 5.517-4.748 7.442-11.636 4.4-15.748 17.621-24.693 30.406-33.343 8.765-5.93 17.045-11.532 21.42-18.859 4.888-8.186 4.25-17.459-2.008-29.182-5.383-10.084-7.164-20.187-5.444-30.887 1.465-9.112 5.24-17.029 8.273-23.391 3.216-6.746 5.756-12.074 3.775-15.31-1.549-2.529-5.847-3.8-13.526-4.012-14.374-.39-27.9 4.594-39.843 8.991-10.233 3.768-19.9 7.325-28.339 6.831-9.366-.551-16.362-6-22.016-17.162-10.58-20.863-23.773-18.836-34.374-17.207-5.221.8-9.73 1.5-12.783-.873-2.144-1.664-3.415-4.776-3.883-9.516-1.427-14.413 4.068-25.944 8.928-33.08a57.248 57.248 0 0 1 11-12.154l.2.259a56.905 56.905 0 0 0-10.938 12.088C60.16 23.1 54.7 34.55 56.121 48.861c.46 4.646 1.689 7.685 3.759 9.291 2.942 2.283 7.387 1.6 12.534.808 5.27-.81 11.242-1.727 17.278.188 6.989 2.218 12.691 7.844 17.432 17.2 5.6 11.044 12.506 16.441 21.745 16.984 8.364.493 18.007-3.056 28.207-6.812 11.966-4.407 25.528-9.4 39.965-9.011 7.8.211 12.183 1.535 13.8 4.168 2.074 3.387-.5 8.785-3.758 15.621-3.024 6.343-6.788 14.237-8.245 23.3-1.708 10.626.061 20.662 5.41 30.681 6.317 11.834 6.953 21.209 2 29.5-4.412 7.389-12.72 13.01-21.517 18.962-12.736 8.617-25.906 17.528-30.275 33.161-1.957 7-4.463 10.882-7.66 11.86-4.536 1.385-9.911-3.192-15.6-8.037-6.355-5.409-12.927-11-19.6-10.093-3.767.513-7.145 3.05-10.329 7.756-8.364 12.363-13.834 16.5-16.773 18.727-3.637 2.753-3.637 2.753-1 12.254.338 1.219.718 2.593 1.139 4.146 1.466 5.406 2.853 9.137 3.865 11.86 1.135 3.054 1.705 4.587 1.12 5.334-.6.766-2.239.578-5.83.169-3.157-.36-7.928-.9-14.643-1.059-7.074-.163-10.337.317-11.637 1.712-1.028 1.1-.864 2.854-.636 5.279.547 5.996 1.488 16.031-13.022 31.936z"/>
  <path d="M50.082 325.565l-.243-.217c14.242-15.947 13.2-25.881 12.58-31.816-.263-2.506-.452-4.317.662-5.538 1.373-1.5 4.585-2.029 11.862-1.939 6.731.085 11.516.58 14.682.908 3.259.338 5.055.524 5.535-.1.466-.608-.134-2.171-1.223-5.007-.985-2.565-2.473-6.442-4-11.847-.438-1.548-.833-2.918-1.183-4.133-2.8-9.685-2.725-9.739.987-12.61 2.9-2.243 8.3-6.418 16.5-18.822 3.186-4.819 6.61-7.438 10.467-8 6.813-1 13.8 4.822 19.967 9.96 5.675 4.727 11.035 9.193 15.383 7.813 3.072-.975 5.464-4.805 7.315-11.712 4.231-15.792 17.354-24.874 30.045-33.656 8.7-6.021 16.919-11.709 21.215-19.08 4.8-8.236 4.062-17.5-2.322-29.158-5.491-10.027-7.38-20.111-5.775-30.826 1.367-9.126 5.056-17.082 8.02-23.474 3.143-6.778 5.625-12.132 3.61-15.347-1.576-2.513-5.887-3.743-13.568-3.871-14.394-.239-27.852 4.885-39.742 9.405-10.191 3.875-19.812 7.535-28.262 7.126-9.371-.453-16.424-5.833-22.2-16.93C99.59 55.928 86.42 58.093 75.838 59.832c-5.212.856-9.713 1.6-12.791-.739-2.162-1.641-3.466-4.74-3.986-9.474-1.582-14.4 3.789-25.984 8.572-33.169A57.2 57.2 0 0 1 78.5 4.181l.2.257a56.876 56.876 0 0 0-10.8 12.2c-4.75 7.139-10.083 18.649-8.513 32.944.51 4.641 1.772 7.667 3.859 9.25 2.966 2.251 7.4 1.522 12.541.678 5.26-.865 11.222-1.845 17.278.008 7.012 2.145 12.773 7.711 17.615 17.016 5.713 10.985 12.68 16.309 21.92 16.756 8.38.405 17.972-3.243 28.131-7.105 11.917-4.531 25.428-9.664 39.863-9.426 7.8.129 12.2 1.408 13.839 4.023 2.11 3.365-.406 8.79-3.59 15.657-2.956 6.374-6.634 14.306-7.993 23.386-1.594 10.643.283 20.659 5.739 30.621 6.444 11.767 7.18 21.134 2.317 29.478-4.332 7.434-12.58 13.142-21.311 19.184-12.642 8.749-25.715 17.8-29.915 33.472-1.881 7.022-4.345 10.927-7.531 11.938a5.856 5.856 0 0 1-1.782.27c-4.134 0-8.9-3.97-13.908-8.143-6.414-5.343-13.05-10.869-19.711-9.888-3.76.553-7.11 3.125-10.242 7.862-8.23 12.449-13.655 16.645-16.57 18.9-3.607 2.79-3.607 2.79-.873 12.262.351 1.216.746 2.585 1.184 4.135 1.523 5.39 2.95 9.105 3.992 11.818 1.168 3.042 1.754 4.569 1.178 5.322-.591.772-2.232.6-5.827.23-3.161-.327-7.937-.822-14.652-.906-7.08-.089-10.333.425-11.618 1.833-1.016 1.113-.833 2.863-.579 5.284.63 5.99 1.679 16.014-12.659 32.068z"/>
  <path d="M56.314 326.384l-.245-.215c14.07-16.1 12.923-26.019 12.238-31.947-.289-2.5-.5-4.312.6-5.545 1.356-1.519 4.56-2.087 11.841-2.063 6.731.014 11.522.46 14.692.755 3.264.3 5.061.47 5.534-.161.459-.613-.157-2.169-1.277-4.994-1.012-2.555-2.543-6.417-4.129-11.8-.455-1.544-.865-2.909-1.228-4.121-2.9-9.655-2.829-9.711.851-12.62 2.875-2.273 8.228-6.5 16.3-18.994 3.134-4.852 6.529-7.506 10.379-8.114 6.8-1.075 13.853 4.677 20.076 9.751 5.725 4.668 11.133 9.08 15.467 7.652 3.061-1.007 5.412-4.863 7.188-11.787 4.061-15.836 17.086-25.054 29.683-33.969 8.636-6.112 16.793-11.885 21.009-19.3 4.711-8.286 3.874-17.543-2.635-29.134-5.6-9.97-7.6-20.034-6.107-30.766 1.269-9.14 4.872-17.135 7.768-23.558 3.07-6.811 5.495-12.19 3.445-15.385-1.6-2.5-5.927-3.682-13.61-3.73-14.368-.088-27.8 5.175-39.641 9.82-10.149 3.981-19.737 7.741-28.185 7.421-9.376-.355-16.487-5.662-22.38-16.7-11.023-20.644-24.17-18.343-34.732-16.493-5.2.911-9.7 1.7-12.8-.606-2.18-1.618-3.517-4.7-4.088-9.433-1.736-14.38 3.509-26.023 8.215-33.258A57.174 57.174 0 0 1 81.279 4.7l.2.255a56.871 56.871 0 0 0-10.67 12.317c-4.674 7.189-9.883 18.754-8.159 33.028.56 4.636 1.855 7.648 3.959 9.21 2.991 2.22 7.421 1.445 12.548.547 5.252-.92 11.2-1.962 17.279-.172 7.034 2.072 12.856 7.578 17.8 16.833 5.833 10.925 12.857 16.176 22.1 16.527 8.386.319 17.938-3.43 28.054-7.4 11.869-4.655 25.337-9.928 39.762-9.842 7.8.048 12.214 1.281 13.882 3.88 2.146 3.343-.312 8.794-3.422 15.694-2.887 6.4-6.48 14.375-7.742 23.469-1.479 10.659.506 20.656 6.068 30.562 6.57 11.7 7.407 21.059 2.634 29.454-4.252 7.48-12.438 13.273-21.1 19.407-12.548 8.881-25.523 18.064-29.555 33.784-1.806 7.041-4.227 10.972-7.4 12.016-4.5 1.481-9.978-2.983-15.775-7.71-6.472-5.277-13.162-10.734-19.819-9.682-3.753.593-7.075 3.2-10.156 7.969-8.1 12.534-13.476 16.787-16.367 19.072-3.577 2.828-3.577 2.828-.741 12.271.364 1.212.774 2.577 1.229 4.122 1.582 5.374 3.048 9.075 4.119 11.777 1.2 3.03 1.8 4.551 1.235 5.31-.583.778-2.226.625-5.825.29-3.164-.294-7.946-.739-14.662-.754-7.076-.019-10.329.533-11.6 1.954-1 1.124-.8 2.872-.522 5.291.689 5.988 1.847 16.001-12.319 32.205z"/>
  <path d="M62.546 327.2l-.248-.212c13.9-16.244 12.645-26.156 11.9-32.079-.316-2.5-.545-4.307.543-5.552 1.341-1.534 4.544-2.126 11.821-2.186 6.731-.055 11.528.34 14.7.6 3.266.27 5.066.418 5.533-.219.453-.618-.181-2.168-1.331-4.982-1.04-2.545-2.612-6.391-4.256-11.763-.471-1.54-.9-2.9-1.272-4.108-3-9.626-2.934-9.682.715-12.631 2.851-2.3 8.159-6.591 16.093-19.166 3.082-4.884 6.448-7.574 10.291-8.222 6.789-1.146 13.905 4.533 20.184 9.543 5.777 4.61 11.233 8.964 15.553 7.492 3.05-1.04 5.359-4.92 7.061-11.863 3.891-15.88 16.819-25.235 29.32-34.282 8.571-6.2 16.667-12.061 20.8-19.523 4.622-8.336 3.685-17.586-2.949-29.109-5.706-9.913-7.812-19.957-6.438-30.706 1.17-9.155 4.689-17.187 7.515-23.642 3-6.843 5.364-12.249 3.28-15.422-1.607-2.447-5.848-3.589-13.332-3.589h-.32c-14.381.061-27.747 5.466-39.54 10.234-9.817 3.969-19.106 7.725-27.377 7.725-.245 0-.489 0-.732-.01-9.38-.258-16.55-5.49-22.562-16.467-11.246-20.532-24.37-18.093-34.913-16.133-5.193.965-9.678 1.8-12.806-.472-2.2-1.6-3.568-4.668-4.19-9.392-1.889-14.358 3.233-26.058 7.861-33.343A57.177 57.177 0 0 1 84.056 5.227l.206.253a56.839 56.839 0 0 0-10.543 12.426c-4.6 7.238-9.682 18.859-7.8 33.121.609 4.63 1.937 7.63 4.058 9.171 3.015 2.189 7.436 1.367 12.555.416 5.242-.974 11.183-2.078 17.278-.352 7.057 2 12.939 7.445 17.98 16.649 5.951 10.865 13.033 16.044 22.285 16.3 8.394.23 17.9-3.618 27.978-7.692 11.82-4.779 25.216-10.2 39.66-10.258 7.82-.028 12.23 1.154 13.926 3.736 2.181 3.321-.217 8.8-3.254 15.731-2.818 6.435-6.326 14.444-7.491 23.552-1.365 10.676.728 20.653 6.4 30.5 6.7 11.633 7.634 20.984 2.951 29.43-4.172 7.525-12.3 13.4-20.9 19.629-12.454 9.012-25.332 18.332-29.2 34.1-1.73 7.06-4.109 11.016-7.272 12.094-4.487 1.531-10.012-2.878-15.861-7.545-6.529-5.21-13.281-10.6-19.927-9.476-3.747.632-7.041 3.274-10.07 8.075-7.963 12.62-13.3 16.93-16.163 19.246-3.547 2.865-3.547 2.865-.61 12.28.377 1.208.8 2.57 1.273 4.11 1.639 5.358 3.146 9.044 4.246 11.736 1.233 3.018 1.852 4.532 1.292 5.3-.575.784-2.218.649-5.822.351-3.168-.262-7.949-.654-14.672-.6-7.078.059-10.324.64-11.578 2.075-.992 1.134-.771 2.88-.465 5.3.758 5.963 2.023 15.964-11.97 32.315z"/>
  <path d="M68.779 328.022l-.25-.21C82.256 311.42 80.9 301.519 80.082 295.6c-.343-2.5-.591-4.3.484-5.559 1.324-1.548 4.523-2.174 11.8-2.31 6.735-.127 11.534.22 14.711.449 3.27.236 5.071.365 5.532-.277.446-.622-.2-2.166-1.385-4.969-1.068-2.534-2.681-6.365-4.383-11.721-.488-1.535-.927-2.892-1.317-4.1-3.108-9.6-3.039-9.654.58-12.642 2.827-2.334 8.09-6.678 15.89-19.338 3.029-4.916 6.367-7.641 10.2-8.331 6.778-1.218 13.959 4.388 20.293 9.334 5.828 4.55 11.331 8.851 15.638 7.331 3.039-1.072 5.307-4.977 6.934-11.939 3.722-15.924 16.552-25.416 28.959-34.6 8.507-6.293 16.541-12.238 20.6-19.744 4.534-8.386 3.5-17.628-3.262-29.085-5.815-9.855-8.029-19.88-6.77-30.646 1.072-9.169 4.5-17.24 7.263-23.725 2.924-6.876 5.234-12.307 3.115-15.459-1.657-2.465-6-3.562-13.694-3.448-14.384.211-27.694 5.756-39.438 10.648C161.947 89.6 152.6 93.5 144.253 93.5h-.45c-9.385-.16-16.612-5.319-22.744-16.236-11.47-20.427-24.569-17.851-35.096-15.78-5.184 1.02-9.661 1.9-12.814-.339-2.215-1.573-3.619-4.632-4.292-9.35-2.046-14.347 2.95-26.1 7.5-33.437A57.165 57.165 0 0 1 86.832 5.75l.209.25A56.831 56.831 0 0 0 76.63 18.539c-4.52 7.287-9.481 18.964-7.45 33.21.659 4.625 2.02 7.612 4.158 9.13 3.039 2.158 7.452 1.29 12.562.285 5.233-1.029 11.164-2.2 17.279-.532 7.081 1.926 13.022 7.311 18.163 16.465 6.069 10.805 13.208 15.912 22.466 16.069 8.393.14 17.868-3.8 27.9-7.985 11.771-4.9 25.112-10.461 39.559-10.673 7.811-.114 12.245 1.027 13.969 3.592 2.217 3.3-.123 8.8-3.086 15.769-2.75 6.466-6.172 14.513-7.239 23.635-1.251 10.693.95 20.65 6.727 30.442 6.823 11.565 7.861 20.909 3.268 29.406-4.093 7.57-12.156 13.535-20.692 19.851-12.36 9.144-25.141 18.6-28.835 34.408-1.654 7.079-3.991 11.06-7.143 12.172-4.475 1.579-10.046-2.774-15.946-7.381-6.588-5.144-13.4-10.464-20.035-9.271-3.74.672-7.006 3.348-9.983 8.182-7.829 12.706-13.119 17.072-15.96 19.418-3.517 2.9-3.517 2.9-.477 12.289.39 1.2.829 2.562 1.317 4.1 1.7 5.342 3.244 9.013 4.373 11.694 1.266 3.006 1.9 4.515 1.349 5.285-.566.791-2.213.672-5.82.412-3.171-.229-7.964-.575-14.681-.448-7.079.132-10.319.748-11.558 2.2-.98 1.145-.74 2.889-.408 5.3.819 5.965 2.193 15.956-11.628 32.459z"/>
  <path d="M75.011 328.841l-.252-.207c13.556-16.54 12.088-26.434 11.211-32.341-.37-2.5-.637-4.3.424-5.566 1.308-1.562 4.5-2.222 11.779-2.434 6.733-.2 11.541.1 14.721.3 3.274.2 5.077.312 5.531-.334.44-.627-.227-2.165-1.439-4.956-1.1-2.524-2.751-6.339-4.511-11.68-.5-1.53-.958-2.883-1.361-4.083-3.212-9.568-3.143-9.626.445-12.652 2.8-2.364 8.02-6.764 15.688-19.51 2.977-4.949 6.286-7.71 10.115-8.44 6.771-1.291 14.012 4.243 20.4 9.126 5.88 4.492 11.434 8.736 15.723 7.17 3.028-1.1 5.255-5.035 6.807-12.015 3.552-15.969 16.284-25.6 28.6-34.909 8.442-6.384 16.415-12.414 20.394-19.965 4.445-8.436 3.309-17.671-3.576-29.061-5.922-9.8-8.245-19.8-7.1-30.585.974-9.183 4.321-17.293 7.011-23.809 2.851-6.908 5.1-12.365 2.951-15.5-1.683-2.449-6.05-3.5-13.736-3.306-14.387.361-27.642 6.046-39.337 11.062-9.955 4.27-19.364 8.3-27.782 8.3h-.174c-9.39-.062-16.675-5.148-22.926-16-11.695-20.306-24.772-17.592-35.279-15.412-5.174 1.074-9.642 2-12.821-.205-2.233-1.55-3.67-4.6-4.394-9.309-2.2-14.33 2.671-26.142 7.145-33.526A57.153 57.153 0 0 1 89.609 6.272l.211.248a56.812 56.812 0 0 0-10.28 12.651c-4.443 7.337-9.281 19.069-7.1 33.3.709 4.62 2.1 7.594 4.258 9.09 3.063 2.127 7.468 1.212 12.569.154C94.5 60.631 100.415 59.4 106.551 61c7.1 1.852 13.1 7.178 18.346 16.282 6.187 10.746 13.383 15.78 22.646 15.841h.172c8.352 0 17.729-4.022 27.653-8.279 11.722-5.028 25.009-10.726 39.458-11.089 7.8-.2 12.261.9 14.013 3.448 2.252 3.277-.029 8.806-2.918 15.806-2.681 6.5-6.018 14.583-6.988 23.719-1.136 10.709 1.172 20.648 7.056 30.382 6.95 11.5 8.089 20.834 3.585 29.382-4.013 7.615-12.014 13.666-20.486 20.073-12.266 9.276-24.949 18.868-28.476 34.72-1.579 7.1-3.873 11.105-7.014 12.251-4.458 1.626-10.08-2.67-16.032-7.218-6.646-5.077-13.517-10.328-20.143-9.065-3.733.712-6.971 3.423-9.9 8.288-7.7 12.792-12.939 17.215-15.757 19.591-3.487 2.941-3.487 2.941-.346 12.3.4 1.2.857 2.554 1.362 4.085 1.755 5.326 3.342 8.983 4.5 11.652 1.3 2.994 1.951 4.5 1.406 5.273-.558.8-2.2.7-5.817.472-3.174-.2-7.972-.491-14.691-.3-7.08.206-10.315.856-11.539 2.317-.968 1.156-.709 2.9-.352 5.309.889 5.969 2.369 15.948-11.278 32.601z"/>
  <path d="M81.242 329.66l-.254-.2c13.385-16.69 11.81-26.57 10.87-32.473-.4-2.492-.684-4.293.365-5.573 1.292-1.576 4.479-2.269 11.758-2.557 6.735-.265 11.547-.02 14.73.143 3.278.168 5.082.259 5.53-.392.433-.632-.251-2.164-1.492-4.944-1.123-2.514-2.82-6.314-4.638-11.638-.521-1.526-.99-2.874-1.406-4.071-3.316-9.539-3.248-9.6.309-12.662 2.779-2.394 7.951-6.851 15.485-19.682 2.925-4.981 6.2-7.778 10.027-8.549 6.76-1.362 14.065 4.1 20.511 8.917 5.93 4.433 11.532 8.622 15.807 7.01 3.017-1.137 5.2-5.092 6.681-12.091 3.382-16.013 16.017-25.778 28.235-35.222 8.377-6.475 16.289-12.59 20.189-20.186 4.357-8.486 3.121-17.713-3.889-29.037-6.03-9.741-8.461-19.726-7.433-30.525.876-9.2 4.138-17.345 6.758-23.892 2.778-6.941 4.973-12.423 2.786-15.534-1.71-2.433-6.088-3.439-13.778-3.166-14.389.511-27.59 6.337-39.236 11.477-9.983 4.406-19.412 8.567-27.879 8.6h-.1c-9.348 0-16.661-5.014-23.009-15.773-11.914-20.198-24.969-17.346-35.456-15.055-5.164 1.128-9.626 2.1-12.829-.072-2.251-1.528-3.722-4.559-4.5-9.268-2.355-14.314 2.392-26.181 6.788-33.616A57.155 57.155 0 0 1 92.386 6.8l.214.246a56.826 56.826 0 0 0-10.149 12.759c-4.366 7.386-9.08 19.175-6.742 33.388.76 4.615 2.185 7.576 4.358 9.051 3.087 2.1 7.484 1.136 12.576.023 5.214-1.139 11.122-2.43 17.279-.893 7.126 1.779 13.188 7.045 18.529 16.1 6.283 10.649 13.508 15.613 22.729 15.613h.1c8.4-.032 17.8-4.18 27.749-8.571 11.674-5.152 24.9-10.991 39.357-11.5 7.8-.278 12.276.772 14.056 3.3 2.288 3.255.065 8.81-2.75 15.843-2.613 6.528-5.864 14.652-6.736 23.8-1.022 10.726 1.394 20.645 7.385 30.323 7.076 11.431 8.316 20.76 3.9 29.357-3.933 7.66-11.873 13.8-20.279 20.3-12.172 9.408-24.758 19.136-28.115 35.031-1.5 7.117-3.755 11.15-6.885 12.329a5.958 5.958 0 0 1-2.118.373c-4.064 0-8.912-3.624-14-7.427-6.7-5.011-13.637-10.193-20.251-8.859-3.727.751-6.936 3.5-9.811 8.394-7.561 12.878-12.76 17.357-15.554 19.764-3.457 2.978-3.457 2.978-.214 12.308.416 1.2.885 2.546 1.407 4.073 1.813 5.31 3.439 8.952 4.627 11.611 1.332 2.981 2 4.478 1.464 5.26-.55.8-2.2.718-5.815.534-3.178-.163-7.982-.409-14.7-.143-7.08.28-10.31.964-11.519 2.438-.956 1.167-.679 2.907-.3 5.315.951 5.949 2.54 15.918-10.936 32.72z"/>
  <path d="M87.475 330.479l-.257-.2c13.213-16.838 11.532-26.707 10.528-32.6-.424-2.49-.73-4.288.305-5.58 1.276-1.59 4.457-2.317 11.737-2.681 6.737-.337 11.553-.14 14.741-.011 3.281.134 5.089.208 5.528-.45.427-.637-.274-2.162-1.546-4.931-1.151-2.5-2.889-6.288-4.766-11.6a801.81 801.81 0 0 0-1.45-4.059c-3.42-9.51-3.353-9.569.174-12.672 2.755-2.424 7.882-6.937 15.283-19.854 2.873-5.014 6.124-7.845 9.94-8.657 6.749-1.436 14.117 3.954 20.619 8.709 5.982 4.374 11.633 8.506 15.892 6.849 3.006-1.169 5.15-5.149 6.554-12.167 3.212-16.057 15.749-25.959 27.873-35.535 8.312-6.566 16.163-12.767 19.983-20.407 4.268-8.536 2.933-17.755-4.2-29.013-6.138-9.684-8.677-19.649-7.764-30.465.778-9.211 3.954-17.4 6.506-23.976 2.706-6.974 4.843-12.482 2.621-15.571-1.737-2.417-6.128-3.378-13.82-3.024-14.392.661-27.537 6.627-39.135 11.891-9.941 4.512-19.331 8.774-27.8 8.894h-.369c-9.226 0-16.516-4.948-22.921-15.544-12.139-20.082-25.169-17.093-35.639-14.692-5.156 1.183-9.608 2.2-12.836.062-2.269-1.505-3.773-4.523-4.6-9.226-2.51-14.3 2.112-26.221 6.432-33.705A57.161 57.161 0 0 1 95.163 7.318l.216.244a56.82 56.82 0 0 0-10.017 12.876c-4.29 7.436-8.88 19.28-6.388 33.476.809 4.61 2.267 7.558 4.458 9.011 3.111 2.064 7.5 1.058 12.583-.108 5.2-1.193 11.1-2.546 17.279-1.073 7.15 1.706 13.27 6.912 18.712 15.914 6.424 10.627 13.747 15.517 23.007 15.384 8.4-.119 17.763-4.367 27.672-8.865 11.625-5.276 24.8-11.256 39.255-11.92 7.81-.358 12.291.645 14.1 3.16 2.324 3.233.159 8.814-2.582 15.88-2.544 6.558-5.711 14.721-6.485 23.885-.907 10.743 1.616 20.642 7.714 30.263 7.2 11.364 8.543 20.684 4.219 29.333-3.853 7.705-11.731 13.929-20.073 20.517-12.078 9.54-24.567 19.4-27.756 35.344-1.427 7.136-3.637 11.194-6.755 12.407-4.427 1.721-10.146-2.461-16.2-6.89-6.762-4.945-13.75-10.057-20.359-8.653-3.72.791-6.9 3.572-9.725 8.5-7.427 12.964-12.582 17.5-15.35 19.936-3.427 3.016-3.427 3.016-.082 12.318.429 1.193.913 2.538 1.451 4.06 1.871 5.295 3.538 8.921 4.754 11.569 1.364 2.969 2.049 4.46 1.521 5.248-.542.809-2.193.741-5.812.594-3.182-.13-7.991-.326-14.711.01-7.082.354-10.306 1.071-11.5 2.559-.944 1.177-.648 2.916-.238 5.322 1.01 5.951 2.707 15.909-10.596 32.86z"/>
  <path d="M93.707 331.3l-.258-.2c13.042-16.987 11.254-26.845 10.186-32.735-.451-2.487-.777-4.284.246-5.587 1.26-1.6 4.435-2.365 11.716-2.8 6.737-.407 11.559-.26 14.75-.163 3.285.1 5.094.154 5.527-.507.421-.642-.3-2.161-1.6-4.918-1.178-2.494-2.959-6.262-4.893-11.555a722.527 722.527 0 0 0-1.494-4.046c-3.524-9.481-3.458-9.541.038-12.683 2.731-2.455 7.813-7.024 15.081-20.026 2.821-5.046 6.043-7.913 9.852-8.766 6.737-1.508 14.17 3.809 20.728 8.5 6.034 4.315 11.731 8.392 15.977 6.688 3-1.2 5.1-5.206 6.427-12.243 3.042-16.1 15.482-26.14 27.511-35.848 8.247-6.656 16.037-12.943 19.778-20.628 4.179-8.586 2.745-17.8-4.516-28.989-6.245-9.626-8.893-19.572-8.1-30.4.68-9.225 3.77-17.451 6.253-24.059 2.632-7.006 4.712-12.54 2.456-15.609-1.764-2.4-6.17-3.316-13.862-2.883-14.394.811-27.485 6.918-39.034 12.306-9.9 4.618-19.251 8.98-27.726 9.188-9.4.238-16.863-4.634-23.472-15.31-12.363-19.97-25.37-16.844-35.82-14.332-5.147 1.237-9.59 2.305-12.844.2-2.286-1.483-3.824-4.487-4.7-9.185-2.665-14.281 1.833-26.26 6.075-33.794A57.168 57.168 0 0 1 97.94 7.841l.219.241a56.851 56.851 0 0 0-9.886 12.989c-4.213 7.486-8.679 19.385-6.033 33.565.859 4.605 2.35 7.54 4.558 8.971 3.135 2.033 7.517.98 12.59-.239 5.2-1.248 11.084-2.664 17.279-1.253 7.173 1.633 13.354 6.779 18.895 15.731C142.1 88.414 149.486 93.225 158.748 93c8.407-.206 17.728-4.555 27.6-9.158 11.576-5.4 24.7-11.521 39.153-12.335 7.815-.441 12.307.518 14.143 3.016 2.36 3.211.254 8.818-2.414 15.917-2.476 6.589-5.557 14.79-6.233 23.969-.793 10.759 1.838 20.639 8.044 30.2 7.329 11.3 8.77 20.609 4.535 29.309-3.773 7.751-11.59 14.06-19.867 20.739-11.984 9.671-24.376 19.672-27.4 35.655-1.352 7.155-3.519 11.238-6.626 12.485-4.41 1.769-10.18-2.357-16.288-6.726-6.82-4.878-13.872-9.923-20.467-8.447-3.713.831-6.866 3.646-9.638 8.607-7.294 13.049-12.4 17.642-15.147 20.109-3.4 3.054-3.4 3.054.05 12.327.442 1.19.941 2.53 1.5 4.047 1.929 5.279 3.636 8.89 4.881 11.527 1.4 2.957 2.1 4.441 1.578 5.236-.533.815-2.186.765-5.81.654-3.185-.1-8-.243-14.721.163-7.082.428-10.3 1.179-11.479 2.68-.933 1.188-.617 2.924-.182 5.328 1.073 5.948 2.877 15.898-10.253 32.998z"/>
  <path d="M99.939 332.117l-.26-.2c12.87-17.135 10.976-26.982 9.843-32.866-.478-2.484-.823-4.279.187-5.594 1.243-1.619 4.413-2.413 11.695-2.928 6.738-.477 11.565-.381 14.76-.316 3.289.066 5.1.1 5.526-.565.414-.647-.321-2.16-1.654-4.906-1.206-2.483-3.028-6.236-5.02-11.513-.571-1.512-1.084-2.848-1.539-4.034-3.628-9.451-3.562-9.512-.1-12.692 2.706-2.485 7.744-7.11 14.878-20.2 2.768-5.079 5.963-7.982 9.764-8.874 6.726-1.58 14.223 3.665 20.837 8.291 6.085 4.257 11.833 8.277 16.062 6.527 2.984-1.234 5.045-5.264 6.3-12.319 2.873-16.145 15.214-26.321 27.15-36.162 8.183-6.747 15.912-13.119 19.573-20.85 4.091-8.636 2.557-17.84-4.83-28.965-6.353-9.569-9.109-19.495-8.426-30.344.582-9.24 3.587-17.5 6-24.143 2.559-7.039 4.581-12.6 2.291-15.647-1.791-2.384-6.21-3.255-13.9-2.742-14.4.96-27.432 7.208-38.933 12.72-9.858 4.725-19.169 9.187-27.649 9.483-9.4.33-16.925-4.463-23.653-15.078-12.586-19.857-25.57-16.594-36-13.972-5.137 1.291-9.573 2.406-12.851.329-2.3-1.46-3.876-4.451-4.8-9.143-2.82-14.265 1.553-26.3 5.719-33.884a57.2 57.2 0 0 1 9.814-13.174l.222.239a56.867 56.867 0 0 0-9.755 13.1c-4.143 7.545-8.49 19.5-5.69 33.664.909 4.6 2.433 7.522 4.658 8.931 3.16 2 7.533.9 12.6-.37 5.186-1.3 11.063-2.781 17.279-1.433 7.2 1.56 13.436 6.645 19.078 15.547 6.66 10.508 14.089 15.255 23.367 14.927 8.412-.294 17.693-4.742 27.52-9.451 11.527-5.525 24.593-11.786 39.052-12.751 7.817-.521 12.323.391 14.186 2.871 2.4 3.189.348 8.822-2.246 15.954-2.407 6.62-5.4 14.859-5.982 24.052-.678 10.776 2.06 20.636 8.373 30.144 7.455 11.229 9 20.535 4.853 29.285-3.693 7.8-11.449 14.191-19.661 20.962-11.89 9.8-24.184 19.94-27.036 35.967-1.276 7.173-3.4 11.283-6.5 12.563-4.393 1.819-10.213-2.252-16.373-6.561-6.879-4.812-13.993-9.787-20.575-8.241-3.707.87-6.831 3.72-9.553 8.713-7.16 13.135-12.224 17.784-14.944 20.282-3.367 3.091-3.367 3.091.181 12.335a678.84 678.84 0 0 1 1.54 4.036c1.987 5.263 3.733 8.86 5.009 11.486 1.43 2.945 2.147 4.423 1.635 5.224-.525.821-2.182.788-5.808.715-3.188-.064-8.007-.16-14.73.316-7.083.5-10.3 1.286-11.459 2.8-.921 1.2-.587 2.933-.125 5.334 1.145 5.934 3.061 15.87-9.9 33.121z"/>
</svg>