<svg xmlns="http://www.w3.org/2000/svg" width="566" height="890" fill="#34006b" viewBox="0 0 566.2 889.7"><path d="M566.19,546.51c-7.44-1.52-15.14-3.41-22.95-5.34-21.07-5.19-42.86-10.55-63.55-9.83-21.94.77-31.07,3-31.5,7.69-.54,5.85,12.46,14.5,34,28.83,22.53,15,52.91,35.21,84,63v-1.19C535.22,602.07,505,582,482.55,567c-19.7-13.11-33.93-22.58-33.46-27.71.38-4.08,9.87-6.22,30.79-7,20.58-.72,42.31,4.63,63.34,9.81,7.81,1.92,15.52,3.82,23,5.33"/><path d="M486.36,255.49c-51.3-58.46-52.41-115.43-53.7-181.4-.49-25.23-.53-46.83-3.76-74H428c3.23,27.16,3.26,48.7,3.75,73.89,1.29,66.21,2.41,123.39,54,182.2C517,291.7,544,301.3,566.19,307.84v-1C544.18,300.33,517.32,290.78,486.36,255.49Z"/><path d="M566.19,547.66c-11.48-1.12-23.93-3.84-36.66-6.63-21-4.58-42.7-9.33-63.18-8-21.72,1.38-30.71,3.87-31,8.59-.4,5.86,12.66,14.12,34.33,27.84,24,15.18,56.83,36,90.18,65.39,2.12,1.87,4.31,4,6.37,6.07v-1.25q-2.91-2.94-5.9-5.58C526.88,604.6,494,583.78,470,568.58c-19.8-12.54-34.12-21.6-33.76-26.73.28-4.08,9.64-6.49,30.35-7.82,20.37-1.3,42,3.43,63,8,12.73,2.78,25.18,5.5,36.68,6.64Z"/><path d="M566.2,311.6c-4.59-1.51-9.43-2.78-14.5-4.11-22.78-6-51.13-13.42-84.86-50.28-52.12-57-54.48-113.84-57.23-179.72C408.5,51.08,408,28.6,403.73,0h-.89c4.27,28.51,4.76,50.94,5.87,77.32,2.75,66.12,5.13,123.22,57.55,180.52,33.95,37.1,62.46,44.58,85.36,50.59,5.15,1.35,10,2.62,14.57,4.12Z"/><path d="M566.19,319.4c-9.79-7-21-9.66-33.66-12.64-22.72-5.34-51-11.95-85.24-47.83-52.94-55.45-56.57-112.26-60.76-178-1.76-27.33-2.86-51.27-8.16-80.84h-.89c5.29,29.52,6.39,53.45,8.14,80.74,4.22,66,7.86,123,61.11,178.83,34.48,36.12,62.91,42.78,85.75,48.14,13,3.05,24.07,5.64,33.7,12.72Z"/><path d="M566.19,546.51c-14.84,1.15-32.32-2.18-50.37-5.62-20.91-4-42.54-8.1-62.8-6.21-21.5,2-30.35,4.76-30.57,9.47-.27,5.87,12.87,13.77,34.65,26.86,24.11,14.49,57.14,34.34,90.86,62.79a133,133,0,0,1,18.23,19v-1.37A133.2,133.2,0,0,0,548.41,633c-33.79-28.51-66.85-48.38-91-62.89-19.91-12-34.3-20.61-34.06-25.76.19-4.08,9.42-6.77,29.9-8.69,20.16-1.89,41.72,2.22,62.58,6.2,18,3.43,35.48,6.76,50.37,5.66"/><path d="M566.19,541.6c-16.87,6.83-40,3.08-64.09-.84-20.83-3.38-42.36-6.88-62.42-4.39-21.28,2.64-30,5.63-30.11,10.36-.13,5.88,13.08,13.41,35,25.87,24.25,13.8,57.45,32.7,91.53,60.19,10.64,8.58,20.69,20,30.08,34.15l0-1.49Q552.27,644.74,536.5,632c-34.15-27.55-67.4-46.47-91.67-60.29-20-11.4-34.48-19.63-34.36-24.78.09-4.1,9.18-7,29.45-9.55,19.95-2.47,41.43,1,62.2,4.39,24,3.9,47.07,7.64,64.07,1"/><path d="M566.19,340.54c-14-26.49-31.17-30-52.81-34.51-22.64-4.66-50.83-10.48-85.62-45.4C374,206.69,369.12,150,363.46,84.27,361,56.08,359.2,30.55,352.83,0H352c6.36,30.48,8.18,56,10.6,84.17,5.68,65.93,10.58,122.87,64.66,177.14,35,35.14,63.36,41,86.13,45.68,18.09,3.74,32.36,6.67,44.61,22.19a78.71,78.71,0,0,1,8.23,13.09Z"/><path d="M566.19,528.47l-.55.72c-15.76,19.67-45.63,15.68-77.26,11.45-20.74-2.78-42.19-5.65-62-2.58-21.05,3.26-29.64,6.53-29.64,11.24,0,5.9,13.29,13,35.29,24.88,24.37,13.11,57.75,31.07,92.19,57.58,15.08,11.62,29.16,28.87,42,51.46v-1.7C553.46,659.4,539.53,642.45,524.6,631c-34.52-26.58-67.94-44.56-92.35-57.69-20.12-10.82-34.66-18.65-34.66-23.81,0-4.1,8.94-7.32,29-10.42,19.74-3.05,41.13-.19,61.82,2.58,31.74,4.26,61.73,8.26,77.77-11.51"/><path d="M494.2,305.32c-22.57-4-50.68-9-86-42.95-54.57-52.44-60.72-109.09-67.83-174.69C337.19,58.26,334.82,31.93,327.11,0c-.29,0-.6,0-.89,0,7.7,31.83,10.09,58.19,13.28,87.59,7.14,65.84,13.31,122.71,68.21,175.44,35.55,34.16,63.81,39.18,86.51,43.22,18,3.22,32.28,5.77,44.78,20.93,10.88,13.2,19.53,35,27.2,69.16v-3.76C548,314.89,525.9,311,494.2,305.32Z"/><path d="M566.19,699.31c-16.11-31.81-34.08-55.14-53.48-69.38-34.88-25.62-68.48-42.65-93-55.08-20.23-10.26-34.85-17.66-35-22.83-.1-4.11,8.7-7.58,28.57-11.29,19.52-3.63,40.84-1.39,61.44.78,31.72,3.33,61.67,6.49,77.11-14,13.36-17.75,14.62-52.4,3.85-105.93-21.79-108.2-45.2-111.69-80.64-117-22.51-3.36-50.53-7.54-86.37-40.5-55.39-50.93-62.79-107.5-71.36-173-4-30.21-7.26-58.34-16.14-91h-.89c8.89,32.68,12.2,60.81,16.15,91,8.6,65.75,16,122.53,71.76,173.77,36.08,33.18,64.26,37.39,86.89,40.76,18,2.68,32.17,4.8,44.95,19.64,13.89,16.14,24.62,45.87,34.79,96.39,10.71,53.22,9.51,87.61-3.7,105.14-15.19,20.17-44.95,17-76.45,13.72-20.66-2.18-42-4.43-61.66-.77-20.83,3.88-29.28,7.4-29.17,12.14.14,5.91,13.49,12.68,35.62,23.89,24.5,12.42,58.06,29.43,92.87,55,19.55,14.36,37.66,38.05,53.87,70.47Z"/><path d="M566.19,718.46q-3.63-8-7.37-15.32c-17.6-34.66-37.11-59.64-58-74.24-35.25-24.65-69-40.74-93.69-52.47-20.34-9.68-35-16.68-35.27-21.86-.19-4.11,8.48-7.86,28.12-12.15,19.32-4.22,40.54-2.6,61.07-1,31.59,2.42,61.43,4.7,76.3-16.31,12.87-18.18,13.32-53,1.38-106.3C514.57,311,491.22,308.14,455.9,303.87c-22.44-2.71-50.38-6.08-86.75-38.06-56.22-49.42-64.88-105.91-74.9-171.31C289.44,63.1,285.44,34,275.05,0h-.91c10.4,34,14.41,63,19.22,94.46,10.06,65.66,18.75,122.36,75.3,172.08,36.62,32.21,64.71,35.59,87.28,38.31,17.92,2.16,32.07,3.87,45.1,18.36,14.17,15.77,25.52,45.25,36.78,95.61,11.87,53,11.47,87.54-1.25,105.51-14.63,20.67-44.27,18.4-75.64,16-20.58-1.57-41.86-3.2-61.28,1-20.61,4.5-28.92,8.28-28.7,13,.27,5.92,13.7,12.31,35.94,22.9,24.63,11.73,58.36,27.79,93.54,52.4,20.72,14.49,40.1,39.31,57.6,73.78q4.14,8.16,8.14,17Z"/><path d="M566.19,738.45q-8.65-20.51-17.9-37.83C530,666.38,510,641.9,488.92,627.86,453.31,604.18,419.35,589,394.55,578c-20.44-9.11-35.21-15.7-35.57-20.89-.29-4.12,8.25-8.14,27.68-13,19.11-4.8,40.24-3.8,60.69-2.84,31.46,1.49,61.18,2.9,75.47-18.61,12.37-18.62,12-53.52-1.09-106.67-26.49-107.44-49.77-109.57-85-112.8-22.38-2.05-50.22-4.6-87.13-35.62-57-47.92-66.95-104.33-78.43-169.65C265.45,65.37,260.66,35.22,248.7,0h-.9c12,35.17,16.77,65.33,22.49,97.87,11.52,65.55,21.48,122.18,78.86,170.39,37.15,31.21,65.16,33.79,87.66,35.85,17.87,1.64,32,2.93,45.27,17.09,14.46,15.4,26.42,44.64,38.79,94.82,13,52.84,13.43,87.48,1.2,105.87C508,543.1,478.5,541.71,447.24,540.23c-20.5-1-41.69-2-60.91,2.86C366,548.21,357.77,552.24,358.1,557c.41,5.94,13.9,11.94,36.26,21.9,24.76,11,58.67,26.16,94.22,49.8,20.93,13.92,40.77,38.25,59,72.31q9.64,18,18.64,39.62Z"/><path d="M566.19,758.71a509.24,509.24,0,0,0-28.43-60.6c-19-33.83-39.44-57.82-60.76-71.28-36-22.73-70.12-36.92-95-47.28-20.55-8.54-35.39-14.72-35.88-19.93-.39-4.14,8-8.41,27.23-13.89,18.91-5.39,40-5,60.31-4.64,31.34.55,60.93,1.1,74.65-20.91,11.88-19.06,10.72-54.07-3.56-107-28.85-107.06-52.05-108.52-87.18-110.72-22.31-1.4-50.08-3.14-87.51-33.18-57.85-46.42-69-102.76-82-168-6.66-33.57-12.38-65-26-101.24h-.91c13.6,36.25,19.34,67.7,26,101.3,13,65.47,24.2,122,82.4,168.71,37.69,30.24,65.61,32,88,33.39,17.81,1.12,31.88,2,45.43,15.82,14.75,15,27.32,44,40.79,94,14.19,52.66,15.38,87.41,3.65,106.24-13.49,21.66-42.9,21.13-74,20.57-20.41-.38-41.52-.75-60.53,4.67-20.16,5.75-28.21,10-27.77,14.8.54,5.94,14.11,11.57,36.59,20.92,24.89,10.35,59,24.52,94.89,47.2C497.82,641,518.12,664.88,537,698.53A510.42,510.42,0,0,1,566.2,761Z"/><path d="M566.19,778.55c-12.25-32-25.32-59.87-38.92-83-19.7-33.42-40.61-56.91-62.14-69.8-36.37-21.76-70.66-35-95.71-44.68-20.66-8-35.58-13.74-36.17-18.94-.47-4.14,7.78-8.7,26.79-14.76,18.69-6,39.66-6.21,59.94-6.45,31.21-.36,60.69-.7,73.83-23.21,11.38-19.49,9.41-54.63-6-107.41-31.21-106.68-54.34-107.46-89.36-108.63C376.18,301,348.49,300,310.52,271c-58.67-44.91-71.1-101.16-85.49-166.29C217.43,70.29,210.46,37.08,195.37,0c-.3,0-.62,0-.92,0,15.13,37,22.11,70.31,29.72,104.73,14.45,65.38,26.92,121.84,85.95,167,38.22,29.26,66.06,30.19,88.43,30.93,17.76.59,31.79,1.06,45.6,14.54,15,14.66,28.22,43.42,42.79,93.24,15.35,52.48,17.35,87.34,6.09,106.6-12.94,22.16-42.22,22.5-73.23,22.86-20.33.24-41.36.48-60.15,6.48-19.94,6.37-27.85,10.91-27.3,15.69.68,5.95,14.31,11.21,36.9,19.94,25,9.66,59.28,22.89,95.56,44.6,21.36,12.79,42.13,36.13,61.72,69.37,13.88,23.55,27.2,52.09,39.68,85Z"/><path d="M566.19,797.79q-1.34-3.61-2.71-7.21c-14.71-38.32-30.43-71.12-46.73-97.49-20.4-33-41.77-56-63.52-68.32-36.72-20.8-71.2-33.1-96.39-42.07-20.76-7.4-35.76-12.75-36.47-18-.57-4.14,7.56-9,26.35-15.63,18.48-6.56,39.36-7.42,59.56-8.25,31.08-1.29,60.44-2.5,73-25.52,10.89-19.93,8.12-55.18-8.49-107.78C437.23,301.23,414.17,301.14,379.26,301c-22.18-.09-49.78-.2-88.27-28.29-59.49-43.4-73.18-99.58-89-164.62C193.4,73,185,37.69,168.38,0h-.93c16.63,37.67,25.08,73,33.65,108.15,15.9,65.27,29.65,121.67,89.49,165.32,38.75,28.28,66.51,28.39,88.81,28.48,17.71.07,31.69.13,45.76,13.27,15.3,14.29,29.12,42.81,44.79,92.45,16.51,52.3,19.32,87.27,8.55,107-12.38,22.65-41.54,23.86-72.41,25.14-20.25.84-41.19,1.7-59.77,8.29-19.71,7-27.49,11.79-26.84,16.58.82,6,14.52,10.85,37.23,18.94,25.15,9,59.59,21.25,96.23,42,21.58,12.22,42.81,35.07,63.1,67.9,16.25,26.3,31.94,59,46.62,97.27q1.79,4.71,3.53,9.43Z"/><path d="M566.19,815.93q-5.34-14.4-11.11-28.68c-15.55-38.11-32-70.64-48.84-96.68-21.1-32.6-42.93-55.09-64.91-66.84-37.09-19.83-71.75-31.18-97.06-39.47-20.87-6.83-35.95-11.77-36.78-17-.66-4.15,7.33-9.24,25.9-16.49,18.28-7.14,39.07-8.62,59.18-10.06,31-2.21,60.2-4.3,72.2-27.82,10.39-20.37,6.82-55.75-11-108.16-35.92-105.93-58.91-105.34-93.72-104.45-22.11.56-49.63,1.26-88.65-25.85-60.31-41.9-75.25-98-92.56-162.94C169.19,75.13,159.79,38.91,141.13,0h-.94c18.72,38.9,28.13,75.17,37.82,111.58,17.36,65.2,32.37,121.49,93,163.65,39.29,27.29,67,26.58,89.19,26,17.64-.44,31.6-.81,45.93,12,15.59,13.92,30,42.2,46.79,91.66,17.67,52.1,21.27,87.21,11,107.33-11.81,23.15-40.85,25.23-71.61,27.42-20.17,1.44-41,2.93-59.39,10.11-19.49,7.61-27.13,12.67-26.37,17.47.95,6,14.73,10.48,37.55,18,25.28,8.28,59.89,19.61,96.91,39.41,21.8,11.65,43.49,34,64.47,66.43,16.81,26,33.22,58.42,48.73,96.46q6.22,15.38,11.93,30.91Z"/><path d="M566.19,832.77q-9.14-24.63-19.52-48.85c-16.39-37.89-33.54-70.15-51-95.86-21.8-32.19-44.1-54.18-66.29-65.36-37.45-18.87-72.29-29.27-97.74-36.87-21-6.26-36.13-10.79-37.08-16-.76-4.16,7.1-9.51,25.46-17.37,18.07-7.72,38.78-9.83,58.81-11.87,19.52-2,38.35-3.9,52.44-11.14a40.56,40.56,0,0,0,18.94-19c9.9-20.81,5.51-56.31-13.43-108.53-38.27-105.55-61.2-104.3-95.9-102.37-22,1.22-49.48,2.73-89-23.39-61.13-40.39-77.33-96.41-96.09-161.27C145,77.41,134.39,40,113.65,0h-1C133.5,40,144.11,77.51,155,115.06c18.83,65.1,35.09,121.32,96.59,162,39.82,26.31,67.41,24.79,89.57,23.57,17.6-1,31.5-1.74,46.08,10.71,15.87,13.56,30.92,41.58,48.79,90.88,18.83,51.92,23.22,87.15,13.45,107.7a39.87,39.87,0,0,1-18.62,18.64c-14,7.18-32.74,9.09-52.18,11.06-20.08,2-40.85,4.15-59,11.92-19.27,8.24-26.77,13.55-25.9,18.36,1.08,6,14.93,10.11,37.87,17,25.4,7.58,60.2,18,97.58,36.81,22,11.09,44.16,32.95,65.85,65,17.37,25.65,34.47,57.83,50.84,95.64q10.83,25.28,20.32,51Z"/><path d="M566.19,848.27Q553.42,814,538.27,780.59c-17.23-37.68-35.09-69.66-53.06-95-22.5-31.78-45.27-53.27-67.67-63.87-37.82-17.91-72.84-27.36-98.41-34.27-21.09-5.69-36.32-9.81-37.39-15.05-.85-4.17,6.87-9.79,25-18.23,17.86-8.31,38.48-11,58.43-13.67,30.7-4.06,59.7-7.9,70.56-32.43,9.4-21.24,4.21-56.86-15.9-108.9C379.23,294,356.37,295.9,321.79,298.85c-22,1.88-49.33,4.2-89.41-21C170.43,239,153,183.06,132.75,118.29,120.77,79.9,108.61,40.7,85.93,0H85c22.76,40.68,35,80,47,118.44,20.29,65,37.82,121.15,100.14,160.27,40.35,25.33,67.86,23,90,21.11,17.55-1.49,31.4-2.68,46.26,9.45,16.15,13.19,31.82,41,50.79,90.09,20,51.73,25.18,87.08,15.9,108.07-10.69,24.15-39.5,28-70,32-20,2.65-40.68,5.38-58.64,13.73-19,8.86-26.41,14.43-25.43,19.24,1.22,6,15.14,9.75,38.19,16,25.53,6.9,60.5,16.33,98.25,34.21,22.23,10.52,44.85,31.89,67.23,63.49,17.93,25.32,35.74,57.23,52.95,94.84q15.61,34.43,28.7,69.78Z"/><path d="M566.19,862.47q-16.26-43.29-36.31-85.22c-18.07-37.47-36.64-69.17-55.18-94.23-23.2-31.37-46.43-52.36-69.05-62.39-38.18-16.94-73.38-25.45-99.08-31.67-21.19-5.12-36.5-8.83-37.7-14.08-.94-4.18,6.64-10.07,24.57-19.1,17.65-8.89,38.19-12.24,58.06-15.48,30.57-5,59.46-9.69,69.74-34.72,8.9-21.68,2.9-57.42-18.38-109.27-43-104.79-65.77-102.17-100.26-98.19-21.91,2.53-49.18,5.67-89.79-18.53-62.77-37.38-81.48-93.24-103.16-157.92C96.38,82,83.06,41.78,57.92,0h-1c25.12,41.68,38.62,82.2,51.9,121.84,21.75,64.91,40.54,121,103.68,158.58,40.89,24.35,68.3,21.19,90.34,18.65,17.49-2,31.31-3.61,46.42,8.17,16.44,12.82,32.73,40.35,52.79,89.3,21.14,51.55,27.14,87,18.34,108.44-10.12,24.64-38.81,29.33-69.19,34.27-19.92,3.25-40.51,6.61-58.26,15.54-18.82,9.48-26.05,15.31-25,20.12,1.36,6,15.34,9.38,38.52,15,25.66,6.2,60.81,14.7,98.92,31.61,22.44,10,45.52,30.82,68.6,62,18.49,25,37,56.61,55,94q20.52,42.9,37.11,87.35Z"/><path d="M566.19,875.46a1075.6,1075.6,0,0,0-44.73-101.54c-18.92-37.26-38.19-68.68-57.29-93.41-23.9-31-47.6-51.45-70.44-60.91-38.55-16-73.93-23.55-99.75-29.06-21.3-4.55-36.69-7.84-38-13.11-1-4.17,6.41-10.35,24.13-20C297.56,548,318,544,337.8,540.15c30.45-5.91,59.21-11.49,68.92-37,8.41-22.11,1.59-58-20.84-109.64-45.34-104.42-68.05-101.11-102.43-96.1-21.84,3.18-49,7.14-90.17-16.08-63.59-35.88-83.56-91.66-106.69-156.24C72,84.45,57,42.51,29.64,0c-.06-.1,0,0,0,0h-1C56.12,42.56,71.18,84.59,85.76,125.31,109,190.13,129,246.11,193,282.21c41.42,23.37,68.75,19.39,90.72,16.19,17.45-2.54,31.21-4.55,46.59,6.9C347,317.75,363.92,345,385.1,393.81c22.3,51.37,29.11,87,20.79,108.8-9.56,25.14-38.13,30.68-68.38,36.55-19.83,3.85-40.35,7.83-57.89,17.36-18.6,10.1-25.69,16.19-24.5,21,1.49,6,15.55,9,38.83,14,25.79,5.51,61.12,13.06,99.59,29,22.66,9.39,46.2,29.76,70,60.55,19,24.66,38.28,56,57.15,93.2a1074,1074,0,0,1,45.52,103.65Z"/><path d="M1,0c30,43.39,46.51,86.62,62.47,128.47C88.09,193,109.33,248.7,173.73,283.07c41.68,22.24,68.79,17.47,90.56,13.64,34.27-6,56.92-10,104.61,94,23.6,51.47,31.22,87.46,23.3,110-9.14,26-37.78,32.49-68.1,39.33-19.69,4.43-40.06,9-57.29,19.08C249.29,569.36,242,575.79,243.12,580c1.43,5.27,16.89,8.15,38.3,12.13,26,4.83,61.5,11.45,100.42,26.46,23.06,8.89,47.22,28.89,71.82,59.43,19.66,24.4,39.64,55.56,59.4,92.6a1080.86,1080.86,0,0,1,53.13,116.64v2.45A1081.74,1081.74,0,0,0,512.29,771C492.57,734,472.63,703,453,678.63c-24.47-30.38-48.47-50.26-71.35-59.09-38.85-15-74.36-21.58-100.28-26.4-23.4-4.36-37.53-7-39.15-13-1.31-4.83,5.65-11.18,24-21.9,17.32-10.12,37.74-14.72,57.5-19.17,30.12-6.79,58.57-13.21,67.57-38.84,7.83-22.29.23-58-23.23-109.18-22.28-48.59-39.8-75.64-56.8-87.72-15.64-11.11-29.37-8.69-46.75-5.63-21.9,3.86-49.14,8.65-91.1-13.73-64.79-34.58-86.1-90.48-110.78-155.21C46.7,86.82,30.18,43.47,0,0"/></svg>