<svg xmlns="http://www.w3.org/2000/svg" width="407" height="640" fill="#34006b" viewBox="0 0 407.47 640.56"><path d="M214.68,129.3c11.87-17.67,21.25-31.63,16.5-41.7-3.69-7.82-15.82-13-38.19-16.37C151.58,65,110.72,74,74.66,81.86c-25.78,5.64-50.36,11-71.73,10v.92c21.48,1,46.1-4.42,71.92-10.07,36-7.87,76.74-16.79,118-10.61,22,3.3,33.93,8.34,37.47,15.85,4.54,9.62-4.72,23.4-16.44,40.84-11,16.44-24.8,36.91-32.33,61.49-8.85,28.86-7.4,57.32,4.42,87,13.75,34.51,12.2,60.28-4.85,81.09C165.84,377,140,389.52,112.57,402.75,72.62,422,31.3,442,12.9,483.79a95.1,95.1,0,0,1-9.78,17.68V503a92,92,0,0,0,10.67-18.9c18.27-41.51,59.43-61.37,99.23-80.58,27.49-13.27,53.45-25.8,68.85-44.58,17.28-21.09,18.86-47.14,5-82-11.73-29.49-13.17-57.77-4.38-86.43C190,166.11,203.68,145.7,214.68,129.3Z"/><path d="M225.68,127.51c11.67-17.78,20.88-31.82,16-41.83-3.77-7.77-16-12.85-38.34-16-41.44-5.79-82.17,3.55-118.1,11.79C55.14,88.4,26.66,94.92,2.94,91.24v.92c23.87,3.66,52.39-2.87,82.55-9.78C121.33,74.15,162,64.83,203.22,70.6c22,3.08,34,8,37.61,15.46,4.64,9.56-4.46,23.42-16,41-10.85,16.54-24.36,37.13-31.62,61.76-8.52,28.92-6.76,57.34,5.39,86.89,14.12,34.36,12.86,60.11-3.94,81.07-15,18.76-40.75,31.5-68,45C87,421.39,46,441.72,28,483.68c-7.72,18.11-15.88,27.76-24.92,29.55v.93C12.59,512.4,21,502.55,28.94,484c17.79-41.66,58.69-61.91,98.24-81.5,27.32-13.53,53.11-26.31,68.28-45.23,17-21.24,18.31-47.28,4.06-82C187.46,246,185.71,217.75,194.17,189,201.39,164.53,214.86,144,225.68,127.51Z"/><path d="M236.71,125.72c11.46-17.88,20.52-32,15.55-42C248.4,76,236.17,71.08,213.77,68.18c-41.48-5.37-82.06,4.36-117.87,13C65.38,88.45,36.54,95.37,12.58,91.52a71.54,71.54,0,0,1-9.64-2.23v.94a72.74,72.74,0,0,0,9.48,2.16c24.18,3.9,53.09-3.06,83.71-10.4,35.72-8.57,76.22-18.28,117.51-12.93,22.06,2.86,34.05,7.65,37.76,15.08,4.74,9.51-4.2,23.45-15.5,41.09-10.66,16.64-23.93,37.34-30.9,62-8.19,29-6.11,57.37,6.35,86.77,14.49,34.18,13.52,59.93-3,81C193.49,374,167.95,387,140.9,400.7c-39.45,20-80.24,40.77-97.68,82.88-7.63,18.43-15.8,28.2-25,29.87-4.91.89-9.95-.56-15.12-3.52V511c5.2,2.89,10.3,4.29,15.32,3.37,9.51-1.73,17.91-11.68,25.67-30.42,17.31-41.8,57.95-62.45,97.25-82.41,27.14-13.79,52.78-26.82,67.72-45.88,16.77-21.39,17.77-47.43,3.15-81.93-12.38-29.22-14.45-57.41-6.31-86.2C212.85,162.95,226.08,142.31,236.71,125.72Z"/><path d="M247.7,123.94c11.25-18,20.13-32.18,15.07-42.08-3.93-7.69-16.21-12.52-38.63-15.2-41.5-4.95-81.95,5.18-117.63,14.12C76.08,88.4,47.35,95.59,23.35,92a66.23,66.23,0,0,1-20.41-6.4v1a67.41,67.41,0,0,0,20.27,6.27c24.19,3.63,53-3.59,83.53-11.23,35.6-8.92,75.95-19,117.28-14.09,22.07,2.64,34.12,7.31,37.9,14.7,4.84,9.46-3.93,23.48-15,41.22-10.47,16.73-23.49,37.56-30.18,62.3-7.86,29-5.46,57.4,7.32,86.66,14.85,34,14.18,59.77-2.12,81-14.6,19-40,32.26-66.85,46.27-39.19,20.42-79.72,41.54-96.68,83.8C51,502,42.9,511.85,33.76,513.62c-9.63,1.85-19.88-5.36-30.64-15.24v1.26c10.71,9.74,21,16.77,30.83,14.87,9.49-1.84,17.76-11.85,25.31-30.66,16.83-41.95,57.2-63,96.25-83.33,27-14.05,52.44-27.32,67.16-46.52,16.52-21.55,17.23-47.59,2.23-81.92-12.7-29.07-15.08-57.24-7.28-86.08C224.28,161.38,237.26,140.62,247.7,123.94Z"/><path d="M258.69,122.14c11-18.08,19.76-32.36,14.59-42.21-4-7.65-16.34-12.36-38.78-14.81-41.53-4.54-81.84,6-117.4,15.28-30.32,7.92-58.94,15.4-83,12a63.4,63.4,0,0,1-31.18-13v1.18A64.47,64.47,0,0,0,34,93.32C58.23,96.72,87,89.21,117.36,81.27,152.84,72,193,61.49,234.41,66c22.09,2.42,34.17,7,38,14.31,4.94,9.41-3.66,23.51-14.56,41.35-10.28,16.83-23.06,37.77-29.47,62.57-7.53,29.11-4.82,57.42,8.29,86.54,15.23,33.85,14.85,59.6-1.22,81C221.11,371,195.9,384.46,169.2,398.72,130.25,419.52,90,441,73.52,483.44,66.31,502,58.37,511.91,49.25,513.77c-12.9,2.62-27.12-11.12-42.19-25.68l-4-3.82v1.29l3.28,3.17C21.64,503.48,36,517.38,49.44,514.65c9.46-1.92,17.62-12,24.94-30.89,16.35-42.09,56.46-63.52,95.26-84.25,26.79-14.33,52.1-27.85,66.6-47.18,16.27-21.7,16.69-47.72,1.31-81.9-13-28.93-15.71-57.06-8.24-86C235.7,159.8,248.45,138.91,258.69,122.14Z"/><path d="M269.71,120.35C280.54,102.16,289.08,87.8,283.81,78c-4.1-7.61-16.46-12.19-38.92-14.42C203.33,59.47,163.16,70.4,127.72,80,97.51,88.26,69,96,44.92,92.89,28,90.69,14.29,83.26,3,70v1.43C14.3,84.34,28,91.6,44.8,93.78,69,96.93,97.67,89.14,128,80.9c35.36-9.62,75.44-20.52,116.82-16.41C266.9,66.68,279,71.1,283,78.41c5.06,9.36-3.39,23.53-14.07,41.48-10.08,16.93-22.62,38-28.75,62.84-7.2,29.18-4.17,57.45,9.25,86.43,15.6,33.69,15.51,59.43-.31,81-14.14,19.31-39.21,33-65.73,47.55-38.69,21.18-78.69,43.09-94.68,85.64C81.67,502,73.84,512,64.76,513.91c-12.86,2.76-27.24-10.86-42.46-25.25C16.18,482.87,9.76,476.8,3.09,471.5v1.11c6.29,5.08,12.46,10.92,18.56,16.69,13.65,12.92,26.63,25.2,38.71,25.84a17.49,17.49,0,0,0,4.62-.35c9.43-2,17.47-12.19,24.58-31.12,15.87-42.24,55.73-64.07,94.27-85.17,26.63-14.58,51.76-28.34,66-47.81,16-21.86,16.14-47.87.39-81.88-13.33-28.79-16.34-56.87-9.19-85.85C247.14,158.23,259.66,137.22,269.71,120.35Z"/><path d="M280.72,118.54c10.62-18.28,19-32.73,13.62-42.46-4.18-7.56-16.59-12-39.07-14-41.6-3.7-81.63,7.63-116.94,17.62-30.1,8.52-58.56,16.56-82.62,13.68C33.29,90.66,16.27,78.71,3,56.09v1.84c13.32,22,30.33,33.65,52.61,36.32,24.26,2.91,52.8-5.16,83-13.71,35.24-10,75.15-21.27,116.58-17.58,22.12,2,34.3,6.28,38.32,13.55,5.14,9.3-3.14,23.56-13.62,41.61-9.89,17-22.19,38.2-28,63.11-6.87,29.24-3.53,57.47,10.21,86.31,16,33.52,16.17,59.26.6,81-13.93,19.44-38.82,33.41-65.17,48.19C159,418.27,119.3,440.58,103.8,483.27,97,501.95,89.32,512,80.25,514.06c-12.83,2.89-27.35-10.57-42.73-24.81-10.69-9.9-22.29-20.64-34.45-26.75v.91c11.65,6,22.84,16.32,33.81,26.47,15.57,14.41,30.27,28,43.6,25,9.4-2.11,17.33-12.37,24.22-31.36,15.38-42.39,55-64.6,93.27-86.09,26.44-14.84,51.42-28.85,65.47-48.46,15.77-22,15.6-48-.52-81.86-13.65-28.65-17-56.7-10.15-85.74C258.6,156.63,270.87,135.51,280.72,118.54Z"/><path d="M291.75,116.77c10.41-18.39,18.63-32.92,13.14-42.6-4.28-7.52-16.74-11.86-39.23-13.64C224,57.25,184.14,69,148.95,79.31c-30,8.82-58.36,17.15-82.44,14.5C39.92,90.89,20.77,74.92,6.22,43.54Q4.65,40.13,3,37v2c.8,1.59,1.6,3.23,2.38,4.92,14.68,31.72,34.08,47.85,61,50.81,24.29,2.66,52.73-5.69,82.82-14.53,35.13-10.32,74.91-22,116.35-18.74,22.14,1.76,34.36,5.94,38.46,13.16,5.24,9.25-2.87,23.58-13.15,41.73-9.69,17.12-21.75,38.42-27.32,63.38-6.54,29.31-2.88,57.5,11.18,86.2,16.35,33.36,16.83,59.09,1.51,81-13.71,19.58-38.44,33.79-64.61,48.83C173.49,417.63,134,440.33,119,483.18c-6.57,18.74-14.16,28.89-23.2,31-12.8,3-27.47-10.3-43-24.38-15.14-13.73-32.08-29.09-49.72-31v.89c17.16,1.83,33.37,16.52,49.1,30.79S82.73,518.21,96,515.07c9.37-2.21,17.18-12.56,23.86-31.6,14.91-42.54,54.24-65.14,92.28-87,26.27-15.1,51.08-29.36,64.91-49.1,15.52-22.15,15.06-48.16-1.44-81.84C261.66,237,258,209,264.52,179.9,270.06,155.08,282.08,133.84,291.75,116.77Z"/><path d="M302.73,115c10.2-18.49,18.26-33.1,12.66-42.72C311,64.78,298.53,60.57,276,59c-41.64-2.87-81.4,9.24-116.48,19.94-29.9,9.12-58.13,17.73-82.26,15.32C50.68,91.62,31.34,75.83,16.46,44.6A135.76,135.76,0,0,0,3,21.86v1.54A137.72,137.72,0,0,1,15.61,45c15,31.56,34.62,47.51,61.61,50.2,24.34,2.43,52.65-6.21,82.64-15.36,35-10.67,74.6-22.76,116.12-19.9,22.16,1.53,34.42,5.59,38.6,12.78,5.35,9.19-2.61,23.61-12.68,41.86-9.5,17.21-21.32,38.63-26.6,63.65-6.21,29.37-2.23,57.53,12.15,86.08,16.72,33.2,17.49,58.92,2.42,80.94-13.49,19.71-38.05,34.17-64.05,49.48-37.93,22.32-77.15,45.41-91.69,88.41-6.36,18.81-13.83,29-22.84,31.25-12.76,3.15-27.58-10-43.27-24C51,475.28,31.67,458.11,11.85,459.83a32.69,32.69,0,0,0-8.78,2v1a31.85,31.85,0,0,1,8.84-2.09C31.3,459,49.64,475.3,67.38,491.05c13.85,12.3,27,24,39,24.64a17.63,17.63,0,0,0,5.18-.47c9.35-2.31,17-12.72,23.5-31.84,14.43-42.67,53.5-65.68,91.29-87.92,26.1-15.36,50.75-29.87,64.35-49.75,15.27-22.31,14.52-48.32-2.36-81.82-14.29-28.37-18.24-56.34-12.07-85.51C281.47,153.5,293.26,132.14,302.73,115Z"/><path d="M287.94,176.84c5-24.94,16.52-46.43,25.8-63.67,10-18.59,17.89-33.28,12.18-42.85-4.43-7.44-17-11.52-39.51-12.85C244.78,55,205.12,67.53,170.16,78.57,140.38,88,112.25,96.89,88.08,94.72c-26.63-2.39-46.14-18-61.38-49.07C19.75,31.48,11.9,20.27,3,11.88v1.23c8,7.78,15.71,18.43,22.83,32.95C41.24,77.46,61,93.22,88,95.64c24.34,2.18,52.58-6.74,82.46-16.19C205.34,68.44,244.9,56,286.37,58.4c22.18,1.31,34.49,5.24,38.75,12.4,5.45,9.14-2.34,23.64-12.21,42C303.6,130.09,292,151.64,287,176.7c-5.89,29.43-1.59,57.55,13.11,86,17.09,33,18.15,58.75,3.33,80.92C290.2,363.44,265.8,378.14,240,393.71c-37.68,22.71-76.64,46.18-90.69,89.33-6.14,18.86-13.5,29.16-22.48,31.47-12.72,3.28-27.69-9.74-43.53-23.52C66,476,46.53,459,26.74,461c-8.37.81-16.17,4.82-23.65,12.18v1.3c7.53-7.64,15.36-11.8,23.75-12.61,19.37-1.89,37.89,14.22,55.8,29.8,16,14,31.2,27.13,44.41,23.73,9.31-2.4,16.88-12.89,23.13-32.07,13.95-42.83,52.76-66.22,90.29-88.84,25.91-15.62,50.39-30.38,63.77-50.4,15-22.47,14-48.46-3.28-81.81C286.36,234,282.1,206.08,287.94,176.84Z"/><path d="M299.67,175.35c4.7-25,16-46.59,25.09-63.94,9.79-18.69,17.51-33.46,11.7-43C331.94,61,319.38,57.09,296.8,56c-41.71-2.06-81.18,10.87-116,22.27-29.7,9.71-57.71,18.89-81.91,17C72.21,93.07,52.52,77.67,36.93,46.73,27.33,27.66,16.14,14,3,5.47v1c11.62,7.76,22.85,20.42,33,40.64,15.75,31.26,35.68,46.82,62.72,49,.7.06,1.4.1,2.11.14,23.88,1.27,51.25-7.69,80.18-17.15,34.75-11.37,74.13-24.26,115.66-22.22l.92,0c21.61,1.15,33.68,5,38,12,5.55,9.09-2.07,23.67-11.73,42.12-9.11,17.41-20.45,39.06-25.17,64.19-5.55,29.5-.94,57.58,14.08,85.85,17.46,32.86,18.81,58.57,4.24,80.9-13,20-37.26,34.95-62.92,50.77-37.42,23.09-76.12,47-89.69,90.25-5.93,18.93-13.17,29.3-22.13,31.7-12.69,3.41-27.8-9.46-43.8-23.09-17.39-14.81-37.1-31.6-56.87-29.47-11.19,1.2-21.3,8.12-30.92,21.14-2.64,3.57-5.16,6.87-7.6,10v1.5c2.67-3.35,5.45-7,8.36-10.9C20.92,471,30.82,464.17,41.73,463c19.35-2.09,38.06,13.85,56.14,29.25,16.2,13.8,31.51,26.83,44.69,23.29,9.29-2.49,16.74-13.06,22.77-32.31,13.48-43,52-66.77,89.31-89.76,25.74-15.9,50.07-30.89,63.22-51,14.76-22.62,13.44-48.61-4.2-81.79C298.74,232.54,294.16,204.64,299.67,175.35Z"/><path d="M311.38,173.82c4.42-25,15.48-46.76,24.37-64.21C345.33,90.8,352.89,76,347,66.5c-4.6-7.35-17.23-11.19-39.8-12.07C265.43,52.8,226.1,66.12,191.39,77.86c-29.58,10-57.51,19.46-81.72,17.79C83,93.79,63.1,78.58,47.16,47.79,35,24.29,20.52,9.15,3,1.69v.91C18.14,9.14,33,22.5,46.32,48.21c16.1,31.11,36.21,46.48,63.28,48.36l1.3.07c24.1,1.28,51.66-8.06,80.8-18,34.63-11.72,73.87-25,115.43-23.38,22.23.87,34.61,4.56,39,11.63,5.66,9-1.81,23.69-11.26,42.25-8.93,17.5-20,39.28-24.45,64.46-5.22,29.56-.3,57.61,15,85.74,17.84,32.7,19.47,58.4,5.15,80.88-12.82,20.12-36.89,35.32-62.38,51.41-37.17,23.48-75.61,47.74-88.69,91.18-5.72,19-12.84,29.44-21.77,31.93-12.66,3.54-27.91-9.19-44.07-22.66-17.56-14.64-37.47-31.24-57.22-28.91-11.17,1.32-21.21,8.34-30.67,21.46a298.57,298.57,0,0,1-22.7,28.13v1.38a296.28,296.28,0,0,0,23.48-29c9.3-12.9,19.13-19.8,30-21.08,19.33-2.28,38.22,13.47,56.48,28.7,16.36,13.64,31.8,26.52,45,22.85,9.26-2.59,16.6-13.23,22.41-32.54,13-43.12,51.28-67.3,88.3-90.67,25.57-16.15,49.73-31.39,62.66-51.69C346,318,344.33,292,326.33,259,311.09,231,306.2,203.18,311.38,173.82Z"/><path d="M323.1,172.29c4.14-25.1,15-46.93,23.66-64.48,9.37-18.9,16.77-33.83,10.75-43.24-4.68-7.31-17.4-11-40-11.68-41.77-1.21-81,12.5-115.55,24.59C172.73,87.73,145.07,97.41,121,96.13l-.5,0C93.72,94.51,73.68,79.49,57.4,48.85,43.59,22.88,27,7.24,6.82,1,5.56.64,4.3.31,3,0V.86c18.44,4.55,37,17.37,53.53,48.39S93.31,95.38,120.41,97l.5,0c24.3,1.29,52.06-8.4,81.43-18.68,34.5-12.07,73.61-25.75,115.2-24.54,22.22.64,34.67,4.22,39.17,11.24,5.74,9-1.55,23.73-10.8,42.39-8.72,17.6-19.58,39.5-23.74,64.73-4.89,29.63.35,57.62,16,85.62,18.21,32.54,20.13,58.23,6.06,80.87-12.6,20.26-36.5,35.7-61.81,52-36.93,23.84-75.1,48.5-87.7,92.09-5.51,19.05-12.51,29.59-21.42,32.16-12.61,3.67-28-8.91-44.34-22.23-17.73-14.48-37.82-30.88-57.56-28.35C60.25,465.8,50.29,472.92,41,486.14,24.62,509.32,12.13,522,3.15,529.62v1.19c9.06-7.63,21.8-20.39,38.59-44.18,9.17-13,18.92-20,29.8-21.39,19.32-2.47,38.38,13.09,56.83,28.14,16.52,13.48,32.12,26.22,45.23,22.41,9.24-2.69,16.45-13.4,22-32.78,12.51-43.27,50.54-67.83,87.31-91.59,25.4-16.41,49.39-31.9,62.09-52.33,14.26-22.93,12.34-48.9-6-81.75C323.46,229.53,318.25,201.71,323.1,172.29Z"/><path d="M4.3,617c3.09,7.9,4.79,12.25,3.43,13.92-.65.8-2.13,1.09-4.46,1.08v.91c2.71,0,4.33-.38,5.2-1.45,1.69-2.05,0-6.31-3.29-14.79q-.9-2.31-1.93-5v2.61Z"/><path d="M5.75,574.56c1,3.37,2.18,7.17,3.46,11.47A347.58,347.58,0,0,0,20.89,618.9c3.17,7.87,4.92,12.21,3.58,13.89s-6.58,1.2-16,.23l-5.18-.52v.92l5.09.51c10.41,1.06,15.16,1.54,16.87-.58s0-6.32-3.45-14.76a341.87,341.87,0,0,1-11.65-32.8c-1.28-4.3-2.44-8.09-3.46-11.47-1.41-4.64-2.57-8.44-3.46-11.63v3.36C3.92,568.55,4.77,571.36,5.75,574.56Z"/><path d="M3.19,566.05v-3.36c-2.92-10.35-3.08-14.06,0-17.48v-1.37C-1.17,548-.95,551.91,3.19,566.05Z"/><path d="M334.83,170.78c3.86-25.15,14.44-47.1,22.94-64.74,9.16-19,16.39-34,10.27-43.36-4.77-7.26-17.54-10.85-40.1-11.28-41.81-.81-80.86,13.3-115.32,25.75-29.37,10.61-57.12,20.63-81.37,19.43l-.29,0c-26.62-1.41-46.75-16.24-63.33-46.64C53.54,24.08,36.81,8.59,16.5,2.58A72,72,0,0,0,3,0V.86C24.58,2.94,47,14,66.79,50.34,83.54,81,103.92,96,130.91,97.46l.29,0C155.65,98.68,183.48,88.63,213,78c34.38-12.42,73.35-26.5,115-25.7,22.24.43,34.73,3.88,39.31,10.86,5.86,8.93-1.28,23.75-10.32,42.5-8.53,17.69-19.14,39.7-23,65-4.55,29.69,1,57.66,17,85.5,18.58,32.37,20.79,58.06,7,80.85-12.38,20.4-36.12,36.08-61.25,52.69-36.66,24.23-74.58,49.28-86.69,93-5.3,19.12-12.19,29.71-21.06,32.39-12.58,3.8-28.14-8.64-44.61-21.8C126.31,479,106,462.77,86.3,465.5c-11.16,1.54-21,8.77-30.21,22.09-23.64,34.31-39.22,45.83-47.6,52a56.65,56.65,0,0,0-5.33,4.24v1.37a40.58,40.58,0,0,1,5.91-4.88c8.42-6.22,24.09-17.8,47.81-52.24,9-13.08,18.69-20.19,29.56-21.69,19.29-2.67,38.56,12.71,57.17,27.59,14.13,11.29,27.6,22.05,39.33,22.67a17.91,17.91,0,0,0,6.17-.71c9.21-2.78,16.31-13.58,21.69-33,12-43.41,49.79-68.37,86.32-92.5,25.22-16.67,49-32.43,61.53-53,14-23.08,11.8-49.06-6.95-81.73C335.83,228.05,330.31,200.27,334.83,170.78Z"/><path d="M364.37,254.07c-16.19-27.53-22-55.27-17.83-84.82,3.58-25.21,13.92-47.28,22.23-65,9-19.11,16-34.2,9.79-43.49-4.85-7.23-17.64-10.69-40.25-10.9C296.49,49.46,257.57,64,223.23,76.77,194,87.68,166.3,98,142,97,115.28,96,94.86,81.33,77.87,51c-14.39-25.71-31.3-41-51.69-46.85A77.93,77.93,0,0,0,3,1.37v.87c24.4-.56,50.77,7.6,74,49.15C94,81.66,114.31,96.45,140.94,97.87l1.07.06c24.47,1,52.21-9.37,81.57-20.32,34.26-12.77,73.09-27.24,114.74-26.86,22.26.2,34.8,3.53,39.46,10.48,6,8.88-1,23.77-9.85,42.63-8.33,17.78-18.71,39.93-22.3,65.27-4.22,29.75,1.64,57.68,17.94,85.39,18.94,32.21,21.44,57.89,7.87,80.83-12.15,20.53-35.73,36.46-60.69,53.33-36.41,24.61-74.06,50-85.69,93.93-5.08,19.18-11.86,29.85-20.71,32.62-12.54,3.93-28.25-8.36-44.88-21.37-18.07-14.14-38.56-30.17-58.25-27.23-11.14,1.66-20.94,9-30,22.4-23.26,34.56-38.73,46.25-47,52.53-10.64,8-10.84,8.19-2.36,35,1.06,3.36,2.26,7.15,3.59,11.44a346.43,346.43,0,0,0,12.06,32.79c3.27,7.85,5.07,12.17,3.74,13.87s-6.57,1.27-16,.4c-5.53-.51-12.78-1.18-21.92-1.65v.89c9.1.47,16.33,1.14,21.84,1.65,10.43,1,15.18,1.4,16.87-.75s-.12-6.32-3.62-14.74a343.14,343.14,0,0,1-12-32.7c-1.33-4.29-2.53-8.08-3.59-11.44-8.29-26.22-8.29-26.22,2-34C33.13,536,48.68,524.21,72,489.52c8.88-13.19,18.47-20.38,29.33-22,19.29-2.87,38.71,12.33,57.51,27,16.83,13.17,32.73,25.6,45.76,21.53,9.18-2.87,16.16-13.75,21.32-33.25,11.55-43.58,49.05-68.91,85.33-93.42,25.05-16.93,48.71-32.92,61-53.62C386,312.55,383.49,286.58,364.37,254.07Z"/><path d="M377.07,252.43c-16.51-27.38-22.66-55.09-18.79-84.7,3.3-25.26,13.4-47.46,21.52-65.29,8.75-19.21,15.65-34.38,9.31-43.62-4.93-7.19-17.76-10.52-40.39-10.51-41.85,0-80.64,14.94-114.85,28.08-29.18,11.21-56.73,21.8-81,21.08-26.77-.8-47.39-15.23-64.72-45.44C73.42,26.45,56.33,11.28,35.86,5.67,24.59,2.57,13.52,2.68,3,3.85v.92c26.93-3,57.35.88,84.23,47.73C104.77,83,125.61,97.63,152.78,98.41c24.5.73,52.14-9.9,81.4-21.14,34.14-13.12,72.83-28,114.51-28,22.27,0,34.86,3.19,39.6,10.09,6.06,8.83-.76,23.8-9.38,42.76-8.14,17.88-18.27,40.14-21.59,65.53-3.88,29.8,2.31,57.7,18.92,85.26,19.32,32,22.11,57.72,8.78,80.81-11.93,20.67-35.34,36.85-60.13,54-36.16,25-73.55,50.82-84.69,94.85-4.86,19.24-11.52,30-20.35,32.85-12.51,4.06-28.36-8.08-45.15-20.93-18.25-14-38.92-29.81-58.6-26.67C105,469.56,95.25,477,86.36,490.5c-22.89,34.82-38.24,46.67-46.48,53-10.55,8.15-10.75,8.3-2,35,1.1,3.35,2.34,7.13,3.72,11.41a348.85,348.85,0,0,0,12.43,32.69c3.35,7.82,5.21,12.13,3.9,13.84s-6.56,1.33-16,.55c-8.56-.71-21.21-1.75-38.65-1.81v.88c17.41.07,30,1.1,38.59,1.81,10.45.86,15.21,1.25,16.87-.92s-.18-6.33-3.79-14.71a344,344,0,0,1-12.4-32.61c-1.39-4.28-2.64-8.06-3.74-11.42-8.6-26.16-8.6-26.16,1.67-34.08,8.29-6.4,23.71-18.31,46.69-53.25,8.73-13.29,18.25-20.58,29.09-22.31,19.26-3.07,38.88,12,57.85,26.48,17,13,33,25.3,46,21.09,9.15-3,16-13.92,21-33.49,11.08-43.71,48.32-69.45,84.34-94.34,24.88-17.19,48.37-33.43,60.41-54.27C399.36,310.73,396.57,284.78,377.07,252.43Z"/><path d="M389.73,250.8c-16.83-27.25-23.29-54.92-19.75-84.59,3-25.32,12.88-47.63,20.8-65.56,8.54-19.31,15.29-34.57,8.83-43.75-5-7.14-17.89-10.35-40.54-10.11-41.89.45-80.53,15.75-114.62,29.25-29.06,11.51-56.51,22.38-80.84,21.9C136.78,97.43,116,83.17,98.34,53.1c-15-25.47-32.24-40.48-52.8-45.89C30.69,3.3,16.24,4.89,3,7.16V8c29.1-5,63.72-6.83,94.5,45.47,17.87,30.37,38.89,44.77,66.08,45.3,24.53.48,52.06-10.42,81.22-22,34-13.47,72.56-28.74,114.27-29.18,22.28-.24,34.91,2.85,39.73,9.71,6.16,8.77-.49,23.83-8.91,42.89-7.94,18-17.83,40.36-20.87,65.8-3.57,29.88,2.93,57.73,19.87,85.16,19.69,31.88,22.77,57.55,9.69,80.79-11.71,20.8-35,37.23-59.57,54.62-35.91,25.37-73,51.6-83.7,95.78-4.66,19.31-11.2,30.13-20,33.08-12.47,4.19-28.47-7.8-45.42-20.5-18.42-13.8-39.29-29.45-58.94-26.11-11.11,1.88-20.76,9.42-29.49,23C79,527,63.74,539,55.56,545.46,45.1,553.72,44.9,553.88,54,580.56c1.14,3.35,2.42,7.12,3.85,11.38a349,349,0,0,0,12.8,32.59c3.45,7.79,5.35,12.09,4.05,13.81s-6.55,1.4-16,.71c-9.21-.67-23.14-1.68-42.66-1.39-4.84.07-9.05.22-12.72.45V639c3.67-.24,7.89-.38,12.73-.45,19.48-.28,33.38.72,42.57,1.39,10.46.76,15.24,1.1,16.87-1.09s-.26-6.33-4-14.69a343.3,343.3,0,0,1-12.78-32.51c-1.43-4.27-2.71-8-3.85-11.39C46,554.21,46,554.21,56.16,546.18c8.22-6.49,23.52-18.56,46.12-53.76,8.59-13.38,18-20.78,28.86-22.61,19.23-3.26,39,11.58,58.19,25.93,17.15,12.85,33.36,25,46.31,20.64,9.14-3.06,15.87-14.1,20.61-33.72,10.59-43.86,47.57-70,83.34-95.26,24.7-17.45,48-33.93,59.84-54.92C412.7,308.94,409.6,283,389.73,250.8Z"/></svg>