<svg xmlns="http://www.w3.org/2000/svg" width="1920" height="631">
  <g opacity=".6">
    <linearGradient id="SVGID_1_" gradientUnits="userSpaceOnUse" x1="960.295" y1="533.567" x2="960.295" y2=".497">
      <stop offset="0" stop-color="#34006b"/>
      <stop offset=".727" stop-color="#aa37b8"/>
      <stop offset=".758" stop-color="#ae3baf"/>
      <stop offset=".809" stop-color="#ba4497"/>
      <stop offset=".872" stop-color="#ce5470"/>
      <stop offset=".946" stop-color="#e9693b"/>
      <stop offset="1" stop-color="#ff7b0f"/>
    </linearGradient>
    <path d="M1873.9.6C1834.2-1.2 1741 22.1 1663.8 41c-25.4 6.2-41.8 12.2-50.2 18.3-12 8.7-7.1 16.9-1.4 26.4 11.5 19.3 25.8 43.3-83.8 87.5-58.6 23.6-86.2 43.6-86.7 62.8-.5 17.4 21.2 32.6 44.1 48.8 26.8 18.9 57.1 40.3 58.7 69.3.9 15.5-4.9 25.5-18.1 31.4-16.9 7.5-46.3 8.4-83.4 9.5-35 1-78.6 2.3-128.1 9.5-58 8.4-329.1 70.1-382 92-61.5 25.5-111.3 37-156.6 36.3-40.6-.6-72.9-10.8-107.1-21.7-49.9-15.9-101.4-32.2-187.4-23.5-37.6 3.8-58.7 3.2-64.6-1.9-8.3-7.2 14.7-22.8 39-39.3 26.4-17.9 56.4-38.2 49.6-50.8-3.8-7.1-18.6-11.1-45.2-12.3-68.5-2.9-92-9.2-104.7-12.5-16.2-4.3-16.5-4.4-68.1 11.7-6.5 2-13.8 4.3-22 6.9-28.8 8.9-49.4 16.1-63 20.9-15.1 5.3-23.4 8.2-26.7 7.9s-2.8-4.1-1.7-11c1.9-10 2.5-20.2 1.9-30.4-1-14.7-4.5-20.5-12.8-21.6-6.8-.9-16.5 1.5-30 4.7C106.8 366.3 65.3 376.3.6 373v.8C65.3 377 107 367 133.7 360.5c13-3.1 22.4-5.4 28.6-4.6 7.9 1 11.3 7 12.2 21.3.6 10.1 0 20.3-1.9 30.3-1.3 7.6-1.9 11.1 2.4 11.4s12.3-2.5 28.4-8.1c14.4-5 34.1-11.9 62.9-20.8 8.3-2.6 15.6-4.8 22-6.9 50.5-15.8 50.5-15.8 66.2-11.6 12.7 3.4 36.5 9.7 105.1 12.6 26.2 1.1 40.7 5 44.4 12 6.6 12.3-21.8 31.5-49.3 50.2-24.6 16.7-47.9 32.5-39.2 40 6.1 5.3 27.6 6 65.8 2.1 85.3-8.6 136.7 7.7 186.4 23.5 34.3 10.9 66.8 21.2 107.7 21.8 45.9.7 96.2-11 158.3-36.7 52.6-21.7 323.3-83.3 381-91.7 49.2-7.1 92.7-8.4 127.6-9.4 37.6-1.1 67.4-2 85.1-9.8 13.8-6.1 19.8-16.3 18.9-32.1-1.6-29.2-32-50.6-58.8-69.5-22.9-16.1-44.4-31.4-44-48.6.5-19 27.8-38.7 85.8-62.1 49.2-19.8 78-37.4 88.1-53.8 8.8-14.1 2.3-25-3.4-34.6-5.6-9.4-10.4-17.4 1.1-25.8 8.1-5.9 24.2-11.7 49-17.8 76.7-18.7 169.5-42 208.9-40.2 15.8.6 31.6 2.1 47.2 4.4V5c-15.4-2.3-30.8-3.8-46.3-4.4z" fill="url(#SVGID_1_)"/>
    <linearGradient id="SVGID_2_" gradientUnits="userSpaceOnUse" x1="960.335" y1="541.581" x2="960.335" y2="6.928">
      <stop offset="0" stop-color="#34006b"/>
      <stop offset=".727" stop-color="#aa37b8"/>
      <stop offset=".758" stop-color="#ae3baf"/>
      <stop offset=".809" stop-color="#ba4497"/>
      <stop offset=".872" stop-color="#ce5470"/>
      <stop offset=".946" stop-color="#e9693b"/>
      <stop offset="1" stop-color="#ff7b0f"/>
    </linearGradient>
    <path d="M1871.7 7c-39.9-1.6-133.4 22.1-210.4 41.2-25.3 6.3-41.7 12.3-50 18.4-11.8 8.7-6.6 16.8-.7 26.3 12.1 19.1 27.2 42.9-81.8 87.4-58.2 23.8-85.4 43.8-85.4 62.9 0 17.2 22.2 32.3 45.7 48.3 27.4 18.6 58.4 39.8 60.9 68.6 1.3 15.4-4.2 25.4-17.3 31.3-16.8 7.6-46.2 8.6-83.5 9.8-35.2 1.2-78.9 2.7-128.4 10.1-58.1 8.7-329 70.5-381.6 92.5-61.1 25.6-110.7 37.4-156.3 37-40.8-.4-73.5-10.4-108.2-21-50.5-15.5-102.8-31.5-188.9-22.5-37.7 4-58.9 3.4-64.9-1.6-8.5-7.1 14.1-22.7 38.1-39.2 26-18 55.6-38.3 48.5-50.8-4-7-19-11-45.8-12-68.9-2.6-92.7-8.7-105.6-12-16.4-4.2-16.7-4.3-68.1 12-6.5 2-13.7 4.4-21.9 6.9-28.7 9-49.1 16.3-62.7 21.1-15 5.3-23.2 8.2-26.6 8s-3-4-2-10.9c1.6-10 2-20.1 1.1-30.2-1.4-14.6-5-20.4-13.5-21.5-6.9-.9-16.6 1.5-30 4.8C106.1 378.4 65 388.5.7 385.7v.8c64.3 2.7 105.5-7.4 131.9-13.9 13-3.2 22.3-5.5 28.6-4.7 7.9 1 11.5 6.9 12.9 21.1.9 10.1.5 20.2-1.1 30.1-1.1 7.6-1.6 11 2.7 11.3s12.3-2.5 28.3-8.2c14.3-5.1 34-12 62.6-21 8.2-2.6 15.5-4.9 21.9-6.9 50.3-15.9 50.3-15.9 66.2-11.9 12.9 3.3 36.9 9.4 106 12 26.3 1 41 4.8 45 11.7 7 12.2-21 31.5-48.1 50.1-21.5 14.8-42 28.9-40.2 37.1.3 1.1.9 2.1 1.8 2.9 6.2 5.2 27.9 5.8 66.2 1.8 85.5-9 137.5 7 187.9 22.4 34.8 10.6 67.6 20.7 108.8 21.1 46.2.4 96.4-11.4 158.1-37.3 52.2-21.9 322.8-83.6 380.5-92.2 49.2-7.4 92.9-8.8 127.9-10 37.8-1.3 67.6-2.3 85.2-10.2 13.7-6.2 19.4-16.3 18.1-32-2.4-29-33.6-50.2-61-68.9-23.4-15.9-45.5-31-45.5-48.1 0-18.9 26.9-38.6 84.5-62.2 48.8-19.9 77.3-37.6 87-53.9 8.4-14.1 1.6-24.9-4.4-34.4-5.9-9.3-10.9-17.3.4-25.7 8-5.9 23.9-11.8 48.8-17.9 76.5-19 169.6-42.6 209.2-41 16.5.5 33 2 49.4 4.5v-.9c-16.2-2.3-32.4-3.8-48.6-4.3z" fill="url(#SVGID_2_)"/>
    <linearGradient id="SVGID_3_" gradientUnits="userSpaceOnUse" x1="960.345" y1="549.702" x2="960.345" y2="13.386">
      <stop offset="0" stop-color="#34006b"/>
      <stop offset=".727" stop-color="#aa37b8"/>
      <stop offset=".758" stop-color="#ae3baf"/>
      <stop offset=".809" stop-color="#ba4497"/>
      <stop offset=".872" stop-color="#ce5470"/>
      <stop offset=".946" stop-color="#e9693b"/>
      <stop offset="1" stop-color="#ff7b0f"/>
    </linearGradient>
    <path d="M1869.5 13.4c-40.2-1.3-133.8 22.6-210.8 42-25.3 6.4-41.6 12.5-49.7 18.6-11.6 8.7-6.2 16.8 0 26.1 12.7 19 28.4 42.6-79.8 87.3-57.9 23.9-84.6 44-84.1 63 .5 17.2 23.2 32.1 47.2 47.8 28.1 18.4 59.8 39.2 63.1 68 1.7 15.3-3.5 25.2-16.6 31.2-16.7 7.6-46.2 8.8-83.7 10.2-35.3 1.4-79.2 3-128.8 10.6-58.1 8.9-328.9 70.9-381.1 93.1-60.7 25.8-110.3 37.7-156.1 37.5-41-.2-74.2-10-109.3-20.4-51.2-15.2-104.2-30.9-190.4-21.4-37.7 4.1-59.1 3.7-65.3-1.2-8.8-7 13.5-22.7 37.2-39.2 25.7-18 54.8-38.4 47.3-50.7-4.3-7-19.4-10.8-46.3-11.7-69.3-2.2-93.4-8.2-106.4-11.4-16.6-4.1-16.9-4.2-68.1 12.3-6.4 2.1-13.7 4.4-21.9 7-28.6 9.1-49 16.4-62.4 21.3-14.9 5.4-23.1 8.3-26.5 8.1s-3.1-4-2.3-10.8c1.4-10 1.5-20.1.3-30-1.8-14.5-5.6-20.2-14.1-21.2-6.9-.8-16.6 1.6-30 5C104.8 391 64.2 401.1.4 398.9v.8c63.8 2.2 104.5-8 130.8-14.6 12.9-3.2 22.3-5.6 28.6-4.8 8 1 11.8 6.8 13.5 20.9 1.2 10 1.1 20.1-.3 30-.9 7.5-1.3 11 3.1 11.3s12.3-2.6 28.2-8.3c14.2-5.1 33.8-12.1 62.3-21.2l21.9-7c50.1-16.1 50.1-16.1 66.2-12.1 13 3.2 37.3 9.2 106.8 11.4 26.5.8 41.4 4.6 45.5 11.4 7.3 12.1-20.3 31.4-47 50.1-23.9 16.8-46.5 32.6-37.4 39.9 6.4 5.2 28.2 5.6 66.6 1.4 85.6-9.4 138.4 6.2 189.4 21.3 35.2 10.4 68.5 20.3 109.9 20.5 46.4.2 96.5-11.8 157.8-37.9 51.9-22 322.3-84 380-92.8 49.2-7.6 93.1-9.2 128.3-10.6 37.9-1.5 67.9-2.6 85.3-10.6 13.6-6.2 19-16.3 17.3-31.9-3.3-28.8-35.1-49.7-63.2-68.2-24-15.7-46.6-30.6-47-47.6-.5-18.8 26-38.6 83.2-62.3 48.5-20.1 76.7-37.8 86-54 8.1-14.1.9-24.7-5.4-34.2-6.2-9.2-11.5-17.2-.3-25.6 7.9-5.9 23.7-11.8 48.5-18.1 76.4-19.2 169.7-43.2 209.5-41.8 17.3.5 34.5 1.9 51.6 4.5v-.9c-16.7-2.5-33.6-4-50.6-4.5z" fill="url(#SVGID_3_)"/>
    <linearGradient id="SVGID_4_" gradientUnits="userSpaceOnUse" x1="960.32" y1="557.79" x2="960.32" y2="19.832">
      <stop offset="0" stop-color="#34006b"/>
      <stop offset=".727" stop-color="#aa37b8"/>
      <stop offset=".758" stop-color="#ae3baf"/>
      <stop offset=".809" stop-color="#ba4497"/>
      <stop offset=".872" stop-color="#ce5470"/>
      <stop offset=".946" stop-color="#e9693b"/>
      <stop offset="1" stop-color="#ff7b0f"/>
    </linearGradient>
    <path d="M1867.3 19.9c-40.3-1.2-134.3 23.1-211 42.8-25.2 6.5-41.4 12.6-49.4 18.7-11.4 8.7-5.8 16.7.8 26 13.3 18.8 29.8 42.2-77.7 87.3-57.5 24.1-83.8 44.2-82.8 63.1.9 17.1 24.2 31.8 48.7 47.3 28.7 18.2 61.2 38.7 65.2 67.3 2.1 15.2-2.9 25.1-15.8 31.1-16.5 7.7-46.2 8.9-83.8 10.6-35.4 1.5-79.6 3.4-129.1 11.2-58.2 9.2-328.8 71.4-380.7 93.7-60.3 25.9-109.7 38-155.8 38-41.2 0-74.8-9.6-110.4-19.7-51.9-14.8-105.6-30.1-192-20.3-37.8 4.3-59.3 4-65.6-.9-9-7 13-22.6 36.3-39.2 25.3-18 54-38.5 46.1-50.7-4.5-6.9-19.8-10.6-46.9-11.4-69.7-1.9-94.1-7.6-107.2-10.8-16.8-4-17.1-4.1-68.1 12.6-6.4 2.1-13.6 4.4-21.8 7.1-28.5 9.2-48.8 16.6-62.2 21.5-14.8 5.4-23 8.4-26.4 8.2s-3.2-4-2.6-10.8c1.1-9.9.9-20-.6-29.9-2.2-14.4-6.2-20.1-14.8-21.1-7-.8-16.6 1.7-30 5.1-25.8 6.6-65.9 16.8-129.3 15v.8c63.4 1.6 103.6-8.6 129.6-15.2 12.9-3.3 22.3-5.7 28.6-4.9 8 .9 12 6.7 14.1 20.7 1.5 9.9 1.6 19.9.6 29.8-.7 7.5-1 10.9 3.4 11.2s12.2-2.6 28.2-8.4c14.2-5.2 33.6-12.2 62-21.4 8.2-2.6 15.4-5 21.8-7.1 49.9-16.3 49.9-16.3 66.2-12.4 13.2 3.1 37.8 9 107.7 10.8 26.6.7 41.7 4.3 46 11.1 7.7 12-19.5 31.4-45.8 50.1-23.6 16.8-45.9 32.6-36.5 39.9 6.6 5.1 28.5 5.4 66.9 1.1 85.8-9.8 139.2 5.5 190.9 20.3 35.7 10.2 69.4 19.8 111 19.8 46.6 0 96.7-12.3 157.5-38.5 51.5-22.2 321.8-84.3 379.6-93.4 49.3-7.8 93.3-9.7 128.6-11.2 38.1-1.6 68.2-2.9 85.5-11 13.4-6.2 18.7-16.4 16.5-31.8-4.1-28.6-36.6-49.3-65.4-67.5-24.5-15.5-47.7-30.2-48.6-47.1-1-18.7 25-38.5 81.9-62.4 48.2-20.2 76-37.9 84.9-54.2 7.7-14 .2-24.6-6.3-34-6.4-9.1-12-17-1-25.4 7.7-5.9 23.5-11.9 48.3-18.2 76.2-19.5 169.7-43.8 209.9-42.6 18 .4 35.9 1.9 53.7 4.5v-.9c-17.5-2.6-35.2-4-52.9-4.3z" fill="url(#SVGID_4_)"/>
    <linearGradient id="SVGID_5_" gradientUnits="userSpaceOnUse" x1="960.34" y1="565.875" x2="960.34" y2="26.275">
      <stop offset="0" stop-color="#34006b"/>
      <stop offset=".727" stop-color="#aa37b8"/>
      <stop offset=".758" stop-color="#ae3baf"/>
      <stop offset=".809" stop-color="#ba4497"/>
      <stop offset=".872" stop-color="#ce5470"/>
      <stop offset=".946" stop-color="#e9693b"/>
      <stop offset="1" stop-color="#ff7b0f"/>
    </linearGradient>
    <path d="M1865.2 26.3c-40.6-.9-134.8 23.6-211.4 43.6-25.2 6.6-41.3 12.7-49.2 18.9-11.2 8.8-5.3 16.7 1.5 25.8 13.8 18.6 31.1 41.8-75.8 87.2-57.1 24.3-83 44.4-81.4 63.2 1.4 17 25.2 31.5 50.3 46.8 29.3 17.9 62.6 38.2 67.4 66.6 2.6 15.1-2.2 25-15 31-16.4 7.7-46.2 9.1-83.9 10.9-35.6 1.7-79.9 3.8-129.4 11.8-58.2 9.4-328.7 71.8-380.2 94.3-59.9 26.1-109.3 38.4-155.5 38.7-41.6.3-75.6-9.1-111.6-19-52.5-14.5-106.9-29.5-193.5-19.2-37.9 4.5-59.5 4.3-66-.6-9.3-6.9 12.4-22.6 35.4-39.2 25-18.1 53.2-38.5 45-50.6-4.7-6.9-20.2-10.5-47.4-11.1-70.1-1.5-94.8-7.1-108.1-10.2-17-3.9-17.3-4-68.1 12.8-6.4 2.1-13.6 4.5-21.7 7.1-28.4 9.3-48.6 16.8-61.9 21.7-14.8 5.5-22.9 8.5-26.4 8.2s-3.3-3.9-2.9-10.7c.8-9.9.4-19.9-1.4-29.7-2.6-14.3-6.8-20-15.5-20.9-7-.8-16.7 1.8-30 5.2-25.6 6.6-65.3 16.9-128.1 15.6v.8c62.9 1.1 102.7-9.1 128.4-15.8 12.9-3.3 22.2-5.7 28.6-5.1 8.1.9 12.2 6.6 14.8 20.5 1.7 9.8 2.2 19.8 1.4 29.7-.4 7.5-.7 10.9 3.7 11.1s12.2-2.7 28.1-8.5c14.1-5.2 33.5-12.4 61.7-21.6 8.1-2.7 15.3-5 21.7-7.2 49.7-16.4 49.7-16.4 66.2-12.7 13.4 3 38.2 8.7 108.5 10.2 26.8.6 42 4.1 46.6 10.8 8.1 11.9-18.7 31.3-44.7 50.1-20.3 14.7-39.5 28.6-37.8 36.7.3 1.3 1.1 2.4 2.2 3.2 6.8 5 28.8 5.3 67.3.7 85.9-10.2 140.1 4.8 192.4 19.2 36.2 10 70.3 19.4 112.1 19.1 46.9-.3 96.8-12.7 157.3-39 51.2-22.3 321.3-84.6 379.1-94 49.3-8 93.5-10.1 129-11.8 38.2-1.8 68.4-3.3 85.6-11.3 13.3-6.3 18.3-16.4 15.7-31.7-4.9-28.5-38.2-48.8-67.6-66.8-25.1-15.3-48.7-29.8-50.1-46.6-1.5-18.6 24.1-38.4 80.6-62.4 47.9-20.4 75.3-38.1 83.8-54.3 7.4-14-.4-24.5-7.3-33.8-6.7-9-12.5-16.8-1.7-25.3 7.6-5.9 23.3-11.9 48-18.4 76.1-19.8 169.8-44.3 210.2-43.4 18.7.3 37.4 1.8 55.9 4.4v-.9c-18.2-2.4-36.5-3.8-54.9-4.1z" fill="url(#SVGID_5_)"/>
    <linearGradient id="SVGID_6_" gradientUnits="userSpaceOnUse" x1="960.325" y1="574.006" x2="960.325" y2="32.715">
      <stop offset="0" stop-color="#34006b"/>
      <stop offset=".727" stop-color="#aa37b8"/>
      <stop offset=".758" stop-color="#ae3baf"/>
      <stop offset=".809" stop-color="#ba4497"/>
      <stop offset=".872" stop-color="#ce5470"/>
      <stop offset=".946" stop-color="#e9693b"/>
      <stop offset="1" stop-color="#ff7b0f"/>
    </linearGradient>
    <path d="M1863 32.7c-40.8-.7-135.3 24.1-211.8 44.4-25.2 6.7-41.1 12.9-48.9 19-11.1 8.8-4.9 16.6 2.2 25.7 14.4 18.5 32.4 41.4-73.8 87.1-56.8 24.4-82.2 44.5-80.1 63.3 1.9 16.9 26.2 31.2 51.8 46.3 30 17.7 64 37.7 69.6 65.9 3 15.1-1.5 24.9-14.2 30.9-16.3 7.7-46.2 9.3-84.1 11.3-35.7 1.9-80.2 4.2-129.8 12.4-58.2 9.6-328.6 72.2-379.7 94.9-59.5 26.3-108.8 38.8-155.3 39.3-41.6.5-76.1-8.7-112.6-18.4-53.2-14.2-108.3-28.8-195-18.2-37.9 4.6-59.6 4.6-66.3-.2-9.5-6.8 11.9-22.5 34.5-39.2 24.6-18.1 52.5-38.6 43.8-50.6-4.9-6.8-20.6-10.3-48-10.8-70.5-1.1-95.5-6.6-108.9-9.6-17.2-3.8-17.5-3.9-68.1 13.1-6.4 2.1-13.5 4.5-21.6 7.2-28.2 9.4-48.3 16.9-61.6 21.9-14.7 5.5-22.8 8.5-26.3 8.3s-3.4-3.9-3.2-10.6c.6-9.9-.2-19.9-2.2-29.6-3-14.2-7.4-19.8-16.1-20.7-7.1-.7-16.7 1.8-30 5.3C102 428 62.9 438.2.5 437.5v.8c62.5.6 101.7-9.7 127.2-16.4 12.9-3.4 22.2-5.8 28.6-5.2 8.2.8 12.5 6.5 15.4 20.4 2 9.7 2.8 19.6 2.2 29.5-.3 7.4-.4 10.8 4 11s12.2-2.7 28-8.6c14-5.3 33.3-12.5 61.5-21.8 8.1-2.7 15.2-5.1 21.6-7.2 49.5-16.6 49.5-16.6 66.2-12.9 13.5 3 38.6 8.5 109.4 9.6 26.9.4 42.3 3.9 47.1 10.5 8.5 11.8-18 31.2-43.5 50-22.9 16.8-44.5 32.8-34.6 39.8 7 5 29.1 5.1 67.7.4 86.1-10.5 140.9 4 194 18.1 36.6 9.7 71.2 18.9 113.2 18.5 47.1-.5 97-13.1 157-39.6 50.8-22.5 320.8-85 378.6-94.5 49.4-8.2 93.7-10.5 129.3-12.4 38.4-2 68.7-3.6 85.7-11.7 13.2-6.3 18-16.4 14.9-31.6-5.7-28.3-39.7-48.4-69.8-66.1-25.6-15.1-49.8-29.4-51.7-46.1-2.1-18.5 23.1-38.3 79.3-62.5 47.6-20.5 74.7-38.3 82.8-54.5 7-14-1.1-24.4-8.3-33.5-7-9-13.1-16.7-2.4-25.1 7.5-5.9 23.1-12 47.8-18.5 75.9-20.1 169.9-44.9 210.5-44.2 19.4.2 38.8 1.6 58 4.3v-.9c-19-2.8-38.1-4.2-57.2-4.4z" fill="url(#SVGID_6_)"/>
    <linearGradient id="SVGID_7_" gradientUnits="userSpaceOnUse" x1="960.38" y1="582.155" x2="960.38" y2="39.133">
      <stop offset="0" stop-color="#34006b"/>
      <stop offset=".727" stop-color="#aa37b8"/>
      <stop offset=".758" stop-color="#ae3baf"/>
      <stop offset=".809" stop-color="#ba4497"/>
      <stop offset=".872" stop-color="#ce5470"/>
      <stop offset=".946" stop-color="#e9693b"/>
      <stop offset="1" stop-color="#ff7b0f"/>
    </linearGradient>
    <path d="M1860.8 39.1c-41.1-.5-135.8 24.7-212.1 45.2-25.1 6.8-41 13-48.6 19.2-10.9 8.8-4.5 16.5 2.9 25.6 15 18.3 33.7 41.1-71.7 87.1-56.4 24.6-81.4 44.7-78.8 63.3.1.5.1 1 .3 1.4 3.5 16.1 27.6 29.9 53.1 44.4 30.6 17.4 65.3 37.2 71.8 65.2l.1.6c3.2 14.6-1.1 24.2-13.6 30.2-16.2 7.8-46.2 9.5-84.2 11.7-35.9 2-80.5 4.6-130.1 13-58.3 9.9-328.5 72.7-379.3 95.4-59 26.5-108.3 39.1-155 39.8-41.8.7-76.7-8.3-113.7-17.8-53.9-13.8-109.6-28.1-196.5-17.1-38 4.8-59.8 4.8-66.7.1-9.7-6.7 11.3-22.5 33.6-39.1 24.2-18.1 51.6-38.6 42.6-50.6-5.1-6.7-21-10.2-48.5-10.5-70.9-.8-96.2-6.1-109.8-9-17.4-3.7-17.7-3.7-68.1 13.4-6.3 2.1-13.4 4.6-21.5 7.3-28.1 9.5-48.1 17.1-61.3 22.1-14.6 5.5-22.7 8.6-26.2 8.4s-3.6-3.9-3.5-10.5c.3-9.9-.7-19.8-3-29.4-3.4-14.1-8-19.7-16.8-20.5-7.1-.7-16.8 1.9-30 5.4-25.1 6.7-63.8 17-125.7 16.8v.8c62 .2 100.8-10.2 126-16.9 12.9-3.4 22.1-5.9 28.6-5.3 8.2.8 12.7 6.4 16.1 20.2 2.3 9.6 3.3 19.5 3 29.4-.1 7.4-.1 10.8 4.4 11s12.2-2.8 27.9-8.7c14-5.3 33.1-12.6 61.2-22l21.5-7.3c49.3-16.8 49.3-16.8 66.2-13.2 13.6 2.9 39.1 8.2 110.2 9 27.1.3 42.6 3.6 47.6 10.2 8.9 11.7-17.2 31.2-42.4 50-22.6 16.9-43.9 32.8-33.8 39.8 7.1 4.9 29.4 4.9 68 0 86.3-10.9 141.8 3.3 195.5 17.1 37.1 9.5 72.1 18.5 114.3 17.8 47.3-.8 97.1-13.5 156.7-40.2 50.5-22.6 320.3-85.3 378.2-95.1 49.4-8.4 93.9-10.9 129.6-13 38.5-2.2 68.9-3.9 85.8-12.1 13.1-6.3 17.6-16.3 14.1-31.6-6.5-28.1-41.3-47.9-72-65.4-26.2-14.9-50.9-29-53.2-45.6-2.6-18.4 22.2-38.3 78-62.6 47.3-20.6 74-38.5 81.7-54.6 6.7-13.9-1.8-24.2-9.2-33.3-7.3-8.9-13.6-16.6-3.1-25 7.4-5.9 22.9-12.1 47.5-18.7 75.8-20.4 170-45.5 210.8-45 20.1.1 40.3 1.5 60.2 4.3v-.9c-19.4-2.7-39.2-4.1-59.1-4.2z" fill="url(#SVGID_7_)"/>
    <linearGradient id="SVGID_8_" gradientUnits="userSpaceOnUse" x1="960.335" y1="590.297" x2="960.335" y2="45.557">
      <stop offset="0" stop-color="#34006b"/>
      <stop offset=".727" stop-color="#aa37b8"/>
      <stop offset=".758" stop-color="#ae3baf"/>
      <stop offset=".809" stop-color="#ba4497"/>
      <stop offset=".872" stop-color="#ce5470"/>
      <stop offset=".946" stop-color="#e9693b"/>
      <stop offset="1" stop-color="#ff7b0f"/>
    </linearGradient>
    <path d="M1858.6 45.6c-41.3-.3-136.3 25.2-212.4 46-25 6.8-40.9 13.2-48.4 19.3-10.7 8.8-4 16.5 3.6 25.4 15.6 18.1 35 40.7-69.8 87-56 24.8-80.6 44.9-77.5 63.4l.2.9c3.6 16.3 28.5 30 54.9 44.4 31.3 17.2 66.7 36.7 74 64.5 3.9 14.9-.2 24.6-12.7 30.8-16 7.8-46.2 9.7-84.3 12-36 2.2-80.8 5-130.5 13.6-58.3 10.1-328.4 73.1-378.8 96-58.6 26.6-107.8 39.5-154.8 40.4-42 .9-77.4-7.9-114.8-17.1-54.6-13.5-111-27.4-198.1-16-38.1 5-60 5.1-67 .4-10-6.6 10.8-22.4 32.7-39.1 23.9-18.2 50.9-38.8 41.5-50.6-5.3-6.7-21.4-10-49.1-10.2-71.3-.4-96.9-5.6-110.6-8.4-17.6-3.6-17.9-3.6-68.1 13.7-6.3 2.2-13.4 4.6-21.5 7.4-28 9.6-47.9 17.2-61.1 22.3-14.5 5.6-22.6 8.7-26.1 8.5s-3.7-3.8-3.8-10.5c0-9.9-1.3-19.7-3.9-29.2-3.8-14-8.6-19.6-17.4-20.3-7.2-.6-16.8 2-30 5.6-25 6.8-63.2 17.1-124.6 17.3v.8c61.5-.3 99.8-10.7 124.8-17.5 12.8-3.5 22.1-6 28.6-5.4 8.3.7 13 6.3 16.7 20 2.6 9.5 3.9 19.3 3.9 29.2.1 7.4.2 10.7 4.7 10.9s12.2-2.8 27.8-8.8c13.9-5.3 33-12.7 60.9-22.2 8-2.8 15.2-5.2 21.5-7.4 49.1-16.9 49.1-16.9 66.2-13.5 13.8 2.8 39.5 8 111 8.4 27.2.1 43 3.4 48.2 9.9 9.2 11.6-16.4 31.1-41.2 50-22.2 16.9-43.2 32.9-32.8 39.8 7.3 4.8 29.7 4.8 68.4-.3 86.4-11.3 142.6 2.6 197 16 37.5 9.3 73 18 115.4 17.2 47.6-1 97.3-14 156.5-40.8 50.1-22.8 319.8-85.6 377.7-95.7 49.4-8.6 94.1-11.3 130-13.5 38.7-2.4 69.2-4.2 86-12.4 13-6.4 17.3-16.4 13.3-31.5-7.3-28-42.8-47.5-74.2-64.7-26.7-14.7-51.9-28.6-54.8-45.1-3.1-18.3 21.3-38.2 76.7-62.7 47-20.8 73.3-38.7 80.7-54.8 6.3-13.9-2.5-24.1-10.2-33.1-7.6-8.8-14.1-16.4-3.8-24.9 7.2-6 22.7-12.1 47.2-18.8 75.6-20.7 170.1-46.1 211.2-45.8 20.9 0 41.7 1.4 62.4 4.2v-.9c-20.2-2.8-40.8-4.1-61.4-4.1z" fill="url(#SVGID_8_)"/>
    <linearGradient id="SVGID_9_" gradientUnits="userSpaceOnUse" x1="960.335" y1="598.412" x2="960.335" y2="51.99">
      <stop offset="0" stop-color="#34006b"/>
      <stop offset=".727" stop-color="#aa37b8"/>
      <stop offset=".758" stop-color="#ae3baf"/>
      <stop offset=".809" stop-color="#ba4497"/>
      <stop offset=".872" stop-color="#ce5470"/>
      <stop offset=".946" stop-color="#e9693b"/>
      <stop offset="1" stop-color="#ff7b0f"/>
    </linearGradient>
    <path d="M1856.5 52c-41.6-.1-136.7 25.7-212.7 46.8-25 6.9-40.7 13.3-48.1 19.5-10.5 8.8-3.6 16.4 4.4 25.3 16.2 18 36.3 40.3-67.7 86.9-55.6 24.9-79.8 45.1-76.1 63.5l.1.3c3.6 16.4 29.2 30.1 56.4 44.5 31.9 17 68.1 36.2 76.1 63.9 4.3 14.8.5 24.5-11.9 30.7-15.9 7.9-46.2 9.9-84.5 12.4-36.1 2.4-81.1 5.3-130.8 14.2-58.4 10.4-328.2 73.5-378.3 96.6-58.2 26.8-107.3 39.8-154.5 41-42.2 1.1-78-7.4-115.9-16.4-55.2-13.2-112.3-26.7-199.6-15-38.1 5.1-60.2 5.4-67.4.8-10.2-6.5 10.2-22.4 31.8-39.1 23.5-18.2 50.1-38.8 40.3-50.5-5.5-6.6-21.8-9.9-49.6-9.9-71.7 0-97.5-5.1-111.4-7.8-17.8-3.5-18.1-3.5-68.1 14-6.3 2.2-13.3 4.7-21.3 7.4-27.9 9.7-47.7 17.4-60.8 22.5-14.5 5.6-22.4 8.7-26 8.6s-3.8-3.8-4.1-10.4c-.2-9.9-1.8-19.7-4.7-29.1-4.2-14-9.1-19.4-18.1-20.1-7.2-.6-16.8 2-30.1 5.7C99.2 465 61.4 475.4.5 476.1v.7c61-.8 98.9-11.2 123.7-18 12.8-3.5 22-6.1 28.7-5.5 8.4.7 13.2 6.2 17.4 19.8 2.8 9.4 4.4 19.2 4.6 29 .3 7.3.5 10.7 5 10.8 4.4.2 12.2-2.9 27.7-8.9 13.8-5.4 32.8-12.8 60.6-22.4 8-2.8 15.1-5.3 21.4-7.4 48.9-17.1 48.9-17.1 66.2-13.7 14 2.7 39.9 7.8 111.9 7.8 27.4 0 43.3 3.2 48.7 9.6 9.6 11.5-15.7 31-40.1 50-21.9 17-42.5 33-31.9 39.8 7.5 4.8 30 4.6 68.8-.7 86.6-11.7 143.5 1.8 198.5 14.9 38 9 73.9 17.6 116.5 16.5 47.8-1.2 97.4-14.4 156.2-41.4 49.8-22.9 319.3-85.9 377.3-96.3 49.5-8.8 94.3-11.8 130.3-14.1 38.8-2.6 69.5-4.6 86.1-12.8 12.9-6.4 16.9-16.4 12.5-31.4-8.1-27.8-44.3-47.1-76.3-64.1-27.1-14.4-52.7-28-56.2-44.3l-.1-.3c-3.6-18.2 20.3-38.1 75.4-62.8C1580 210 1606.1 192 1613 176c6-13.9-3.2-24-11.2-32.9-7.8-8.7-14.6-16.2-4.5-24.7 7.1-6 22.5-12.2 47-19 75.5-20.9 170.2-46.7 211.5-46.6 21.6-.1 43.1 1.2 64.5 4.1V56c-21.3-2.8-42.5-4.1-63.8-4z" fill="url(#SVGID_9_)"/>
    <linearGradient id="SVGID_10_" gradientUnits="userSpaceOnUse" x1="960.325" y1="606.573" x2="960.325" y2="58.385">
      <stop offset="0" stop-color="#34006b"/>
      <stop offset=".727" stop-color="#aa37b8"/>
      <stop offset=".758" stop-color="#ae3baf"/>
      <stop offset=".809" stop-color="#ba4497"/>
      <stop offset=".872" stop-color="#ce5470"/>
      <stop offset=".946" stop-color="#e9693b"/>
      <stop offset="1" stop-color="#ff7b0f"/>
    </linearGradient>
    <path d="M1854.3 58.4c-41.8.1-137.2 26.2-213.1 47.6-24.9 7-40.6 13.5-47.8 19.6-10.3 8.8-3.2 16.4 5.1 25.1 16.8 17.8 37.6 39.9-65.7 86.9-55.1 25-78.9 45.1-74.9 63.4v.2c3.8 16.5 30.1 30 58 44.4 32.6 16.7 69.5 35.7 78.3 63.2 4.7 14.7 1.2 24.4-11.1 30.6-15.8 7.9-46.1 10-84.6 12.8-36.3 2.5-81.4 5.7-131.1 14.8-58.4 10.6-328.1 74-377.9 97.2-57.8 27-106.8 40.2-154.2 41.6-42.4 1.3-78.6-7-117-15.8-55.9-12.8-113.7-26-201.1-13.9-38.2 5.3-60.4 5.7-67.8 1.1-10.5-6.5 9.6-22.3 30.9-39.1 23.1-18.2 49.3-38.9 39.1-50.5-5.8-6.6-22.2-9.7-50.2-9.6-72.1.3-98.2-4.6-112.3-7.2-18-3.4-18.3-3.4-68.1 14.2-6.2 2.2-13.3 4.7-21.3 7.5-27.8 9.8-47.5 17.5-60.5 22.7-14.4 5.7-22.3 8.8-25.9 8.7s-4-3.7-4.5-10.3c-.5-9.8-2.4-19.6-5.5-28.9-4.6-13.9-9.7-19.3-18.7-20-7.3-.5-16.9 2.1-30.1 5.8C98 477.4 60.8 487.8.4 488.9v.7c60.6-1.2 98-11.6 122.6-18.5 12.8-3.6 22-6.1 28.7-5.6 8.4.6 13.5 6.1 18 19.6 3.1 9.3 4.9 19.1 5.4 28.9.6 7.3.8 10.6 5.3 10.7s12.2-2.9 27.6-9c13.8-5.4 32.6-12.9 60.4-22.6 8-2.8 15-5.3 21.3-7.5 48.7-17.3 48.7-17.3 66.2-14 14.1 2.6 40.4 7.5 112.7 7.2 27.5-.1 43.6 2.9 49.2 9.3 10 11.4-14.9 31-38.9 49.9-18.2 14.4-35.6 28.1-33.9 36 .4 1.6 1.5 2.9 2.9 3.7 7.7 4.7 30.3 4.4 69.1-1 86.8-12.1 144.3 1.1 200 13.9 38.5 8.8 74.8 17.1 117.6 15.8 48-1.5 97.6-14.8 155.9-42 49.4-23 318.8-86.3 376.8-96.8 49.5-9 94.5-12.2 130.6-14.7 39-2.7 69.7-4.9 86.2-13.2 12.8-6.4 16.5-16.4 11.7-31.3-8.9-27.6-45.9-46.6-78.5-63.4-27.8-14.3-54.1-27.8-57.8-44.1v-.2c-3.9-18 19.6-37.9 74.1-62.7 46.3-21 72-39 78.5-55 5.6-13.8-3.8-23.9-12.2-32.7-8.1-8.6-15.2-16.1-5.2-24.6 7-6 22.3-12.2 46.7-19.1 75.3-21.3 170.3-47.3 211.8-47.5 22.3-.2 44.6 1.1 66.7 4v-.9c-21.6-2.7-43.6-4-65.6-3.8z" fill="url(#SVGID_10_)"/>
    <linearGradient id="SVGID_11_" gradientUnits="userSpaceOnUse" x1="960.375" y1="614.683" x2="960.375" y2="64.788">
      <stop offset="0" stop-color="#34006b"/>
      <stop offset=".727" stop-color="#aa37b8"/>
      <stop offset=".758" stop-color="#ae3baf"/>
      <stop offset=".809" stop-color="#ba4497"/>
      <stop offset=".872" stop-color="#ce5470"/>
      <stop offset=".946" stop-color="#e9693b"/>
      <stop offset="1" stop-color="#ff7b0f"/>
    </linearGradient>
    <path d="M1852.1 64.8c-42 .3-137.7 26.7-213.4 48.4-24.9 7.1-40.5 13.6-47.6 19.8-10.1 8.8-2.8 16.3 5.8 25 17.3 17.6 38.9 39.6-63.7 86.8-54.2 24.9-77.6 44.9-73.7 63l.2.7c4.2 16.4 31.1 29.7 59.6 43.9 33.2 16.5 70.8 35.2 80.5 62.5 5.2 14.6 1.9 24.3-10.3 30.5-15.6 8-46.1 10.2-84.7 13.1-36.4 2.7-81.7 6.1-131.5 15.4-58.4 10.9-328 74.4-377.4 97.7-57.4 27.1-106.3 40.5-154 42.2-42.6 1.5-79.3-6.6-118.1-15.1-56.6-12.5-115.1-25.3-202.6-12.8-38.3 5.5-60.5 6-68.1 1.5-10.7-6.4 9.1-22.2 30-39 22.8-18.3 48.5-39 38-50.5-6-6.5-22.6-9.5-50.7-9.3-72.5.7-98.9-4-113.1-6.6-18.2-3.2-18.5-3.3-68.1 14.5-6.2 2.2-13.2 4.7-21.2 7.5-27.7 9.9-47.3 17.7-60.2 22.9-14.3 5.7-22.2 8.9-25.8 8.8s-4.1-3.7-4.8-10.3c-.8-9.8-3-19.5-6.3-28.8-5.1-13.8-10.3-19.1-19.4-19.8-7.4-.5-16.9 2.2-30.1 5.9-24.2 6.9-60.9 17.4-120.9 18.9v.7c60-1.6 97-12.1 121.3-19 12.7-3.6 22-6.2 28.7-5.8 8.5.6 13.7 6 18.6 19.5 3.4 9.2 5.5 18.9 6.3 28.7.8 7.2 1.1 10.5 5.7 10.7s12.2-3 27.5-9.1c13.7-5.5 32.4-13 60.1-22.8 7.9-2.8 15-5.4 21.2-7.6 48.5-17.4 48.5-17.4 66.2-14.3 14.3 2.5 40.8 7.3 113.6 6.6 27.7-.3 43.9 2.7 49.8 9 10.3 11.3-14.1 30.9-37.8 49.9-21.2 17-41.2 33.1-30.1 39.7 7.8 4.7 30.6 4.2 69.5-1.3 87-12.5 145.2.4 201.6 12.8 38.9 8.6 75.7 16.7 118.7 15.2 48.3-1.7 97.7-15.2 155.7-42.6 49.1-23.2 318.3-86.6 376.3-97.4 49.5-9.2 94.7-12.6 131-15.3 39.1-2.9 70-5.2 86.3-13.6 12.7-6.5 16.2-16.4 11-31.2-9.7-27.5-47.4-46.2-80.7-62.7-28.4-14.1-55.2-27.4-59.4-43.6-4.7-17.9 18.5-38 72.8-62.9 46-21.2 71.3-39.2 77.5-55.2 5.3-13.8-4.5-23.7-13.1-32.5-8.4-8.6-15.7-16-5.9-24.4 6.9-6 22.1-12.3 46.5-19.3 75.2-21.5 170.4-47.9 212.1-48.2 23-.4 46 .9 68.8 3.8v-.9c-22.6-2.8-45.4-4-68.2-3.7z" fill="url(#SVGID_11_)"/>
    <linearGradient id="SVGID_12_" gradientUnits="userSpaceOnUse" x1="960.345" y1="622.876" x2="960.345" y2="71.161">
      <stop offset="0" stop-color="#34006b"/>
      <stop offset=".727" stop-color="#aa37b8"/>
      <stop offset=".758" stop-color="#ae3baf"/>
      <stop offset=".809" stop-color="#ba4497"/>
      <stop offset=".872" stop-color="#ce5470"/>
      <stop offset=".946" stop-color="#e9693b"/>
      <stop offset="1" stop-color="#ff7b0f"/>
    </linearGradient>
    <path d="M1849.9 71.3c-42.2.5-138.2 27.3-213.7 49.2-24.8 7.2-40.3 13.7-47.3 19.9-9.9 8.8-2.3 16.2 6.6 24.9 17.9 17.5 40.3 39.2-61.7 86.7-54.5 25.4-77.5 45.7-72.2 63.8 4.7 16.3 32.1 29.5 61.1 43.4 33.8 16.2 72.2 34.6 82.7 61.8 5.6 14.5 2.6 24.2-9.6 30.4-15.5 8-46.1 10.4-84.8 13.5-36.5 2.9-82 6.5-131.8 16-58.5 11.1-327.9 74.9-376.9 98.3-57 27.3-105.8 40.9-153.7 42.8-42.8 1.7-79.9-6.2-119.2-14.5-57.2-12.1-116.4-24.7-204.2-11.7-38.3 5.7-60.7 6.2-68.5 1.8-11-6.3 8.5-22.2 29.1-39 22.4-18.3 47.8-39 36.8-50.4-6.2-6.4-23-9.4-51.3-9-72.9 1-99.6-3.5-113.9-6-18.4-3.1-18.7-3.2-68.1 14.8-6.2 2.3-13.2 4.8-21.1 7.7-27.6 10-47.1 17.9-59.9 23.1-14.2 5.8-22.1 9-25.7 8.9s-4.2-3.7-5.1-10.2c-1.1-9.8-3.5-19.4-7.2-28.6-5.4-13.7-10.9-19-20-19.6-7.4-.5-16.9 2.3-30.1 6.1-24 6.9-60.3 17.4-119.7 19.3v.7c59.5-2 96.1-12.6 120.2-19.5 12.7-3.7 21.9-6.3 28.7-5.9 8.6.5 14 6 19.3 19.3 3.7 9.2 6.1 18.8 7.1 28.6.9 7.2 1.4 10.5 6 10.6s12.2-3 27.4-9.2c13.6-5.5 32.3-13.1 59.8-23l21.1-7.7c48.3-17.6 48.3-17.6 66.2-14.5 14.4 2.5 41.2 7.1 114.4 6 27.8-.4 44.3 2.5 50.3 8.7 10.7 11.2-13.4 30.8-36.6 49.9-20.9 17-40.5 33.1-29.2 39.7 8 4.6 30.9 4.1 69.9-1.7 87.1-12.8 146.1-.3 203.1 11.7 39.4 8.3 76.6 16.2 119.8 14.5 48.5-1.9 97.9-15.6 155.4-43.2 48.7-23.3 317.8-86.9 375.9-98 49.6-9.4 94.9-13 131.3-15.9 39.2-3.1 70.2-5.6 86.5-13.9 12.6-6.5 15.9-16.4 10.2-31.1-10.5-27.3-49-45.7-82.9-62-28.9-13.9-56.2-27-60.9-43.2-5.2-17.8 17.5-37.9 71.5-63 45.7-21.3 70.7-39.4 76.4-55.3 4.9-13.8-5.2-23.6-14.1-32.3-8.7-8.5-16.2-15.8-6.7-24.3 6.7-6 21.9-12.3 46.2-19.4 75-21.8 170.5-48.5 212.5-49 23.7-.5 47.5.7 71 3.7v-.9c-23.4-3.1-46.9-4.3-70.4-3.8z" fill="url(#SVGID_12_)"/>
    <linearGradient id="SVGID_13_" gradientUnits="userSpaceOnUse" x1="960.35" y1="631.048" x2="960.35" y2="77.525">
      <stop offset="0" stop-color="#34006b"/>
      <stop offset=".727" stop-color="#aa37b8"/>
      <stop offset=".758" stop-color="#ae3baf"/>
      <stop offset=".809" stop-color="#ba4497"/>
      <stop offset=".872" stop-color="#ce5470"/>
      <stop offset=".946" stop-color="#e9693b"/>
      <stop offset="1" stop-color="#ff7b0f"/>
    </linearGradient>
    <path d="M1847.8 77.7c-42.5.8-138.7 27.8-214 50-24.8 7.3-40.2 13.9-47 20.1-9.8 8.8-1.9 16.2 7.2 24.7 18.5 17.3 41.6 38.8-59.7 86.7-54.1 25.6-76.7 45.9-70.9 63.9 5.2 16.2 33.1 29.2 62.7 42.9 34.5 16 73.6 34.1 84.9 61.1 6 14.4 3.2 24.1-8.8 30.4-15.4 8-46.1 10.6-85 13.9-36.7 3.1-82.3 6.9-132.2 16.6-58.5 11.4-327.8 75.3-376.5 98.9-56.5 27.2-105.3 41-153.4 43.1-43.1 1.9-80.6-5.7-120.3-13.8-57.9-11.8-117.8-24-205.7-10.7-38.4 5.8-60.9 6.5-68.8 2.1-11.2-6.2 7.9-22.1 28.2-39 22-18.3 47-39.1 35.6-50.4-6.4-6.4-23.4-9.2-51.8-8.7-73.3 1.4-100.3-3-114.8-5.4-18.5-3-18.9-3.1-68.1 15.1-6.2 2.3-13.1 4.8-21 7.7-27.5 10.1-46.9 18-59.7 23.3-14.2 5.8-22 9-25.6 9s-4.3-3.6-5.4-10.1c-1.4-9.8-4.1-19.4-8-28.5-5.9-13.6-11.5-18.9-20.7-19.4-7.5-.4-17 2.3-30.1 6.2-23.7 6.9-59.6 17.4-118.5 19.8v.8c59-2.4 95.1-13 118.9-20 12.7-3.7 21.9-6.4 28.7-6 8.6.5 14.2 5.9 19.9 19.1 3.9 9.1 6.6 18.6 8 28.4 1.1 7.2 1.7 10.4 6.3 10.5s12.1-3.1 27.4-9.3c13.6-5.6 32.1-13.2 59.5-23.2 7.9-2.9 14.8-5.5 21-7.7 48.1-17.8 48.1-17.8 66.1-14.8 14.6 2.4 41.7 6.8 115.2 5.4 28-.5 44.6 2.2 50.8 8.4 11.1 11-12.6 30.8-35.5 49.8-20.5 17.1-39.9 33.2-28.2 39.7 8.2 4.5 31.2 3.9 70.2-2 87.3-13.2 146.9-1.1 204.6 10.7 39.8 8.1 77.4 15.7 120.9 13.8 48.7-2.2 98-16.1 155.1-43.8 48.3-23.5 317.3-87.3 375.4-98.5 49.6-9.6 95.1-13.4 131.7-16.5 39.4-3.3 70.5-5.9 86.6-14.3 12.5-6.5 15.5-16.4 9.4-31.1-11.3-27.1-50.5-45.3-85.1-61.3-29.5-13.7-57.3-26.6-62.5-42.7-5.7-17.7 16.6-37.8 70.2-63.1 45.4-21.4 70-39.6 75.3-55.5 4.6-13.7-5.9-23.5-15.1-32.1-9-8.4-16.7-15.7-7.3-24.2 6.6-6 21.7-12.4 46-19.6 74.8-22.1 170.6-49 212.8-49.8 24.4-.6 48.9.5 73.1 3.5v-.9c-23.6-2.7-47.8-3.8-72-3.2z" fill="url(#SVGID_13_)"/>
  </g>
</svg>