<svg id="Слой_1" xmlns="http://www.w3.org/2000/svg" width="677" height="102" viewBox="0 0 677.4 102.2">
  <style>
    .st0{fill:#ebebeb}
  </style>
  <g id="Слой_2">
    <g id="Слой_1-2">
      <path class="st0" d="M51.2 27.9c-20 0-33.7 11.8-36.7 29.2H0v14.4h14.2c2.6 18.7 16.5 30.8 38.2 30.8 10.7 0 22.8-3.7 30.3-11.4l-11.1-11c-4 4.1-12.4 6.6-18.8 6.6-12.3 0-19.8-6.3-21-15h55c2.6-29.1-12.1-43.6-35.6-43.6M32 57c2.6-9.1 10.3-13.7 19.7-13.7 10 0 17.1 4.6 18.3 13.7H32z"/>
      <polygon class="st0" points="142.8,53.4 132.1,82.8 121.3,53.1 111.6,29.9 92.6,29.9 122.7,100.7 141.5,100.7 171.5,29.9 152.5,29.9"/>
      <path class="st0" d="M213.2 28.6c-22.4 0-36.4 16.6-36.4 36.7 0 20.3 13.7 36.7 36.5 36.7S250 85.5 250 65.3c0-20.2-14.4-36.7-36.8-36.7m.1 57.4c-12.7 0-19.1-10-19.1-20.7 0-10.6 6.6-20.8 19.1-20.8 11.7 0 19.1 10.3 19.1 20.8C232.4 76 226 86 213.3 86"/>
      <path class="st0" d="M433.7 85.5c-5.4 0-9.1-3.3-9.1-10V45.1h19.6v-15h-19.4v-20L407.3 12v18.1h-49.9V66c0 10.7-7.3 19.7-18 19.7-11.1 0-17-8.1-17-18.8V30H305v37c0 21.8 12.3 34.5 29.1 34.5 9.9 0 16.6-3.4 23.8-10.6l1.1 9.6h15.6V45.1h32.7v30.4c0 17.6 10 26.3 25.3 25.7 5-.1 9.8-1.1 14.4-3l-4.9-14.8c-2.6 1.3-5.4 2.1-8.4 2.1"/>
      <rect x="467.2" y="29.7" class="st0" width="17.4" height="70.7"/>
      <path class="st0" d="M465.7 10.2c0 13.6 20.6 13.6 20.6 0s-20.6-13.6-20.6 0"/>
      <path class="st0" d="M537.8 28.6c-22.4 0-36.4 16.6-36.4 36.7 0 20.3 13.7 36.7 36.5 36.7s36.7-16.4 36.7-36.7c0-20.2-14.4-36.7-36.8-36.7m.1 57.4c-12.7 0-19.1-10-19.1-20.7 0-10.6 6.6-20.8 19.1-20.8 11.7 0 19.1 10.3 19.1 20.8C557 76 550.6 86 537.9 86"/>
      <path class="st0" d="M663 86V63.4c0-22.1-13.3-34.5-29.8-34.5-8.9 0-16 3.6-23.1 10.6l-1.1-9.6h-15.6v70.5h17.3v-36c0-10.7 7.3-19.7 18-19.7 11.1 0 17 8.1 17 18.8v36.8h31.8V86H663z"/>
      <polygon class="st0" points="258,0.6 259.8,18 268.9,18 268.9,100.4 286.2,100.4 286.2,18 286.2,0.6"/>
    </g>
  </g>
</svg>