<svg xmlns="http://www.w3.org/2000/svg" viewBox="0 0 677.38 129.981" width="678" height="130"><path fill="currentColor" d="M51.166 55.607c-20.025 0-33.683 11.847-36.748 29.2H0v14.414h14.236c2.644 18.724 16.471 30.76 38.215 30.76 10.705 0 22.838-3.713 30.263-11.42l-11.138-10.992c-4 4.141-12.417 6.567-18.841 6.567-12.28 0-19.842-6.28-20.985-14.987h54.96c2.712-28.981-11.99-43.542-35.544-43.542M32.035 84.73c2.569-9.135 10.278-13.707 19.7-13.707 9.994 0 17.13 4.572 18.273 13.707zm110.798-3.57l-10.705 29.408-10.848-29.692-9.71-23.271H92.586l30.121 70.806h18.841l29.978-70.806h-18.983l-9.71 23.555zm70.322-24.839c-22.411 0-36.4 16.557-36.4 36.688 0 20.27 13.7 36.686 36.545 36.686s36.686-16.416 36.686-36.686c0-20.13-14.418-36.688-36.829-36.688m.143 57.387c-12.706 0-19.131-9.992-19.131-20.7 0-10.564 6.566-20.844 19.131-20.844 11.706 0 19.131 10.28 19.131 20.844 0 10.708-6.425 20.7-19.131 20.7m220.43-.429c-5.424 0-9.137-3.283-9.137-9.992V72.879h19.558V57.89h-19.415V37.906l-17.415 1.856V57.89H357.4v35.831c0 10.708-7.282 19.7-17.988 19.7-11.132 0-16.987-8.136-16.987-18.843v-36.83h-17.417v36.974c0 21.84 12.274 34.545 29.12 34.545 9.852 0 16.56-3.426 23.838-10.562l1.142 9.562h15.561V72.879h32.651v30.409c0 17.558 9.991 26.265 25.266 25.693a38.888 38.888 0 0 0 14.419-3l-4.85-14.846a19.892 19.892 0 0 1-8.426 2.141m33.507-55.813h17.418v70.662h-17.418zm-1.569-19.557c0 13.563 20.557 13.563 20.557 0s-20.557-13.561-20.557 0m72.095 18.415c-22.411 0-36.4 16.557-36.4 36.688 0 20.27 13.7 36.686 36.545 36.686s36.686-16.416 36.686-36.686c0-20.13-14.418-36.688-36.829-36.688m.143 57.387c-12.706 0-19.131-9.992-19.131-20.7 0-10.564 6.566-20.844 19.131-20.844 11.706 0 19.129 10.28 19.129 20.844 0 10.708-6.424 20.7-19.129 20.7m125.055 0V91.152c0-22.127-13.276-34.546-29.831-34.546-8.852 0-15.992 3.57-23.127 10.565l-1.142-9.565H593.3v70.519h17.273V92.152c0-10.708 7.281-19.7 17.986-19.7 11.138 0 16.988 8.135 16.988 18.843v36.829h31.833v-14.416zM258.026 28.341l1.741 17.414h9.148v82.37h17.277V28.341h-28.166zM10.448.406l-1.659 6.8h8.141l1.7-6.8h1.863l-1.7 6.8h3.686v1.54h-4.052l-2.915 11.465h3.848v1.621h-4.212l-1.7 6.925h-1.864l1.7-6.925H5.143l-1.7 6.925H1.579l1.7-6.925H0v-1.621h3.6L6.561 8.749H3.119v-1.54h3.807L8.587.406zM8.424 8.749L5.468 20.211h8.181l2.917-11.462zM52.3 5.873c-2.065-3.321-5.386-3.807-8.587-3.848-3.321 0-8.586 1.216-8.586 5.751 0 3.6 3.888 4.454 8.667 5.346 5.468 1.054 11.139 2.027 11.139 8.142-.042 6.4-6.481 7.938-11.22 7.938-4.414 0-9.436-1.823-11.623-6.157l1.944-.971c1.742 3.443 6.2 5.143 9.679 5.143s9.033-.972 9.033-5.994c.04-4.253-4.659-5.183-9.316-6.074-5.184-1.014-10.49-2.066-10.49-7.291C32.823 1.864 39.06 0 43.718 0c4.05 0 7.574.648 10.369 4.82zm15.817 7.615h16.605v1.984H68.117v11.179h17.901v2.105H65.971V.406h19.562v2.065H68.117v11.017zm48.82 15.268h-2.754L99.238 14.783v13.934h-2.187V.406h2.187v12.92l13.77-12.92h2.633v.202l-14.256 13.366 15.552 14.621v.161zM134.531 2.39h-10.246V.445h22.681V2.39h-10.248v26.366h-2.187V2.39zM174.4 28.756l-3.118-6.966h-16.926l-3.078 6.966h-2.35L161.646.405h2.389l12.718 28.351zm-3.968-8.99l-7.611-17.254-7.614 17.254z" data-name="Слой 1"/></svg>